<?xml version="1.0" encoding="UTF-8"?><svg xmlns="http://www.w3.org/2000/svg" viewBox="0 0 381.3 397.46"><defs><style>.d{fill:#fff;}.e{fill:#968b83;}</style></defs><g id="a"/><g id="b"><g id="c"><g><g><path class="e" d="M19.3,347.89c0,4.65-3.22,8.09-7.77,8.09s-7.77-3.44-7.77-8.09,3.22-8.06,7.77-8.06,7.77,3.44,7.77,8.06Zm-3.03,0c0-3.51-2.21-5.4-4.74-5.4s-4.74,1.9-4.74,5.4,2.21,5.44,4.74,5.44,4.74-1.9,4.74-5.44Z"/><path class="e" d="M23.57,361.51v-21.2h2.88v2.37c.82-1.52,2.62-2.72,5.09-2.72,4.55,0,6.98,3.51,6.98,7.93s-2.62,8.03-7.08,8.03c-2.34,0-4.11-1.11-4.93-2.46v8.06h-2.94Zm7.43-18.93c-2.72,0-4.52,2.28-4.52,5.31s1.8,5.37,4.52,5.37,4.49-2.24,4.49-5.37-1.71-5.31-4.49-5.31Z"/><path class="e" d="M56.28,351.17c-.85,2.69-3.29,4.8-6.83,4.8-4.08,0-7.65-2.97-7.65-8.12,0-4.77,3.44-8.03,7.27-8.03,4.68,0,7.3,3.22,7.3,7.96,0,.38-.03,.76-.06,.95h-11.44c.06,2.72,2.02,4.61,4.58,4.61s3.7-1.36,4.27-3.07l2.56,.89Zm-3-4.83c-.06-2.18-1.49-3.89-4.17-3.89-2.5,0-4.01,1.93-4.14,3.89h8.31Z"/><path class="e" d="M63.55,355.5h-2.97v-15.2h2.91v2.18c1.11-1.9,2.91-2.62,4.68-2.62,3.63,0,5.44,2.62,5.44,6v9.64h-2.97v-9.13c0-2.12-.88-3.82-3.54-3.82-2.34,0-3.54,1.86-3.54,4.17v8.79Z"/><path class="e" d="M88.65,350.6c.19,1.58,1.39,2.84,3.54,2.84,1.67,0,2.59-.95,2.59-2.02,0-.95-.7-1.67-1.96-1.96l-2.59-.57c-2.37-.51-3.79-2.12-3.79-4.27,0-2.59,2.43-4.8,5.4-4.8,4.17,0,5.47,2.72,5.78,4.08l-2.62,.98c-.13-.79-.76-2.53-3.16-2.53-1.52,0-2.53,.98-2.53,2.02,0,.92,.57,1.58,1.74,1.83l2.46,.54c2.75,.6,4.2,2.28,4.2,4.52s-1.8,4.71-5.56,4.71c-4.17,0-5.94-2.69-6.19-4.42l2.69-.95Z"/><path class="e" d="M116.56,347.89c0,4.65-3.22,8.09-7.77,8.09s-7.77-3.44-7.77-8.09,3.22-8.06,7.77-8.06,7.77,3.44,7.77,8.06Zm-3.03,0c0-3.51-2.21-5.4-4.74-5.4s-4.74,1.9-4.74,5.4,2.21,5.44,4.74,5.44,4.74-1.9,4.74-5.44Z"/><path class="e" d="M126.36,355.98c-3.54,0-5.69-2.65-5.69-6.1v-9.58h2.97v9.13c0,2.09,.95,3.92,3.44,3.92s3.6-1.58,3.6-3.89v-9.16h2.97v12.39c0,1.2,.1,2.28,.16,2.81h-2.84c-.06-.35-.13-1.2-.13-1.83-.82,1.58-2.72,2.31-4.49,2.31Z"/><path class="e" d="M147.41,343.3c-.44-.06-.89-.1-1.3-.1-2.5,0-4.17,1.33-4.17,4.68v7.62h-2.97v-15.2h2.91v2.65c1.11-2.34,3-2.91,4.55-2.91,.41,0,.82,.06,.98,.09v3.16Z"/><path class="e" d="M152.66,347.89c0,3.48,2.18,5.34,4.65,5.34,2.84,0,3.89-1.93,4.23-3.13l2.62,1.14c-.73,2.18-2.91,4.74-6.86,4.74-4.42,0-7.68-3.48-7.68-8.09s3.32-8.06,7.65-8.06c4.04,0,6.13,2.53,6.76,4.83l-2.69,1.14c-.38-1.48-1.48-3.22-4.08-3.22-2.4,0-4.61,1.77-4.61,5.31Z"/><path class="e" d="M181.61,351.17c-.85,2.69-3.29,4.8-6.83,4.8-4.08,0-7.65-2.97-7.65-8.12,0-4.77,3.44-8.03,7.27-8.03,4.68,0,7.3,3.22,7.3,7.96,0,.38-.03,.76-.06,.95h-11.44c.06,2.72,2.02,4.61,4.58,4.61s3.7-1.36,4.27-3.07l2.56,.89Zm-3-4.83c-.06-2.18-1.49-3.89-4.17-3.89-2.5,0-4.01,1.93-4.14,3.89h8.31Z"/><path class="e" d="M194.35,355.5v-15.2h2.84v2.02c.95-1.67,2.84-2.46,4.61-2.46,1.9,0,3.73,.92,4.55,2.88,1.2-2.18,3.16-2.88,5.09-2.88,2.65,0,5.25,1.8,5.25,5.78v9.86h-2.94v-9.54c0-1.99-.98-3.48-3.22-3.48-2.09,0-3.51,1.64-3.51,3.82v9.2h-2.97v-9.54c0-1.96-.95-3.48-3.22-3.48-2.12,0-3.54,1.58-3.54,3.86v9.16h-2.94Z"/><path class="e" d="M225.41,346.81l4.11-.6c.92-.13,1.17-.6,1.17-1.14,0-1.49-.98-2.72-3.29-2.72-2.09,0-3.25,1.3-3.44,3.07l-2.84-.66c.32-2.91,2.94-4.93,6.23-4.93,4.55,0,6.32,2.59,6.32,5.56v7.62c0,1.33,.13,2.12,.19,2.5h-2.91c-.06-.38-.16-.95-.16-2.05-.66,1.07-2.18,2.53-4.9,2.53-3.1,0-5.09-2.15-5.09-4.55,0-2.72,1.99-4.23,4.61-4.61Zm5.28,2.18v-.7l-4.65,.7c-1.26,.19-2.21,.92-2.21,2.28,0,1.14,.95,2.21,2.46,2.21,2.43,0,4.39-1.17,4.39-4.49Z"/><path class="e" d="M241.79,355.5h-2.97v-15.2h2.91v2.18c1.11-1.9,2.91-2.62,4.68-2.62,3.63,0,5.44,2.62,5.44,6v9.64h-2.97v-9.13c0-2.12-.88-3.82-3.54-3.82-2.34,0-3.54,1.86-3.54,4.17v8.79Z"/><path class="e" d="M260.56,346.81l4.11-.6c.92-.13,1.17-.6,1.17-1.14,0-1.49-.98-2.72-3.29-2.72-2.09,0-3.25,1.3-3.44,3.07l-2.84-.66c.32-2.91,2.94-4.93,6.23-4.93,4.55,0,6.32,2.59,6.32,5.56v7.62c0,1.33,.13,2.12,.19,2.5h-2.91c-.06-.38-.16-.95-.16-2.05-.66,1.07-2.18,2.53-4.9,2.53-3.1,0-5.09-2.15-5.09-4.55,0-2.72,1.99-4.23,4.61-4.61Zm5.28,2.18v-.7l-4.65,.7c-1.26,.19-2.21,.92-2.21,2.28,0,1.14,.95,2.21,2.46,2.21,2.43,0,4.39-1.17,4.39-4.49Z"/><path class="e" d="M275.83,355.66c.22,2.12,1.83,3.73,4.14,3.73,3.19,0,4.65-1.64,4.65-4.93v-2.18c-.73,1.39-2.37,2.5-4.65,2.5-4.04,0-6.98-3.06-6.98-7.36s2.81-7.39,6.98-7.39c2.34,0,3.92,.88,4.68,2.4v-2.12h2.94v14.06c0,3.86-1.9,7.62-7.62,7.62-3.79,0-6.64-2.4-7.02-5.66l2.88-.66Zm8.91-8.25c0-2.94-1.77-4.87-4.33-4.87s-4.39,1.93-4.39,4.87,1.71,4.87,4.39,4.87,4.33-1.93,4.33-4.87Z"/><path class="e" d="M306.33,351.17c-.85,2.69-3.29,4.8-6.83,4.8-4.08,0-7.65-2.97-7.65-8.12,0-4.77,3.44-8.03,7.27-8.03,4.68,0,7.3,3.22,7.3,7.96,0,.38-.03,.76-.06,.95h-11.44c.06,2.72,2.02,4.61,4.58,4.61s3.7-1.36,4.27-3.07l2.56,.89Zm-3-4.83c-.06-2.18-1.49-3.89-4.17-3.89-2.5,0-4.01,1.93-4.14,3.89h8.31Z"/><path class="e" d="M310.63,355.5v-15.2h2.84v2.02c.95-1.67,2.84-2.46,4.61-2.46,1.9,0,3.73,.92,4.55,2.88,1.2-2.18,3.16-2.88,5.09-2.88,2.65,0,5.25,1.8,5.25,5.78v9.86h-2.94v-9.54c0-1.99-.98-3.48-3.22-3.48-2.09,0-3.51,1.64-3.51,3.82v9.2h-2.97v-9.54c0-1.96-.95-3.48-3.22-3.48-2.12,0-3.54,1.58-3.54,3.86v9.16h-2.94Z"/><path class="e" d="M351.56,351.17c-.85,2.69-3.29,4.8-6.83,4.8-4.08,0-7.65-2.97-7.65-8.12,0-4.77,3.44-8.03,7.27-8.03,4.68,0,7.3,3.22,7.3,7.96,0,.38-.03,.76-.06,.95h-11.44c.06,2.72,2.02,4.61,4.58,4.61s3.7-1.36,4.27-3.07l2.56,.89Zm-3-4.83c-.06-2.18-1.49-3.89-4.17-3.89-2.5,0-4.01,1.93-4.14,3.89h8.31Z"/><path class="e" d="M358.83,355.5h-2.97v-15.2h2.91v2.18c1.11-1.9,2.91-2.62,4.68-2.62,3.63,0,5.44,2.62,5.44,6v9.64h-2.97v-9.13c0-2.12-.88-3.82-3.54-3.82-2.34,0-3.54,1.86-3.54,4.17v8.79Z"/><path class="e" d="M378.01,340.3h3.29v2.69h-3.29v7.9c0,1.39,.57,2.09,2.12,2.09,.38,0,.92-.06,1.17-.13v2.53c-.25,.09-1.01,.28-2.02,.28-2.59,0-4.23-1.58-4.23-4.33v-8.34h-2.91v-2.69h.82c1.64,0,2.34-1.01,2.34-2.34v-2.46h2.72v4.8Z"/><path class="e" d="M19.3,383.84c0,4.65-3.22,8.09-7.77,8.09s-7.77-3.44-7.77-8.09,3.22-8.06,7.77-8.06,7.77,3.44,7.77,8.06Zm-3.03,0c0-3.51-2.21-5.4-4.74-5.4s-4.74,1.9-4.74,5.4,2.21,5.44,4.74,5.44,4.74-1.9,4.74-5.44Z"/><path class="e" d="M27.59,378.94v12.51h-3.07v-12.51h-2.81v-2.69h2.81v-2.56c0-3.38,2.24-5.21,4.99-5.21,1.01,0,1.64,.22,1.77,.32v2.65c-.16-.06-.54-.19-1.3-.19-1.04,0-2.4,.51-2.4,2.59v2.4h3.67v2.69h-3.67Z"/><path class="e" d="M42.57,397.46v-21.2h2.88v2.37c.82-1.52,2.62-2.72,5.09-2.72,4.55,0,6.98,3.51,6.98,7.93s-2.62,8.03-7.08,8.03c-2.34,0-4.11-1.11-4.93-2.46v8.06h-2.94Zm7.43-18.93c-2.72,0-4.52,2.28-4.52,5.31s1.8,5.37,4.52,5.37,4.49-2.24,4.49-5.37-1.71-5.31-4.49-5.31Z"/><path class="e" d="M67.35,391.93c-3.54,0-5.69-2.65-5.69-6.1v-9.58h2.97v9.13c0,2.09,.95,3.92,3.44,3.92s3.6-1.58,3.6-3.89v-9.16h2.97v12.39c0,1.2,.1,2.28,.16,2.81h-2.84c-.06-.35-.13-1.2-.13-1.83-.82,1.58-2.72,2.31-4.49,2.31Z"/><path class="e" d="M79.96,391.45v-22.88h2.94v9.83c.73-1.36,2.5-2.59,5.02-2.59,4.61,0,6.98,3.54,6.98,7.96s-2.56,8.09-7.08,8.09c-2.24,0-3.98-.98-4.93-2.62v2.21h-2.94Zm7.43-13.02c-2.62,0-4.52,2.05-4.52,5.34s1.9,5.44,4.52,5.44,4.49-2.15,4.49-5.44-1.74-5.34-4.49-5.34Z"/><path class="e" d="M99.21,391.45v-22.88h2.97v22.88h-2.97Z"/><path class="e" d="M108.91,368.35c1.2,0,2.15,.95,2.15,2.15s-.95,2.12-2.15,2.12-2.12-.95-2.12-2.12,.95-2.15,2.12-2.15Zm-1.45,23.1v-15.2h2.94v15.2h-2.94Z"/><path class="e" d="M117.7,383.84c0,3.48,2.18,5.34,4.65,5.34,2.84,0,3.89-1.93,4.23-3.13l2.62,1.14c-.73,2.18-2.91,4.74-6.86,4.74-4.42,0-7.68-3.48-7.68-8.09s3.32-8.06,7.65-8.06c4.04,0,6.13,2.53,6.76,4.83l-2.69,1.14c-.38-1.48-1.48-3.22-4.08-3.22-2.4,0-4.61,1.77-4.61,5.31Z"/><path class="e" d="M143.08,368.35c1.2,0,2.15,.95,2.15,2.15s-.95,2.12-2.15,2.12-2.12-.95-2.12-2.12,.95-2.15,2.12-2.15Zm-1.45,23.1v-15.2h2.94v15.2h-2.94Z"/><path class="e" d="M152.81,391.45h-2.97v-15.2h2.91v2.18c1.11-1.9,2.91-2.62,4.68-2.62,3.63,0,5.44,2.62,5.44,6v9.64h-2.97v-9.13c0-2.12-.88-3.82-3.54-3.82-2.34,0-3.54,1.86-3.54,4.17v8.79Z"/><path class="e" d="M172.13,378.94v12.51h-3.07v-12.51h-2.81v-2.69h2.81v-2.56c0-3.38,2.24-5.21,4.99-5.21,1.01,0,1.64,.22,1.77,.32v2.65c-.16-.06-.54-.19-1.3-.19-1.04,0-2.4,.51-2.4,2.59v2.4h3.67v2.69h-3.67Z"/><path class="e" d="M187.8,379.26c-.44-.06-.89-.1-1.3-.1-2.5,0-4.17,1.33-4.17,4.68v7.62h-2.97v-15.2h2.91v2.65c1.11-2.34,3-2.91,4.55-2.91,.41,0,.82,.06,.98,.09v3.16Z"/><path class="e" d="M194.91,382.76l4.11-.6c.92-.13,1.17-.6,1.17-1.14,0-1.49-.98-2.72-3.29-2.72-2.09,0-3.25,1.3-3.44,3.07l-2.84-.66c.32-2.91,2.94-4.93,6.23-4.93,4.55,0,6.32,2.59,6.32,5.56v7.62c0,1.33,.13,2.12,.19,2.5h-2.91c-.06-.38-.16-.95-.16-2.05-.66,1.07-2.18,2.53-4.9,2.53-3.1,0-5.09-2.15-5.09-4.55,0-2.72,1.99-4.23,4.61-4.61Zm5.28,2.18v-.7l-4.65,.7c-1.26,.19-2.21,.92-2.21,2.28,0,1.14,.95,2.21,2.46,2.21,2.43,0,4.39-1.17,4.39-4.49Z"/><path class="e" d="M209.8,386.56c.19,1.58,1.39,2.84,3.54,2.84,1.67,0,2.59-.95,2.59-2.02,0-.95-.7-1.67-1.96-1.96l-2.59-.57c-2.37-.51-3.79-2.12-3.79-4.27,0-2.59,2.43-4.8,5.4-4.8,4.17,0,5.47,2.72,5.78,4.08l-2.62,.98c-.13-.79-.76-2.53-3.16-2.53-1.52,0-2.53,.98-2.53,2.02,0,.92,.57,1.58,1.74,1.83l2.46,.54c2.75,.6,4.2,2.28,4.2,4.52s-1.8,4.71-5.56,4.71c-4.17,0-5.94-2.69-6.19-4.42l2.69-.95Z"/><path class="e" d="M227.31,376.25h3.29v2.69h-3.29v7.9c0,1.39,.57,2.09,2.12,2.09,.38,0,.92-.06,1.17-.13v2.53c-.25,.09-1.01,.28-2.02,.28-2.59,0-4.23-1.58-4.23-4.33v-8.34h-2.91v-2.69h.82c1.64,0,2.34-1.01,2.34-2.34v-2.46h2.72v4.8Z"/><path class="e" d="M243.05,379.26c-.44-.06-.89-.1-1.3-.1-2.5,0-4.17,1.33-4.17,4.68v7.62h-2.97v-15.2h2.91v2.65c1.11-2.34,3-2.91,4.55-2.91,.41,0,.82,.06,.98,.09v3.16Z"/><path class="e" d="M252.09,391.93c-3.54,0-5.69-2.65-5.69-6.1v-9.58h2.97v9.13c0,2.09,.95,3.92,3.44,3.92s3.6-1.58,3.6-3.89v-9.16h2.97v12.39c0,1.2,.1,2.28,.16,2.81h-2.84c-.06-.35-.13-1.2-.13-1.83-.82,1.58-2.72,2.31-4.49,2.31Z"/><path class="e" d="M266.72,383.84c0,3.48,2.18,5.34,4.65,5.34,2.84,0,3.89-1.93,4.23-3.13l2.62,1.14c-.73,2.18-2.91,4.74-6.86,4.74-4.42,0-7.68-3.48-7.68-8.09s3.32-8.06,7.65-8.06c4.04,0,6.13,2.53,6.76,4.83l-2.69,1.14c-.38-1.48-1.48-3.22-4.08-3.22-2.4,0-4.61,1.77-4.61,5.31Z"/><path class="e" d="M286.35,376.25h3.29v2.69h-3.29v7.9c0,1.39,.57,2.09,2.12,2.09,.38,0,.92-.06,1.17-.13v2.53c-.25,.09-1.01,.28-2.02,.28-2.59,0-4.23-1.58-4.23-4.33v-8.34h-2.91v-2.69h.82c1.64,0,2.34-1.01,2.34-2.34v-2.46h2.72v4.8Z"/><path class="e" d="M299.18,391.93c-3.54,0-5.69-2.65-5.69-6.1v-9.58h2.97v9.13c0,2.09,.95,3.92,3.44,3.92s3.6-1.58,3.6-3.89v-9.16h2.97v12.39c0,1.2,.1,2.28,.16,2.81h-2.84c-.06-.35-.13-1.2-.13-1.83-.82,1.58-2.72,2.31-4.49,2.31Z"/><path class="e" d="M320.23,379.26c-.44-.06-.89-.1-1.3-.1-2.5,0-4.17,1.33-4.17,4.68v7.62h-2.97v-15.2h2.91v2.65c1.11-2.34,3-2.91,4.55-2.91,.41,0,.82,.06,.98,.09v3.16Z"/><path class="e" d="M336.92,387.13c-.85,2.69-3.29,4.8-6.83,4.8-4.08,0-7.65-2.97-7.65-8.12,0-4.77,3.44-8.03,7.27-8.03,4.68,0,7.3,3.22,7.3,7.96,0,.38-.03,.76-.06,.95h-11.44c.06,2.72,2.02,4.61,4.58,4.61s3.7-1.36,4.27-3.07l2.56,.89Zm-3-4.83c-.06-2.18-1.49-3.89-4.17-3.89-2.5,0-4.01,1.93-4.14,3.89h8.31Z"/><path class="e" d="M342.71,386.56c.19,1.58,1.39,2.84,3.54,2.84,1.67,0,2.59-.95,2.59-2.02,0-.95-.7-1.67-1.96-1.96l-2.59-.57c-2.37-.51-3.79-2.12-3.79-4.27,0-2.59,2.43-4.8,5.4-4.8,4.17,0,5.47,2.72,5.78,4.08l-2.62,.98c-.13-.79-.76-2.53-3.16-2.53-1.52,0-2.53,.98-2.53,2.02,0,.92,.57,1.58,1.74,1.83l2.46,.54c2.75,.6,4.2,2.28,4.2,4.52s-1.8,4.71-5.56,4.71c-4.17,0-5.94-2.69-6.19-4.42l2.69-.95Z"/></g><g><polygon points="0 235.27 28.07 235.27 28.07 307.11 48.41 307.11 48.41 235.27 76.61 235.27 76.61 215.82 0 215.82 0 235.27"/><polygon points="109.3 270.29 143.29 270.29 143.29 252.39 109.3 252.39 109.3 235.01 146.77 235.01 146.77 215.82 88.96 215.82 88.96 307.11 146.9 307.11 146.9 287.8 109.3 287.8 109.3 270.29"/><polygon class="e" points="244.49 215.82 217.71 215.82 164.02 277.6 164.02 305.24 244.49 215.82"/><polygon points="198.15 276.28 219.25 307.11 244.62 307.11 212.44 260.41 198.15 276.28"/><polygon points="184.36 215.82 164.02 215.82 164.02 268.45 184.36 245.05 184.36 215.82"/><path d="M291.99,252.78l-12.23-2.32c-6.31-1.16-9.01-4.38-9.01-8.75,0-5.02,4.89-9.79,12.49-9.79,11.07,0,14.55,7.21,15.19,11.46l18.28-5.15c-1.93-10.69-10.56-24.33-33.35-24.33-17.51,0-32.7,12.1-32.7,29.36,0,13.52,9.4,23.82,24.85,26.78l12.49,2.32c6.05,1.16,9.79,4.51,9.79,9.14,0,5.67-4.89,9.53-12.87,9.53-12.49,0-18.15-7.34-18.93-15.71l-18.67,4.51c1.29,12.87,12.1,29.23,37.34,29.23,21.76,0,33.73-14.55,33.73-28.84,0-13-9.01-24.2-26.39-27.42Z"/><rect x="332.28" y="215.82" width="20.6" height="91.28"/></g><g><circle class="e" cx="176.44" cy="80.85" r="80.85"/><polygon class="d" points="216.61 35.21 189.83 35.21 136.14 96.98 136.14 124.62 216.61 35.21"/><polygon class="d" points="170.27 95.67 191.38 126.49 216.74 126.49 184.56 79.79 170.27 95.67"/><polygon class="d" points="156.48 35.21 136.14 35.21 136.14 87.84 156.48 64.43 156.48 35.21"/></g></g></g></g></svg>