<?xml version="1.0" encoding="UTF-8"?><svg xmlns="http://www.w3.org/2000/svg" viewBox="0 0 601.4 190"><defs><style>.d{fill:#fff;}.e{fill:#968b83;}</style></defs><g id="a"/><g id="b"><g id="c"><g><g><path class="e" d="M246.37,137.89c0,4.56-3.16,7.94-7.63,7.94s-7.63-3.38-7.63-7.94,3.16-7.91,7.63-7.91,7.63,3.38,7.63,7.91Zm-2.98,0c0-3.44-2.17-5.3-4.65-5.3s-4.65,1.86-4.65,5.3,2.17,5.33,4.65,5.33,4.65-1.86,4.65-5.33Z"/><path class="e" d="M250.55,151.25v-20.8h2.82v2.33c.81-1.49,2.57-2.67,4.99-2.67,4.46,0,6.85,3.44,6.85,7.78s-2.57,7.88-6.95,7.88c-2.29,0-4.03-1.08-4.84-2.42v7.91h-2.88Zm7.29-18.57c-2.67,0-4.43,2.23-4.43,5.21s1.77,5.27,4.43,5.27,4.4-2.2,4.4-5.27-1.67-5.21-4.4-5.21Z"/><path class="e" d="M282.63,141.11c-.84,2.64-3.22,4.71-6.7,4.71-4,0-7.5-2.92-7.5-7.97,0-4.68,3.38-7.88,7.13-7.88,4.59,0,7.16,3.16,7.16,7.81,0,.37-.03,.74-.06,.93h-11.22c.06,2.67,1.98,4.53,4.5,4.53s3.63-1.33,4.19-3.01l2.51,.87Zm-2.95-4.74c-.06-2.14-1.46-3.81-4.09-3.81-2.45,0-3.94,1.89-4.06,3.81h8.16Z"/><path class="e" d="M289.76,145.36h-2.92v-14.91h2.85v2.14c1.09-1.86,2.85-2.57,4.59-2.57,3.57,0,5.33,2.57,5.33,5.89v9.46h-2.91v-8.96c0-2.08-.87-3.75-3.47-3.75-2.29,0-3.47,1.83-3.47,4.09v8.62Z"/><path class="e" d="M314.38,140.55c.19,1.55,1.36,2.79,3.47,2.79,1.64,0,2.54-.93,2.54-1.98,0-.93-.68-1.64-1.92-1.92l-2.54-.56c-2.33-.5-3.72-2.08-3.72-4.19,0-2.54,2.39-4.71,5.3-4.71,4.09,0,5.36,2.67,5.67,4l-2.57,.96c-.12-.77-.74-2.48-3.1-2.48-1.49,0-2.48,.96-2.48,1.98,0,.9,.56,1.55,1.71,1.8l2.42,.53c2.7,.59,4.12,2.23,4.12,4.43s-1.77,4.62-5.46,4.62c-4.09,0-5.83-2.64-6.08-4.34l2.64-.93Z"/><path class="e" d="M341.75,137.89c0,4.56-3.16,7.94-7.63,7.94s-7.63-3.38-7.63-7.94,3.16-7.91,7.63-7.91,7.63,3.38,7.63,7.91Zm-2.98,0c0-3.44-2.17-5.3-4.65-5.3s-4.65,1.86-4.65,5.3,2.17,5.33,4.65,5.33,4.65-1.86,4.65-5.33Z"/><path class="e" d="M351.36,145.82c-3.47,0-5.58-2.6-5.58-5.98v-9.39h2.91v8.96c0,2.05,.93,3.84,3.38,3.84s3.53-1.55,3.53-3.81v-8.99h2.92v12.15c0,1.18,.09,2.23,.16,2.76h-2.79c-.06-.34-.12-1.18-.12-1.8-.81,1.55-2.67,2.26-4.4,2.26Z"/><path class="e" d="M372.01,133.39c-.43-.06-.87-.09-1.27-.09-2.45,0-4.09,1.3-4.09,4.59v7.47h-2.92v-14.91h2.85v2.6c1.09-2.29,2.95-2.85,4.46-2.85,.4,0,.81,.06,.96,.09v3.1Z"/><path class="e" d="M377.15,137.89c0,3.41,2.14,5.24,4.56,5.24,2.79,0,3.81-1.89,4.16-3.07l2.57,1.12c-.71,2.14-2.85,4.65-6.73,4.65-4.34,0-7.53-3.41-7.53-7.94s3.26-7.91,7.5-7.91c3.97,0,6.02,2.48,6.64,4.74l-2.64,1.12c-.37-1.46-1.46-3.16-4-3.16-2.36,0-4.53,1.74-4.53,5.21Z"/><path class="e" d="M405.55,141.11c-.84,2.64-3.22,4.71-6.7,4.71-4,0-7.5-2.92-7.5-7.97,0-4.68,3.38-7.88,7.13-7.88,4.59,0,7.16,3.16,7.16,7.81,0,.37-.03,.74-.06,.93h-11.22c.06,2.67,1.98,4.53,4.5,4.53s3.63-1.33,4.19-3.01l2.51,.87Zm-2.95-4.74c-.06-2.14-1.46-3.81-4.09-3.81-2.45,0-3.94,1.89-4.06,3.81h8.16Z"/><path class="e" d="M418.04,145.36v-14.91h2.79v1.98c.93-1.64,2.79-2.42,4.53-2.42,1.86,0,3.66,.9,4.46,2.82,1.18-2.14,3.1-2.82,4.99-2.82,2.6,0,5.15,1.77,5.15,5.67v9.67h-2.88v-9.36c0-1.95-.96-3.41-3.16-3.41-2.05,0-3.44,1.61-3.44,3.75v9.02h-2.91v-9.36c0-1.92-.93-3.41-3.16-3.41-2.08,0-3.47,1.55-3.47,3.78v8.99h-2.88Z"/><path class="e" d="M448.51,136.83l4.03-.59c.9-.12,1.15-.59,1.15-1.12,0-1.46-.96-2.67-3.22-2.67-2.05,0-3.19,1.27-3.38,3.01l-2.79-.65c.31-2.85,2.88-4.84,6.11-4.84,4.46,0,6.2,2.54,6.2,5.46v7.47c0,1.3,.12,2.08,.19,2.45h-2.85c-.06-.37-.16-.93-.16-2.02-.65,1.05-2.14,2.48-4.81,2.48-3.04,0-4.99-2.11-4.99-4.46,0-2.67,1.95-4.16,4.53-4.53Zm5.18,2.14v-.68l-4.56,.68c-1.24,.19-2.17,.9-2.17,2.23,0,1.12,.93,2.17,2.42,2.17,2.39,0,4.31-1.15,4.31-4.4Z"/><path class="e" d="M464.57,145.36h-2.92v-14.91h2.85v2.14c1.09-1.86,2.85-2.57,4.59-2.57,3.57,0,5.33,2.57,5.33,5.89v9.46h-2.91v-8.96c0-2.08-.87-3.75-3.47-3.75-2.29,0-3.47,1.83-3.47,4.09v8.62Z"/><path class="e" d="M482.98,136.83l4.03-.59c.9-.12,1.15-.59,1.15-1.12,0-1.46-.96-2.67-3.22-2.67-2.05,0-3.19,1.27-3.38,3.01l-2.79-.65c.31-2.85,2.88-4.84,6.11-4.84,4.46,0,6.2,2.54,6.2,5.46v7.47c0,1.3,.12,2.08,.19,2.45h-2.85c-.06-.37-.16-.93-.16-2.02-.65,1.05-2.14,2.48-4.81,2.48-3.04,0-4.99-2.11-4.99-4.46,0-2.67,1.95-4.16,4.53-4.53Zm5.18,2.14v-.68l-4.56,.68c-1.24,.19-2.17,.9-2.17,2.23,0,1.12,.93,2.17,2.42,2.17,2.39,0,4.31-1.15,4.31-4.4Z"/><path class="e" d="M497.96,145.51c.22,2.08,1.8,3.66,4.06,3.66,3.13,0,4.56-1.61,4.56-4.84v-2.14c-.71,1.36-2.33,2.45-4.56,2.45-3.97,0-6.85-3.01-6.85-7.22s2.76-7.26,6.85-7.26c2.29,0,3.84,.87,4.59,2.36v-2.08h2.88v13.8c0,3.78-1.86,7.47-7.47,7.47-3.72,0-6.51-2.36-6.88-5.55l2.82-.65Zm8.74-8.09c0-2.88-1.74-4.77-4.25-4.77s-4.31,1.89-4.31,4.77,1.67,4.77,4.31,4.77,4.25-1.89,4.25-4.77Z"/><path class="e" d="M527.87,141.11c-.84,2.64-3.22,4.71-6.7,4.71-4,0-7.5-2.92-7.5-7.97,0-4.68,3.38-7.88,7.13-7.88,4.59,0,7.16,3.16,7.16,7.81,0,.37-.03,.74-.06,.93h-11.22c.06,2.67,1.98,4.53,4.5,4.53s3.63-1.33,4.19-3.01l2.51,.87Zm-2.95-4.74c-.06-2.14-1.46-3.81-4.09-3.81-2.45,0-3.94,1.89-4.06,3.81h8.15Z"/><path class="e" d="M532.09,145.36v-14.91h2.79v1.98c.93-1.64,2.79-2.42,4.53-2.42,1.86,0,3.66,.9,4.46,2.82,1.18-2.14,3.1-2.82,4.99-2.82,2.6,0,5.15,1.77,5.15,5.67v9.67h-2.88v-9.36c0-1.95-.96-3.41-3.16-3.41-2.05,0-3.44,1.61-3.44,3.75v9.02h-2.92v-9.36c0-1.92-.93-3.41-3.16-3.41-2.08,0-3.47,1.55-3.47,3.78v8.99h-2.88Z"/><path class="e" d="M572.23,141.11c-.84,2.64-3.22,4.71-6.7,4.71-4,0-7.5-2.92-7.5-7.97,0-4.68,3.38-7.88,7.13-7.88,4.59,0,7.16,3.16,7.16,7.81,0,.37-.03,.74-.06,.93h-11.22c.06,2.67,1.98,4.53,4.5,4.53s3.63-1.33,4.19-3.01l2.51,.87Zm-2.95-4.74c-.06-2.14-1.46-3.81-4.09-3.81-2.45,0-3.94,1.89-4.06,3.81h8.16Z"/><path class="e" d="M579.36,145.36h-2.92v-14.91h2.85v2.14c1.09-1.86,2.85-2.57,4.59-2.57,3.57,0,5.33,2.57,5.33,5.89v9.46h-2.91v-8.96c0-2.08-.87-3.75-3.47-3.75-2.29,0-3.47,1.83-3.47,4.09v8.62Z"/><path class="e" d="M598.18,130.45h3.22v2.64h-3.22v7.75c0,1.36,.56,2.05,2.08,2.05,.37,0,.9-.06,1.15-.12v2.48c-.25,.09-.99,.28-1.98,.28-2.54,0-4.15-1.55-4.15-4.25v-8.19h-2.85v-2.64h.81c1.61,0,2.29-.99,2.29-2.29v-2.42h2.67v4.71Z"/><path class="e" d="M246.37,173.84c0,4.56-3.16,7.94-7.63,7.94s-7.63-3.38-7.63-7.94,3.16-7.91,7.63-7.91,7.63,3.38,7.63,7.91Zm-2.98,0c0-3.44-2.17-5.3-4.65-5.3s-4.65,1.86-4.65,5.3,2.17,5.33,4.65,5.33,4.65-1.86,4.65-5.33Z"/><path class="e" d="M254.49,169.03v12.28h-3.01v-12.28h-2.76v-2.64h2.76v-2.51c0-3.32,2.2-5.12,4.9-5.12,.99,0,1.61,.22,1.74,.31v2.6c-.16-.06-.53-.19-1.27-.19-1.02,0-2.36,.5-2.36,2.54v2.36h3.6v2.64h-3.6Z"/><path class="e" d="M269.18,187.2v-20.81h2.82v2.33c.81-1.49,2.57-2.67,4.99-2.67,4.46,0,6.85,3.44,6.85,7.78s-2.57,7.88-6.95,7.88c-2.29,0-4.03-1.09-4.84-2.42v7.91h-2.88Zm7.29-18.57c-2.67,0-4.43,2.23-4.43,5.21s1.77,5.27,4.43,5.27,4.4-2.2,4.4-5.27-1.67-5.21-4.4-5.21Z"/><path class="e" d="M293.48,181.78c-3.47,0-5.58-2.6-5.58-5.98v-9.4h2.91v8.96c0,2.05,.93,3.84,3.38,3.84s3.53-1.55,3.53-3.81v-8.99h2.92v12.15c0,1.18,.09,2.23,.16,2.76h-2.79c-.06-.34-.12-1.18-.12-1.8-.81,1.55-2.67,2.26-4.4,2.26Z"/><path class="e" d="M305.85,181.31v-22.45h2.88v9.64c.71-1.33,2.45-2.54,4.93-2.54,4.53,0,6.85,3.47,6.85,7.81s-2.51,7.94-6.95,7.94c-2.2,0-3.91-.96-4.84-2.57v2.17h-2.88Zm7.29-12.77c-2.57,0-4.43,2.02-4.43,5.24s1.86,5.33,4.43,5.33,4.4-2.11,4.4-5.33-1.71-5.24-4.4-5.24Z"/><path class="e" d="M324.73,181.31v-22.45h2.91v22.45h-2.91Z"/><path class="e" d="M334.25,158.65c1.18,0,2.11,.93,2.11,2.11s-.93,2.08-2.11,2.08-2.08-.93-2.08-2.08,.93-2.11,2.08-2.11Zm-1.43,22.67v-14.91h2.88v14.91h-2.88Z"/><path class="e" d="M342.87,173.84c0,3.41,2.14,5.24,4.56,5.24,2.79,0,3.81-1.89,4.16-3.07l2.57,1.12c-.71,2.14-2.85,4.65-6.73,4.65-4.34,0-7.53-3.41-7.53-7.94s3.26-7.91,7.5-7.91c3.97,0,6.02,2.48,6.64,4.74l-2.64,1.12c-.37-1.46-1.46-3.16-4-3.16-2.36,0-4.53,1.74-4.53,5.21Z"/><path class="e" d="M367.76,158.65c1.18,0,2.11,.93,2.11,2.11s-.93,2.08-2.11,2.08-2.08-.93-2.08-2.08,.93-2.11,2.08-2.11Zm-1.43,22.67v-14.91h2.88v14.91h-2.88Z"/><path class="e" d="M377.31,181.31h-2.92v-14.91h2.85v2.14c1.09-1.86,2.85-2.57,4.59-2.57,3.57,0,5.33,2.57,5.33,5.89v9.46h-2.91v-8.96c0-2.08-.87-3.75-3.47-3.75-2.29,0-3.47,1.83-3.47,4.09v8.62Z"/><path class="e" d="M396.25,169.03v12.28h-3.01v-12.28h-2.76v-2.64h2.76v-2.51c0-3.32,2.2-5.12,4.9-5.12,.99,0,1.61,.22,1.74,.31v2.6c-.15-.06-.53-.19-1.27-.19-1.02,0-2.36,.5-2.36,2.54v2.36h3.6v2.64h-3.6Z"/><path class="e" d="M411.62,169.34c-.43-.06-.87-.09-1.27-.09-2.45,0-4.09,1.3-4.09,4.59v7.47h-2.91v-14.91h2.85v2.6c1.08-2.29,2.95-2.85,4.46-2.85,.4,0,.81,.06,.96,.09v3.1Z"/><path class="e" d="M418.6,172.79l4.03-.59c.9-.12,1.15-.59,1.15-1.12,0-1.46-.96-2.67-3.22-2.67-2.05,0-3.19,1.27-3.38,3.01l-2.79-.65c.31-2.85,2.88-4.84,6.11-4.84,4.46,0,6.2,2.54,6.2,5.46v7.47c0,1.3,.12,2.08,.19,2.45h-2.85c-.06-.37-.16-.93-.16-2.02-.65,1.05-2.14,2.48-4.81,2.48-3.04,0-4.99-2.11-4.99-4.46,0-2.67,1.95-4.15,4.53-4.53Zm5.18,2.14v-.68l-4.56,.68c-1.24,.19-2.17,.9-2.17,2.23,0,1.12,.93,2.17,2.42,2.17,2.39,0,4.31-1.15,4.31-4.4Z"/><path class="e" d="M433.2,176.51c.19,1.55,1.36,2.79,3.47,2.79,1.64,0,2.54-.93,2.54-1.98,0-.93-.68-1.64-1.92-1.92l-2.54-.56c-2.33-.5-3.72-2.08-3.72-4.19,0-2.54,2.39-4.71,5.3-4.71,4.09,0,5.36,2.67,5.67,4l-2.57,.96c-.12-.78-.74-2.48-3.1-2.48-1.49,0-2.48,.96-2.48,1.98,0,.9,.56,1.55,1.71,1.8l2.42,.53c2.7,.59,4.12,2.23,4.12,4.43s-1.77,4.62-5.46,4.62c-4.09,0-5.83-2.64-6.08-4.34l2.64-.93Z"/><path class="e" d="M450.37,166.4h3.22v2.64h-3.22v7.75c0,1.36,.56,2.05,2.08,2.05,.37,0,.9-.06,1.15-.12v2.48c-.25,.09-.99,.28-1.98,.28-2.54,0-4.16-1.55-4.16-4.25v-8.19h-2.85v-2.64h.81c1.61,0,2.29-.99,2.29-2.29v-2.42h2.67v4.71Z"/><path class="e" d="M465.81,169.34c-.43-.06-.87-.09-1.27-.09-2.45,0-4.09,1.3-4.09,4.59v7.47h-2.92v-14.91h2.85v2.6c1.09-2.29,2.95-2.85,4.46-2.85,.4,0,.81,.06,.96,.09v3.1Z"/><path class="e" d="M474.68,181.78c-3.47,0-5.58-2.6-5.58-5.98v-9.4h2.91v8.96c0,2.05,.93,3.84,3.38,3.84s3.53-1.55,3.53-3.81v-8.99h2.92v12.15c0,1.18,.09,2.23,.16,2.76h-2.79c-.06-.34-.12-1.18-.12-1.8-.81,1.55-2.67,2.26-4.4,2.26Z"/><path class="e" d="M489.03,173.84c0,3.41,2.14,5.24,4.56,5.24,2.79,0,3.81-1.89,4.16-3.07l2.57,1.12c-.71,2.14-2.85,4.65-6.73,4.65-4.34,0-7.53-3.41-7.53-7.94s3.26-7.91,7.5-7.91c3.97,0,6.02,2.48,6.64,4.74l-2.64,1.12c-.37-1.46-1.46-3.16-4-3.16-2.36,0-4.53,1.74-4.53,5.21Z"/><path class="e" d="M508.28,166.4h3.22v2.64h-3.22v7.75c0,1.36,.56,2.05,2.08,2.05,.37,0,.9-.06,1.15-.12v2.48c-.25,.09-.99,.28-1.98,.28-2.54,0-4.15-1.55-4.15-4.25v-8.19h-2.85v-2.64h.81c1.61,0,2.29-.99,2.29-2.29v-2.42h2.67v4.71Z"/><path class="e" d="M520.86,181.78c-3.47,0-5.58-2.6-5.58-5.98v-9.4h2.92v8.96c0,2.05,.93,3.84,3.38,3.84s3.54-1.55,3.54-3.81v-8.99h2.91v12.15c0,1.18,.09,2.23,.16,2.76h-2.79c-.06-.34-.12-1.18-.12-1.8-.81,1.55-2.67,2.26-4.4,2.26Z"/><path class="e" d="M541.51,169.34c-.43-.06-.87-.09-1.27-.09-2.45,0-4.09,1.3-4.09,4.59v7.47h-2.92v-14.91h2.85v2.6c1.09-2.29,2.95-2.85,4.46-2.85,.4,0,.81,.06,.96,.09v3.1Z"/><path class="e" d="M557.88,177.06c-.84,2.64-3.22,4.71-6.7,4.71-4,0-7.5-2.91-7.5-7.97,0-4.68,3.38-7.88,7.13-7.88,4.59,0,7.16,3.16,7.16,7.81,0,.37-.03,.74-.06,.93h-11.22c.06,2.67,1.98,4.53,4.5,4.53s3.63-1.33,4.19-3.01l2.51,.87Zm-2.95-4.74c-.06-2.14-1.46-3.81-4.09-3.81-2.45,0-3.94,1.89-4.06,3.81h8.15Z"/><path class="e" d="M563.55,176.51c.19,1.55,1.36,2.79,3.47,2.79,1.64,0,2.54-.93,2.54-1.98,0-.93-.68-1.64-1.92-1.92l-2.54-.56c-2.33-.5-3.72-2.08-3.72-4.19,0-2.54,2.39-4.71,5.3-4.71,4.09,0,5.36,2.67,5.67,4l-2.57,.96c-.12-.78-.74-2.48-3.1-2.48-1.49,0-2.48,.96-2.48,1.98,0,.9,.56,1.55,1.71,1.8l2.42,.53c2.7,.59,4.12,2.23,4.12,4.43s-1.77,4.62-5.46,4.62c-4.09,0-5.83-2.64-6.08-4.34l2.64-.93Z"/></g><g><polygon points="230.51 29.99 258.58 29.99 258.58 101.83 278.92 101.83 278.92 29.99 307.11 29.99 307.11 10.55 230.51 10.55 230.51 29.99"/><polygon points="339.81 65.01 373.8 65.01 373.8 47.11 339.81 47.11 339.81 29.73 377.28 29.73 377.28 10.55 319.47 10.55 319.47 101.83 377.41 101.83 377.41 82.52 339.81 82.52 339.81 65.01"/><polygon class="e" points="474.99 10.55 448.21 10.55 394.52 72.32 394.52 99.97 474.99 10.55"/><polygon points="428.66 71.01 449.76 101.83 475.12 101.83 442.94 55.13 428.66 71.01"/><polygon points="414.87 10.55 394.52 10.55 394.52 63.18 414.87 39.77 414.87 10.55"/><path d="M522.5,47.5l-12.23-2.32c-6.31-1.16-9.01-4.38-9.01-8.75,0-5.02,4.89-9.79,12.49-9.79,11.07,0,14.55,7.21,15.19,11.46l18.28-5.15c-1.93-10.69-10.56-24.33-33.35-24.33-17.51,0-32.7,12.1-32.7,29.36,0,13.52,9.4,23.82,24.85,26.78l12.49,2.32c6.05,1.16,9.79,4.51,9.79,9.14,0,5.67-4.89,9.53-12.87,9.53-12.49,0-18.15-7.34-18.93-15.71l-18.67,4.51c1.29,12.87,12.1,29.23,37.34,29.23,21.76,0,33.73-14.55,33.73-28.84,0-13-9.01-24.2-26.39-27.42Z"/><rect x="562.79" y="10.55" width="20.6" height="91.28"/></g><g><circle class="e" cx="95" cy="95" r="95"/><polygon class="d" points="142.2 41.37 110.73 41.37 47.65 113.96 47.65 146.44 142.2 41.37"/><polygon class="d" points="87.75 112.41 112.55 148.63 142.35 148.63 104.54 93.76 87.75 112.41"/><polygon class="d" points="71.55 41.37 47.65 41.37 47.65 103.21 71.55 75.71 71.55 41.37"/></g></g></g></g></svg>