<svg id="Calque_1" data-name="Calque 1" xmlns="http://www.w3.org/2000/svg" viewBox="0 0 500 300"><defs><style>.cls-1{fill:#968b83;}</style></defs><path class="cls-1" d="M81.37,177.44a11.09,11.09,0,1,1-10.68,11.07A10.6,10.6,0,0,1,81.37,177.44Zm0,19.47c4,0,7.68-2.85,7.68-8.4s-3.72-8.37-7.68-8.37-7.68,2.82-7.68,8.37S77.41,196.91,81.37,196.91Z"/><path class="cls-1" d="M95.59,204.86V184.73h2.73V187a5.32,5.32,0,0,1,4.83-2.58c4.32,0,6.63,3.33,6.63,7.53s-2.49,7.62-6.72,7.62a5.37,5.37,0,0,1-4.68-2.34v7.65Zm7-18c-2.58,0-4.29,2.16-4.29,5s1.71,5.1,4.29,5.1,4.26-2.13,4.26-5.1S105.28,186.89,102.64,186.89Z"/><path class="cls-1" d="M126.19,195.05a6.54,6.54,0,0,1-6.48,4.56c-3.87,0-7.26-2.82-7.26-7.71,0-4.53,3.27-7.62,6.9-7.62,4.44,0,6.93,3.06,6.93,7.56a6.34,6.34,0,0,1-.06.9H115.36a4.28,4.28,0,0,0,4.35,4.38,3.93,3.93,0,0,0,4.05-2.91Zm-2.85-4.59a3.64,3.64,0,0,0-4-3.69,3.88,3.88,0,0,0-3.93,3.69Z"/><path class="cls-1" d="M132.64,199.16h-2.82V184.73h2.76v2.07a4.94,4.94,0,0,1,4.44-2.49c3.45,0,5.16,2.49,5.16,5.7v9.15h-2.82v-8.67c0-2-.84-3.63-3.36-3.63-2.22,0-3.36,1.77-3.36,4Z"/><path class="cls-1" d="M146.32,191.78v-2.46h8.13v2.46Z"/><path class="cls-1" d="M169.75,183.65a4.32,4.32,0,0,0-4.5-3.63c-2.4,0-4.11,1.56-4.11,3.54a3.08,3.08,0,0,0,2.73,3.09l3.18.69c3.54.78,5.52,3,5.52,6,0,3.3-2.82,6.3-7.35,6.3-5.13,0-7.56-3.3-7.95-6.33l2.82-.9a4.83,4.83,0,0,0,5.1,4.56c2.94,0,4.38-1.53,4.38-3.39,0-1.53-1-2.85-3.18-3.3l-3-.66c-3-.66-5.19-2.64-5.19-5.82,0-3.33,3.09-6.33,7-6.33,4.8,0,6.72,3,7.2,5.28Z"/><path class="cls-1" d="M190.09,191.93c0,4.41-3.06,7.68-7.38,7.68s-7.38-3.27-7.38-7.68a7.38,7.38,0,1,1,14.76,0Zm-2.88,0c0-3.33-2.1-5.13-4.5-5.13s-4.5,1.8-4.5,5.13,2.1,5.16,4.5,5.16S187.21,195.29,187.21,191.93Z"/><path class="cls-1" d="M198.94,199.61c-3.36,0-5.4-2.52-5.4-5.79v-9.09h2.82v8.67c0,2,.9,3.72,3.27,3.72s3.42-1.5,3.42-3.69v-8.7h2.82v11.76a24.28,24.28,0,0,0,.15,2.67h-2.7a12.77,12.77,0,0,1-.12-1.74A4.71,4.71,0,0,1,198.94,199.61Z"/><path class="cls-1" d="M218.47,187.58a8.8,8.8,0,0,0-1.23-.09c-2.37,0-4,1.26-4,4.44v7.23h-2.82V184.73h2.76v2.52a4.52,4.52,0,0,1,4.32-2.76,5.31,5.31,0,0,1,.93.09Z"/><path class="cls-1" d="M223,191.93c0,3.3,2.07,5.07,4.41,5.07a3.92,3.92,0,0,0,4-3l2.49,1.08a6.63,6.63,0,0,1-6.51,4.5c-4.2,0-7.29-3.3-7.29-7.68s3.15-7.65,7.26-7.65a6.28,6.28,0,0,1,6.42,4.59L231.25,190a3.78,3.78,0,0,0-3.87-3.06C225.1,186.89,223,188.57,223,191.93Z"/><path class="cls-1" d="M250,195.05a6.54,6.54,0,0,1-6.48,4.56c-3.87,0-7.26-2.82-7.26-7.71,0-4.53,3.27-7.62,6.9-7.62,4.44,0,6.93,3.06,6.93,7.56a6.34,6.34,0,0,1-.06.9H239.2a4.28,4.28,0,0,0,4.35,4.38,3.93,3.93,0,0,0,4-2.91Zm-2.85-4.59a3.64,3.64,0,0,0-4-3.69,3.88,3.88,0,0,0-3.93,3.69Z"/><path class="cls-1" d="M253.39,191.78v-2.46h8.13v2.46Z"/><path class="cls-1" d="M278.8,177.89h3.09l-8.19,21.27h-2.91l-8-21.27h3.12l6.42,17.49Z"/><path class="cls-1" d="M295.42,195.05a6.54,6.54,0,0,1-6.48,4.56c-3.87,0-7.26-2.82-7.26-7.71,0-4.53,3.27-7.62,6.9-7.62,4.44,0,6.93,3.06,6.93,7.56a6.34,6.34,0,0,1-.06.9H284.59a4.28,4.28,0,0,0,4.35,4.38,3.93,3.93,0,0,0,4.05-2.91Zm-2.85-4.59a3.64,3.64,0,0,0-4-3.69,3.88,3.88,0,0,0-3.93,3.69Z"/><path class="cls-1" d="M307.06,187.58a8.8,8.8,0,0,0-1.23-.09c-2.37,0-4,1.26-4,4.44v7.23h-2.82V184.73h2.76v2.52a4.52,4.52,0,0,1,4.32-2.76,5.31,5.31,0,0,1,.93.09Z"/><path class="cls-1" d="M321.43,184.73l3.75,10.86,3.18-10.86h3l-4.68,14.43h-2.91l-3.84-11-3.75,11h-3l-4.74-14.43h3.09l3.24,10.86,3.75-10.86Z"/><path class="cls-1" d="M337.54,190.91l3.9-.57c.87-.12,1.11-.57,1.11-1.08,0-1.41-.93-2.58-3.12-2.58a3.06,3.06,0,0,0-3.27,2.91l-2.7-.63c.3-2.76,2.79-4.68,5.91-4.68,4.32,0,6,2.46,6,5.28v7.23a13.57,13.57,0,0,0,.18,2.37h-2.76a10.56,10.56,0,0,1-.15-1.95,5.26,5.26,0,0,1-4.65,2.4c-2.94,0-4.83-2-4.83-4.32C333.16,192.71,335.05,191.27,337.54,190.91Zm5,2.07v-.66l-4.41.66a2.16,2.16,0,0,0-2.1,2.16,2.19,2.19,0,0,0,2.34,2.1C340.69,197.24,342.55,196.13,342.55,193Z"/><path class="cls-1" d="M349.81,199.16V177.44h2.82v21.72Z"/><path class="cls-1" d="M361.12,184.73h3.12v2.55h-3.12v7.5c0,1.32.54,2,2,2a5.71,5.71,0,0,0,1.11-.12V199a6.17,6.17,0,0,1-1.92.27,3.75,3.75,0,0,1-4-4.11v-7.92h-2.76v-2.55h.78a2,2,0,0,0,2.22-2.22v-2.34h2.58Z"/><path class="cls-1" d="M372.85,199.61c-3.36,0-5.4-2.52-5.4-5.79v-9.09h2.82v8.67c0,2,.9,3.72,3.27,3.72s3.42-1.5,3.42-3.69v-8.7h2.82v11.76a24.28,24.28,0,0,0,.15,2.67h-2.7a12.77,12.77,0,0,1-.12-1.74A4.71,4.71,0,0,1,372.85,199.61Z"/><path class="cls-1" d="M387.19,199.16h-2.82V184.73h2.76v2.07a4.94,4.94,0,0,1,4.44-2.49c3.45,0,5.16,2.49,5.16,5.7v9.15h-2.82v-8.67c0-2-.84-3.63-3.36-3.63-2.22,0-3.36,1.77-3.36,4Z"/><path class="cls-1" d="M402.91,199.31a3.84,3.84,0,0,0,3.93,3.54c3,0,4.41-1.56,4.41-4.68V196.1a4.81,4.81,0,0,1-4.41,2.37c-3.84,0-6.63-2.91-6.63-7,0-3.9,2.67-7,6.63-7,2.22,0,3.72.84,4.44,2.28v-2h2.79v13.35c0,3.66-1.8,7.23-7.23,7.23-3.6,0-6.3-2.28-6.66-5.37Zm8.46-7.83c0-2.79-1.68-4.62-4.11-4.62s-4.17,1.83-4.17,4.62,1.62,4.62,4.17,4.62S411.37,194.27,411.37,191.48Z"/><path class="cls-1" d="M432.52,199.16h-2.85l-5.85-14.43H427l4.11,11.13,4.14-11.13h3Z"/><path class="cls-1" d="M454.57,191.93c0,4.41-3.06,7.68-7.38,7.68s-7.38-3.27-7.38-7.68a7.38,7.38,0,1,1,14.76,0Zm-2.88,0c0-3.33-2.1-5.13-4.5-5.13s-4.5,1.8-4.5,5.13,2.1,5.16,4.5,5.16S451.69,195.29,451.69,191.93Z"/><path class="cls-1" d="M461,199.16h-2.82V184.73h2.76v2.07a4.94,4.94,0,0,1,4.44-2.49c3.45,0,5.16,2.49,5.16,5.7v9.15h-2.82v-8.67c0-2-.84-3.63-3.36-3.63-2.22,0-3.36,1.77-3.36,4Z"/><path class="cls-1" d="M85.33,227.88c0,4.41-3.06,7.68-7.38,7.68s-7.38-3.27-7.38-7.68a7.38,7.38,0,1,1,14.76,0ZM75.1,214.75a1.74,1.74,0,1,1,0,3.48,1.74,1.74,0,0,1,0-3.48Zm7.35,13.13c0-3.33-2.1-5.13-4.5-5.13s-4.5,1.8-4.5,5.13S75.55,233,78,233,82.45,231.24,82.45,227.88Zm-1.71-13.13a1.74,1.74,0,1,1,0,3.48,1.74,1.74,0,1,1,0-3.48Z"/><path class="cls-1" d="M102.22,218.4v2.29h3.48v2.54h-3.48v11.88H99.31V223.23H92.74v11.88H89.83V223.23H87.16v-2.54h2.67v-2.44a4.57,4.57,0,0,1,4.74-4.94,3.64,3.64,0,0,1,1.68.3v2.52a3,3,0,0,0-1.23-.19,2.16,2.16,0,0,0-2.28,2.46v2.29h6.57v-2.44a4.57,4.57,0,0,1,4.74-4.94,3.64,3.64,0,0,1,1.68.3v2.52a3,3,0,0,0-1.23-.19A2.16,2.16,0,0,0,102.22,218.4Z"/><path class="cls-1" d="M121.12,231a6.54,6.54,0,0,1-6.48,4.56c-3.87,0-7.26-2.82-7.26-7.71,0-4.53,3.27-7.62,6.9-7.62,4.44,0,6.93,3.06,6.93,7.56a6.34,6.34,0,0,1-.06.9H110.29a4.28,4.28,0,0,0,4.35,4.38,3.93,3.93,0,0,0,4-2.91Zm-2.85-4.59a3.64,3.64,0,0,0-4-3.69,3.88,3.88,0,0,0-3.93,3.69Z"/><path class="cls-1" d="M127.57,235.11h-2.82V220.69h2.76v2.06a5,5,0,0,1,4.44-2.49c3.45,0,5.16,2.49,5.16,5.7v9.15h-2.82v-8.67c0-2-.84-3.63-3.36-3.63-2.22,0-3.36,1.77-3.36,4Z"/><path class="cls-1" d="M145.33,220.69h3.12v2.54h-3.12v7.5c0,1.32.54,2,2,2a5.71,5.71,0,0,0,1.11-.12V235a6.17,6.17,0,0,1-1.92.27,3.75,3.75,0,0,1-4-4.11v-7.92h-2.76v-2.54h.78a2,2,0,0,0,2.22-2.23v-2.33h2.58Z"/><path class="cls-1" d="M151.81,235.11V213.4h2.82v21.71Z"/><path class="cls-1" d="M160.57,213.19a2,2,0,1,1-2,2A2,2,0,0,1,160.57,213.19Zm-1.38,21.92V220.69H162v14.42Z"/><path class="cls-1" d="M168.46,227.88c0,3.3,2.07,5.07,4.41,5.07a3.92,3.92,0,0,0,4-3l2.49,1.08a6.63,6.63,0,0,1-6.51,4.5c-4.2,0-7.29-3.3-7.29-7.68s3.15-7.65,7.26-7.65a6.28,6.28,0,0,1,6.42,4.59l-2.55,1.08a3.78,3.78,0,0,0-3.87-3.06C170.56,222.84,168.46,224.52,168.46,227.88Z"/><path class="cls-1" d="M185.53,235.11h-2.82V213.4h2.82v9a5.1,5.1,0,0,1,4.38-2.1c3.45,0,5.16,2.49,5.16,5.7v9.15h-2.82v-8.67c0-2-.84-3.63-3.36-3.63-2.16,0-3.3,1.68-3.36,3.81Z"/><path class="cls-1" d="M212.26,231a6.54,6.54,0,0,1-6.48,4.56c-3.87,0-7.26-2.82-7.26-7.71,0-4.53,3.27-7.62,6.9-7.62,4.44,0,6.93,3.06,6.93,7.56a6.34,6.34,0,0,1-.06.9H201.43a4.28,4.28,0,0,0,4.35,4.38,3.93,3.93,0,0,0,4.05-2.91Zm-2.85-4.59a3.64,3.64,0,0,0-4-3.69,3.88,3.88,0,0,0-3.93,3.69Z"/><path class="cls-1" d="M218.71,235.11h-2.82V220.69h2.76v2.06a5,5,0,0,1,4.44-2.49c3.45,0,5.16,2.49,5.16,5.7v9.15h-2.82v-8.67c0-2-.84-3.63-3.36-3.63-2.22,0-3.36,1.77-3.36,4Z"/><path class="cls-1" d="M240.79,235.11V213.85h3v21.26Z"/><path class="cls-1" d="M251.74,235.11h-2.82V220.69h2.76v2.06a5,5,0,0,1,4.44-2.49c3.45,0,5.16,2.49,5.16,5.7v9.15h-2.82v-8.67c0-2-.84-3.63-3.36-3.63-2.22,0-3.36,1.77-3.36,4Z"/><path class="cls-1" d="M269.62,223.23v11.88h-2.91V223.23H264v-2.54h2.67v-2.44a4.57,4.57,0,0,1,4.74-4.94,3.64,3.64,0,0,1,1.68.3v2.52a3,3,0,0,0-1.23-.19,2.16,2.16,0,0,0-2.28,2.46v2.29h3.48v2.54Z"/><path class="cls-1" d="M284.05,223.53a8.8,8.8,0,0,0-1.23-.09c-2.37,0-4,1.26-4,4.44v7.23H276V220.69h2.76v2.51a4.52,4.52,0,0,1,4.32-2.76,5.31,5.31,0,0,1,.93.09Z"/><path class="cls-1" d="M290.35,226.86l3.9-.57c.87-.12,1.11-.57,1.11-1.08,0-1.41-.93-2.58-3.12-2.58a3.06,3.06,0,0,0-3.27,2.91l-2.7-.63c.3-2.76,2.79-4.68,5.91-4.68,4.32,0,6,2.46,6,5.28v7.23a13.57,13.57,0,0,0,.18,2.37H295.6a10.56,10.56,0,0,1-.15-2,5.26,5.26,0,0,1-4.65,2.4c-2.94,0-4.83-2-4.83-4.32C286,228.66,287.86,227.22,290.35,226.86Zm5,2.07v-.66l-4.41.66a2.16,2.16,0,0,0-2.1,2.16,2.19,2.19,0,0,0,2.34,2.1C293.5,233.19,295.36,232.08,295.36,228.93Z"/><path class="cls-1" d="M304,230.46a3.08,3.08,0,0,0,3.36,2.7c1.59,0,2.46-.9,2.46-1.92s-.66-1.59-1.86-1.86l-2.46-.54a4.1,4.1,0,0,1-3.6-4.05c0-2.46,2.31-4.56,5.13-4.56,4,0,5.19,2.58,5.49,3.87l-2.49.93a2.8,2.8,0,0,0-3-2.4,2.18,2.18,0,0,0-2.4,1.92c0,.87.54,1.5,1.65,1.74l2.34.51c2.61.57,4,2.16,4,4.29s-1.71,4.47-5.28,4.47c-4,0-5.64-2.55-5.88-4.2Z"/><path class="cls-1" d="M320.2,220.69h3.12v2.54H320.2v7.5c0,1.32.54,2,2,2a5.71,5.71,0,0,0,1.11-.12V235a6.17,6.17,0,0,1-1.92.27,3.75,3.75,0,0,1-4-4.11v-7.92h-2.76v-2.54h.78a2,2,0,0,0,2.22-2.23v-2.33h2.58Z"/><path class="cls-1" d="M334.69,223.53a8.8,8.8,0,0,0-1.23-.09c-2.37,0-4,1.26-4,4.44v7.23h-2.82V220.69h2.76v2.51a4.52,4.52,0,0,1,4.32-2.76,5.31,5.31,0,0,1,.93.09Z"/><path class="cls-1" d="M342.82,235.56c-3.36,0-5.4-2.52-5.4-5.79v-9.08h2.82v8.66c0,2,.9,3.72,3.27,3.72s3.42-1.5,3.42-3.69v-8.69h2.82v11.75a24.28,24.28,0,0,0,.15,2.67h-2.7a12.77,12.77,0,0,1-.12-1.74A4.71,4.71,0,0,1,342.82,235.56Z"/><path class="cls-1" d="M361.12,226.77l6.27,8.34h-3.54l-4.71-6.36-2,2v4.35h-2.79V213.4h2.79v13.67l6.24-6.38h3.9Z"/><path class="cls-1" d="M374.05,220.69h3.11v2.54h-3.11v7.5c0,1.32.53,2,2,2a5.6,5.6,0,0,0,1.1-.12V235a6.09,6.09,0,0,1-1.91.27,3.75,3.75,0,0,1-4-4.11v-7.92h-2.75v-2.54h.78a2,2,0,0,0,2.22-2.23v-2.33h2.58Z"/><path class="cls-1" d="M385.77,235.56c-3.36,0-5.4-2.52-5.4-5.79v-9.08h2.82v8.66c0,2,.9,3.72,3.27,3.72s3.42-1.5,3.42-3.69v-8.69h2.82v11.75a24.28,24.28,0,0,0,.15,2.67h-2.7a12.77,12.77,0,0,1-.12-1.74A4.71,4.71,0,0,1,385.77,235.56Z"/><path class="cls-1" d="M405.3,223.53a8.8,8.8,0,0,0-1.23-.09c-2.37,0-4,1.26-4,4.44v7.23h-2.82V220.69h2.76v2.51a4.52,4.52,0,0,1,4.32-2.76,5.31,5.31,0,0,1,.93.09Z"/><path class="cls-1" d="M420.69,231a6.54,6.54,0,0,1-6.48,4.56c-3.87,0-7.26-2.82-7.26-7.71,0-4.53,3.27-7.62,6.9-7.62,4.44,0,6.93,3.06,6.93,7.56a6.34,6.34,0,0,1-.06.9H409.86a4.28,4.28,0,0,0,4.35,4.38,3.93,3.93,0,0,0,4.05-2.91Zm-2.85-4.59a3.64,3.64,0,0,0-4-3.69,3.88,3.88,0,0,0-3.93,3.69Z"/><path class="cls-1" d="M427.14,235.11h-2.82V220.69h2.76v2.06a5,5,0,0,1,4.44-2.49c3.45,0,5.16,2.49,5.16,5.7v9.15h-2.82v-8.67c0-2-.84-3.63-3.36-3.63-2.22,0-3.36,1.77-3.36,4Z"/><path class="cls-1" d="M81.37,177.44a11.09,11.09,0,1,1-10.68,11.07A10.6,10.6,0,0,1,81.37,177.44Zm0,19.47c4,0,7.68-2.85,7.68-8.4s-3.72-8.37-7.68-8.37-7.68,2.82-7.68,8.37S77.41,196.91,81.37,196.91Z"/><path class="cls-1" d="M95.59,204.86V184.73h2.73V187a5.32,5.32,0,0,1,4.83-2.58c4.32,0,6.63,3.33,6.63,7.53s-2.49,7.62-6.72,7.62a5.37,5.37,0,0,1-4.68-2.34v7.65Zm7-18c-2.58,0-4.29,2.16-4.29,5s1.71,5.1,4.29,5.1,4.26-2.13,4.26-5.1S105.28,186.89,102.64,186.89Z"/><path class="cls-1" d="M126.19,195.05a6.54,6.54,0,0,1-6.48,4.56c-3.87,0-7.26-2.82-7.26-7.71,0-4.53,3.27-7.62,6.9-7.62,4.44,0,6.93,3.06,6.93,7.56a6.34,6.34,0,0,1-.06.9H115.36a4.28,4.28,0,0,0,4.35,4.38,3.93,3.93,0,0,0,4.05-2.91Zm-2.85-4.59a3.64,3.64,0,0,0-4-3.69,3.88,3.88,0,0,0-3.93,3.69Z"/><path class="cls-1" d="M132.64,199.16h-2.82V184.73h2.76v2.07a4.94,4.94,0,0,1,4.44-2.49c3.45,0,5.16,2.49,5.16,5.7v9.15h-2.82v-8.67c0-2-.84-3.63-3.36-3.63-2.22,0-3.36,1.77-3.36,4Z"/><path class="cls-1" d="M146.32,191.78v-2.46h8.13v2.46Z"/><path class="cls-1" d="M169.75,183.65a4.32,4.32,0,0,0-4.5-3.63c-2.4,0-4.11,1.56-4.11,3.54a3.08,3.08,0,0,0,2.73,3.09l3.18.69c3.54.78,5.52,3,5.52,6,0,3.3-2.82,6.3-7.35,6.3-5.13,0-7.56-3.3-7.95-6.33l2.82-.9a4.83,4.83,0,0,0,5.1,4.56c2.94,0,4.38-1.53,4.38-3.39,0-1.53-1-2.85-3.18-3.3l-3-.66c-3-.66-5.19-2.64-5.19-5.82,0-3.33,3.09-6.33,7-6.33,4.8,0,6.72,3,7.2,5.28Z"/><path class="cls-1" d="M190.09,191.93c0,4.41-3.06,7.68-7.38,7.68s-7.38-3.27-7.38-7.68a7.38,7.38,0,1,1,14.76,0Zm-2.88,0c0-3.33-2.1-5.13-4.5-5.13s-4.5,1.8-4.5,5.13,2.1,5.16,4.5,5.16S187.21,195.29,187.21,191.93Z"/><path class="cls-1" d="M198.94,199.61c-3.36,0-5.4-2.52-5.4-5.79v-9.09h2.82v8.67c0,2,.9,3.72,3.27,3.72s3.42-1.5,3.42-3.69v-8.7h2.82v11.76a24.28,24.28,0,0,0,.15,2.67h-2.7a12.77,12.77,0,0,1-.12-1.74A4.71,4.71,0,0,1,198.94,199.61Z"/><path class="cls-1" d="M218.47,187.58a8.8,8.8,0,0,0-1.23-.09c-2.37,0-4,1.26-4,4.44v7.23h-2.82V184.73h2.76v2.52a4.52,4.52,0,0,1,4.32-2.76,5.31,5.31,0,0,1,.93.09Z"/><path class="cls-1" d="M223,191.93c0,3.3,2.07,5.07,4.41,5.07a3.92,3.92,0,0,0,4-3l2.49,1.08a6.63,6.63,0,0,1-6.51,4.5c-4.2,0-7.29-3.3-7.29-7.68s3.15-7.65,7.26-7.65a6.28,6.28,0,0,1,6.42,4.59L231.25,190a3.78,3.78,0,0,0-3.87-3.06C225.1,186.89,223,188.57,223,191.93Z"/><path class="cls-1" d="M250,195.05a6.54,6.54,0,0,1-6.48,4.56c-3.87,0-7.26-2.82-7.26-7.71,0-4.53,3.27-7.62,6.9-7.62,4.44,0,6.93,3.06,6.93,7.56a6.34,6.34,0,0,1-.06.9H239.2a4.28,4.28,0,0,0,4.35,4.38,3.93,3.93,0,0,0,4-2.91Zm-2.85-4.59a3.64,3.64,0,0,0-4-3.69,3.88,3.88,0,0,0-3.93,3.69Z"/><path class="cls-1" d="M253.39,191.78v-2.46h8.13v2.46Z"/><path class="cls-1" d="M278.8,177.89h3.09l-8.19,21.27h-2.91l-8-21.27h3.12l6.42,17.49Z"/><path class="cls-1" d="M295.42,195.05a6.54,6.54,0,0,1-6.48,4.56c-3.87,0-7.26-2.82-7.26-7.71,0-4.53,3.27-7.62,6.9-7.62,4.44,0,6.93,3.06,6.93,7.56a6.34,6.34,0,0,1-.06.9H284.59a4.28,4.28,0,0,0,4.35,4.38,3.93,3.93,0,0,0,4.05-2.91Zm-2.85-4.59a3.64,3.64,0,0,0-4-3.69,3.88,3.88,0,0,0-3.93,3.69Z"/><path class="cls-1" d="M307.06,187.58a8.8,8.8,0,0,0-1.23-.09c-2.37,0-4,1.26-4,4.44v7.23h-2.82V184.73h2.76v2.52a4.52,4.52,0,0,1,4.32-2.76,5.31,5.31,0,0,1,.93.09Z"/><path class="cls-1" d="M321.43,184.73l3.75,10.86,3.18-10.86h3l-4.68,14.43h-2.91l-3.84-11-3.75,11h-3l-4.74-14.43h3.09l3.24,10.86,3.75-10.86Z"/><path class="cls-1" d="M337.54,190.91l3.9-.57c.87-.12,1.11-.57,1.11-1.08,0-1.41-.93-2.58-3.12-2.58a3.06,3.06,0,0,0-3.27,2.91l-2.7-.63c.3-2.76,2.79-4.68,5.91-4.68,4.32,0,6,2.46,6,5.28v7.23a13.57,13.57,0,0,0,.18,2.37h-2.76a10.56,10.56,0,0,1-.15-1.95,5.26,5.26,0,0,1-4.65,2.4c-2.94,0-4.83-2-4.83-4.32C333.16,192.71,335.05,191.27,337.54,190.91Zm5,2.07v-.66l-4.41.66a2.16,2.16,0,0,0-2.1,2.16,2.19,2.19,0,0,0,2.34,2.1C340.69,197.24,342.55,196.13,342.55,193Z"/><path class="cls-1" d="M349.81,199.16V177.44h2.82v21.72Z"/><path class="cls-1" d="M361.12,184.73h3.12v2.55h-3.12v7.5c0,1.32.54,2,2,2a5.71,5.71,0,0,0,1.11-.12V199a6.17,6.17,0,0,1-1.92.27,3.75,3.75,0,0,1-4-4.11v-7.92h-2.76v-2.55h.78a2,2,0,0,0,2.22-2.22v-2.34h2.58Z"/><path class="cls-1" d="M372.85,199.61c-3.36,0-5.4-2.52-5.4-5.79v-9.09h2.82v8.67c0,2,.9,3.72,3.27,3.72s3.42-1.5,3.42-3.69v-8.7h2.82v11.76a24.28,24.28,0,0,0,.15,2.67h-2.7a12.77,12.77,0,0,1-.12-1.74A4.71,4.71,0,0,1,372.85,199.61Z"/><path class="cls-1" d="M387.19,199.16h-2.82V184.73h2.76v2.07a4.94,4.94,0,0,1,4.44-2.49c3.45,0,5.16,2.49,5.16,5.7v9.15h-2.82v-8.67c0-2-.84-3.63-3.36-3.63-2.22,0-3.36,1.77-3.36,4Z"/><path class="cls-1" d="M402.91,199.31a3.84,3.84,0,0,0,3.93,3.54c3,0,4.41-1.56,4.41-4.68V196.1a4.81,4.81,0,0,1-4.41,2.37c-3.84,0-6.63-2.91-6.63-7,0-3.9,2.67-7,6.63-7,2.22,0,3.72.84,4.44,2.28v-2h2.79v13.35c0,3.66-1.8,7.23-7.23,7.23-3.6,0-6.3-2.28-6.66-5.37Zm8.46-7.83c0-2.79-1.68-4.62-4.11-4.62s-4.17,1.83-4.17,4.62,1.62,4.62,4.17,4.62S411.37,194.27,411.37,191.48Z"/><path class="cls-1" d="M432.52,199.16h-2.85l-5.85-14.43H427l4.11,11.13,4.14-11.13h3Z"/><path class="cls-1" d="M454.57,191.93c0,4.41-3.06,7.68-7.38,7.68s-7.38-3.27-7.38-7.68a7.38,7.38,0,1,1,14.76,0Zm-2.88,0c0-3.33-2.1-5.13-4.5-5.13s-4.5,1.8-4.5,5.13,2.1,5.16,4.5,5.16S451.69,195.29,451.69,191.93Z"/><path class="cls-1" d="M461,199.16h-2.82V184.73h2.76v2.07a4.94,4.94,0,0,1,4.44-2.49c3.45,0,5.16,2.49,5.16,5.7v9.15h-2.82v-8.67c0-2-.84-3.63-3.36-3.63-2.22,0-3.36,1.77-3.36,4Z"/><path class="cls-1" d="M85.33,227.88c0,4.41-3.06,7.68-7.38,7.68s-7.38-3.27-7.38-7.68a7.38,7.38,0,1,1,14.76,0ZM75.1,214.75a1.74,1.74,0,1,1,0,3.48,1.74,1.74,0,0,1,0-3.48Zm7.35,13.13c0-3.33-2.1-5.13-4.5-5.13s-4.5,1.8-4.5,5.13S75.55,233,78,233,82.45,231.24,82.45,227.88Zm-1.71-13.13a1.74,1.74,0,1,1,0,3.48,1.74,1.74,0,1,1,0-3.48Z"/><path class="cls-1" d="M102.22,218.4v2.29h3.48v2.54h-3.48v11.88H99.31V223.23H92.74v11.88H89.83V223.23H87.16v-2.54h2.67v-2.44a4.57,4.57,0,0,1,4.74-4.94,3.64,3.64,0,0,1,1.68.3v2.52a3,3,0,0,0-1.23-.19,2.16,2.16,0,0,0-2.28,2.46v2.29h6.57v-2.44a4.57,4.57,0,0,1,4.74-4.94,3.64,3.64,0,0,1,1.68.3v2.52a3,3,0,0,0-1.23-.19A2.16,2.16,0,0,0,102.22,218.4Z"/><path class="cls-1" d="M121.12,231a6.54,6.54,0,0,1-6.48,4.56c-3.87,0-7.26-2.82-7.26-7.71,0-4.53,3.27-7.62,6.9-7.62,4.44,0,6.93,3.06,6.93,7.56a6.34,6.34,0,0,1-.06.9H110.29a4.28,4.28,0,0,0,4.35,4.38,3.93,3.93,0,0,0,4-2.91Zm-2.85-4.59a3.64,3.64,0,0,0-4-3.69,3.88,3.88,0,0,0-3.93,3.69Z"/><path class="cls-1" d="M127.57,235.11h-2.82V220.69h2.76v2.06a5,5,0,0,1,4.44-2.49c3.45,0,5.16,2.49,5.16,5.7v9.15h-2.82v-8.67c0-2-.84-3.63-3.36-3.63-2.22,0-3.36,1.77-3.36,4Z"/><path class="cls-1" d="M145.33,220.69h3.12v2.54h-3.12v7.5c0,1.32.54,2,2,2a5.71,5.71,0,0,0,1.11-.12V235a6.17,6.17,0,0,1-1.92.27,3.75,3.75,0,0,1-4-4.11v-7.92h-2.76v-2.54h.78a2,2,0,0,0,2.22-2.23v-2.33h2.58Z"/><path class="cls-1" d="M151.81,235.11V213.4h2.82v21.71Z"/><path class="cls-1" d="M160.57,213.19a2,2,0,1,1-2,2A2,2,0,0,1,160.57,213.19Zm-1.38,21.92V220.69H162v14.42Z"/><path class="cls-1" d="M168.46,227.88c0,3.3,2.07,5.07,4.41,5.07a3.92,3.92,0,0,0,4-3l2.49,1.08a6.63,6.63,0,0,1-6.51,4.5c-4.2,0-7.29-3.3-7.29-7.68s3.15-7.65,7.26-7.65a6.28,6.28,0,0,1,6.42,4.59l-2.55,1.08a3.78,3.78,0,0,0-3.87-3.06C170.56,222.84,168.46,224.52,168.46,227.88Z"/><path class="cls-1" d="M185.53,235.11h-2.82V213.4h2.82v9a5.1,5.1,0,0,1,4.38-2.1c3.45,0,5.16,2.49,5.16,5.7v9.15h-2.82v-8.67c0-2-.84-3.63-3.36-3.63-2.16,0-3.3,1.68-3.36,3.81Z"/><path class="cls-1" d="M212.26,231a6.54,6.54,0,0,1-6.48,4.56c-3.87,0-7.26-2.82-7.26-7.71,0-4.53,3.27-7.62,6.9-7.62,4.44,0,6.93,3.06,6.93,7.56a6.34,6.34,0,0,1-.06.9H201.43a4.28,4.28,0,0,0,4.35,4.38,3.93,3.93,0,0,0,4.05-2.91Zm-2.85-4.59a3.64,3.64,0,0,0-4-3.69,3.88,3.88,0,0,0-3.93,3.69Z"/><path class="cls-1" d="M218.71,235.11h-2.82V220.69h2.76v2.06a5,5,0,0,1,4.44-2.49c3.45,0,5.16,2.49,5.16,5.7v9.15h-2.82v-8.67c0-2-.84-3.63-3.36-3.63-2.22,0-3.36,1.77-3.36,4Z"/><path class="cls-1" d="M240.79,235.11V213.85h3v21.26Z"/><path class="cls-1" d="M251.74,235.11h-2.82V220.69h2.76v2.06a5,5,0,0,1,4.44-2.49c3.45,0,5.16,2.49,5.16,5.7v9.15h-2.82v-8.67c0-2-.84-3.63-3.36-3.63-2.22,0-3.36,1.77-3.36,4Z"/><path class="cls-1" d="M269.62,223.23v11.88h-2.91V223.23H264v-2.54h2.67v-2.44a4.57,4.57,0,0,1,4.74-4.94,3.64,3.64,0,0,1,1.68.3v2.52a3,3,0,0,0-1.23-.19,2.16,2.16,0,0,0-2.28,2.46v2.29h3.48v2.54Z"/><path class="cls-1" d="M284.05,223.53a8.8,8.8,0,0,0-1.23-.09c-2.37,0-4,1.26-4,4.44v7.23H276V220.69h2.76v2.51a4.52,4.52,0,0,1,4.32-2.76,5.31,5.31,0,0,1,.93.09Z"/><path class="cls-1" d="M290.35,226.86l3.9-.57c.87-.12,1.11-.57,1.11-1.08,0-1.41-.93-2.58-3.12-2.58a3.06,3.06,0,0,0-3.27,2.91l-2.7-.63c.3-2.76,2.79-4.68,5.91-4.68,4.32,0,6,2.46,6,5.28v7.23a13.57,13.57,0,0,0,.18,2.37H295.6a10.56,10.56,0,0,1-.15-2,5.26,5.26,0,0,1-4.65,2.4c-2.94,0-4.83-2-4.83-4.32C286,228.66,287.86,227.22,290.35,226.86Zm5,2.07v-.66l-4.41.66a2.16,2.16,0,0,0-2.1,2.16,2.19,2.19,0,0,0,2.34,2.1C293.5,233.19,295.36,232.08,295.36,228.93Z"/><path class="cls-1" d="M304,230.46a3.08,3.08,0,0,0,3.36,2.7c1.59,0,2.46-.9,2.46-1.92s-.66-1.59-1.86-1.86l-2.46-.54a4.1,4.1,0,0,1-3.6-4.05c0-2.46,2.31-4.56,5.13-4.56,4,0,5.19,2.58,5.49,3.87l-2.49.93a2.8,2.8,0,0,0-3-2.4,2.18,2.18,0,0,0-2.4,1.92c0,.87.54,1.5,1.65,1.74l2.34.51c2.61.57,4,2.16,4,4.29s-1.71,4.47-5.28,4.47c-4,0-5.64-2.55-5.88-4.2Z"/><path class="cls-1" d="M320.2,220.69h3.12v2.54H320.2v7.5c0,1.32.54,2,2,2a5.71,5.71,0,0,0,1.11-.12V235a6.17,6.17,0,0,1-1.92.27,3.75,3.75,0,0,1-4-4.11v-7.92h-2.76v-2.54h.78a2,2,0,0,0,2.22-2.23v-2.33h2.58Z"/><path class="cls-1" d="M334.69,223.53a8.8,8.8,0,0,0-1.23-.09c-2.37,0-4,1.26-4,4.44v7.23h-2.82V220.69h2.76v2.51a4.52,4.52,0,0,1,4.32-2.76,5.31,5.31,0,0,1,.93.09Z"/><path class="cls-1" d="M342.82,235.56c-3.36,0-5.4-2.52-5.4-5.79v-9.08h2.82v8.66c0,2,.9,3.72,3.27,3.72s3.42-1.5,3.42-3.69v-8.69h2.82v11.75a24.28,24.28,0,0,0,.15,2.67h-2.7a12.77,12.77,0,0,1-.12-1.74A4.71,4.71,0,0,1,342.82,235.56Z"/><path class="cls-1" d="M361.12,226.77l6.27,8.34h-3.54l-4.71-6.36-2,2v4.35h-2.79V213.4h2.79v13.67l6.24-6.38h3.9Z"/><path class="cls-1" d="M374.05,220.69h3.11v2.54h-3.11v7.5c0,1.32.53,2,2,2a5.6,5.6,0,0,0,1.1-.12V235a6.09,6.09,0,0,1-1.91.27,3.75,3.75,0,0,1-4-4.11v-7.92h-2.75v-2.54h.78a2,2,0,0,0,2.22-2.23v-2.33h2.58Z"/><path class="cls-1" d="M385.77,235.56c-3.36,0-5.4-2.52-5.4-5.79v-9.08h2.82v8.66c0,2,.9,3.72,3.27,3.72s3.42-1.5,3.42-3.69v-8.69h2.82v11.75a24.28,24.28,0,0,0,.15,2.67h-2.7a12.77,12.77,0,0,1-.12-1.74A4.71,4.71,0,0,1,385.77,235.56Z"/><path class="cls-1" d="M405.3,223.53a8.8,8.8,0,0,0-1.23-.09c-2.37,0-4,1.26-4,4.44v7.23h-2.82V220.69h2.76v2.51a4.52,4.52,0,0,1,4.32-2.76,5.31,5.31,0,0,1,.93.09Z"/><path class="cls-1" d="M420.69,231a6.54,6.54,0,0,1-6.48,4.56c-3.87,0-7.26-2.82-7.26-7.71,0-4.53,3.27-7.62,6.9-7.62,4.44,0,6.93,3.06,6.93,7.56a6.34,6.34,0,0,1-.06.9H409.86a4.28,4.28,0,0,0,4.35,4.38,3.93,3.93,0,0,0,4.05-2.91Zm-2.85-4.59a3.64,3.64,0,0,0-4-3.69,3.88,3.88,0,0,0-3.93,3.69Z"/><path class="cls-1" d="M427.14,235.11h-2.82V220.69h2.76v2.06a5,5,0,0,1,4.44-2.49c3.45,0,5.16,2.49,5.16,5.7v9.15h-2.82v-8.67c0-2-.84-3.63-3.36-3.63-2.22,0-3.36,1.77-3.36,4Z"/><polygon points="66.89 78.93 94.96 78.93 94.96 150.77 115.3 150.77 115.3 78.93 143.5 78.93 143.5 59.48 66.89 59.48 66.89 78.93"/><polygon points="176.19 113.94 210.18 113.94 210.18 96.05 176.19 96.05 176.19 78.67 213.66 78.67 213.66 59.48 155.85 59.48 155.85 150.77 213.79 150.77 213.79 131.46 176.19 131.46 176.19 113.94"/><polygon class="cls-1" points="311.38 59.48 284.59 59.48 230.91 121.26 230.91 148.9 311.38 59.48"/><polygon points="265.04 119.94 286.14 150.77 311.5 150.77 279.32 104.07 265.04 119.94"/><polygon points="251.25 59.48 230.91 59.48 230.91 112.11 251.25 88.71 251.25 59.48"/><path d="M358.88,96.44l-12.23-2.32c-6.31-1.16-9-4.38-9-8.76,0-5,4.9-9.78,12.49-9.78,11.07,0,14.55,7.21,15.19,11.46l18.29-5.15C381.67,71.2,373,57.55,350.25,57.55c-17.51,0-32.7,12.1-32.7,29.36,0,13.52,9.4,23.82,24.85,26.78L354.89,116c6.05,1.15,9.78,4.5,9.78,9.14,0,5.66-4.89,9.52-12.87,9.52-12.49,0-18.16-7.33-18.93-15.7l-18.67,4.5c1.29,12.88,12.1,29.23,37.34,29.23,21.76,0,33.73-14.55,33.73-28.84C385.27,110.86,376.26,99.66,358.88,96.44Z"/><rect x="399.17" y="59.48" width="20.6" height="91.28"/></svg>