<svg id="Calque_1" data-name="Calque 1" xmlns="http://www.w3.org/2000/svg" viewBox="0 0 895.14 503.52"><defs><style>.cls-1{fill:#968b83;}.cls-2{fill:#fff;}</style></defs><path class="cls-1" d="M384.89,280.4a11.09,11.09,0,1,1-10.68,11.07A10.6,10.6,0,0,1,384.89,280.4Zm0,19.47c4,0,7.68-2.85,7.68-8.4s-3.72-8.37-7.68-8.37-7.68,2.82-7.68,8.37S380.93,299.87,384.89,299.87Z"/><path class="cls-1" d="M399.11,307.82V287.69h2.73v2.25a5.32,5.32,0,0,1,4.83-2.58c4.32,0,6.63,3.33,6.63,7.53s-2.49,7.62-6.72,7.62a5.37,5.37,0,0,1-4.68-2.34v7.65Zm7.05-18c-2.58,0-4.29,2.16-4.29,5s1.71,5.1,4.29,5.1,4.26-2.13,4.26-5.1S408.8,289.85,406.16,289.85Z"/><path class="cls-1" d="M429.71,298a6.54,6.54,0,0,1-6.48,4.56c-3.87,0-7.26-2.82-7.26-7.71,0-4.53,3.27-7.62,6.9-7.62,4.44,0,6.93,3.06,6.93,7.56a6.34,6.34,0,0,1-.06.9H418.88a4.28,4.28,0,0,0,4.35,4.38,3.93,3.93,0,0,0,4-2.91Zm-2.85-4.59a3.64,3.64,0,0,0-4-3.69,3.88,3.88,0,0,0-3.93,3.69Z"/><path class="cls-1" d="M436.16,302.12h-2.82V287.69h2.76v2.07a4.94,4.94,0,0,1,4.44-2.49c3.45,0,5.16,2.49,5.16,5.7v9.15h-2.82v-8.67c0-2-.84-3.63-3.36-3.63-2.22,0-3.36,1.77-3.36,4Z"/><path class="cls-1" d="M449.84,294.74v-2.46H458v2.46Z"/><path class="cls-1" d="M473.27,286.61a4.32,4.32,0,0,0-4.5-3.63c-2.4,0-4.11,1.56-4.11,3.54a3.08,3.08,0,0,0,2.73,3.09l3.18.69c3.54.78,5.52,3,5.52,6,0,3.3-2.82,6.3-7.35,6.3-5.13,0-7.56-3.3-7.95-6.33l2.82-.9a4.83,4.83,0,0,0,5.1,4.56c2.94,0,4.38-1.53,4.38-3.39,0-1.53-1-2.85-3.18-3.3l-3-.66c-3-.66-5.19-2.64-5.19-5.82,0-3.33,3.09-6.33,7-6.33,4.8,0,6.72,3,7.2,5.28Z"/><path class="cls-1" d="M493.61,294.89c0,4.41-3.06,7.68-7.38,7.68s-7.38-3.27-7.38-7.68a7.38,7.38,0,1,1,14.76,0Zm-2.88,0c0-3.33-2.1-5.13-4.5-5.13s-4.5,1.8-4.5,5.13,2.1,5.16,4.5,5.16S490.73,298.25,490.73,294.89Z"/><path class="cls-1" d="M502.46,302.57c-3.36,0-5.4-2.52-5.4-5.79v-9.09h2.82v8.67c0,2,.9,3.72,3.27,3.72s3.42-1.5,3.42-3.69v-8.7h2.82v11.76a24.28,24.28,0,0,0,.15,2.67h-2.7a12.77,12.77,0,0,1-.12-1.74A4.71,4.71,0,0,1,502.46,302.57Z"/><path class="cls-1" d="M522,290.54a8.8,8.8,0,0,0-1.23-.09c-2.37,0-4,1.26-4,4.44v7.23H514V287.69h2.76v2.52a4.52,4.52,0,0,1,4.32-2.76,5.31,5.31,0,0,1,.93.09Z"/><path class="cls-1" d="M526.52,294.89c0,3.3,2.07,5.07,4.41,5.07a3.92,3.92,0,0,0,4-3l2.49,1.08a6.63,6.63,0,0,1-6.51,4.5c-4.2,0-7.29-3.3-7.29-7.68s3.15-7.65,7.26-7.65a6.28,6.28,0,0,1,6.42,4.59l-2.55,1.08a3.78,3.78,0,0,0-3.87-3.06C528.62,289.85,526.52,291.53,526.52,294.89Z"/><path class="cls-1" d="M553.55,298a6.54,6.54,0,0,1-6.48,4.56c-3.87,0-7.26-2.82-7.26-7.71,0-4.53,3.27-7.62,6.9-7.62,4.44,0,6.93,3.06,6.93,7.56a6.34,6.34,0,0,1-.06.9H542.72a4.28,4.28,0,0,0,4.35,4.38,3.93,3.93,0,0,0,4-2.91Zm-2.85-4.59a3.64,3.64,0,0,0-4-3.69,3.88,3.88,0,0,0-3.93,3.69Z"/><path class="cls-1" d="M556.91,294.74v-2.46H565v2.46Z"/><path class="cls-1" d="M582.32,280.85h3.09l-8.19,21.27h-2.91l-8-21.27h3.12l6.42,17.49Z"/><path class="cls-1" d="M598.94,298a6.54,6.54,0,0,1-6.48,4.56c-3.87,0-7.26-2.82-7.26-7.71,0-4.53,3.27-7.62,6.9-7.62,4.44,0,6.93,3.06,6.93,7.56a6.34,6.34,0,0,1-.06.9H588.11a4.28,4.28,0,0,0,4.35,4.38,3.93,3.93,0,0,0,4-2.91Zm-2.85-4.59a3.64,3.64,0,0,0-4-3.69,3.88,3.88,0,0,0-3.93,3.69Z"/><path class="cls-1" d="M610.58,290.54a8.8,8.8,0,0,0-1.23-.09c-2.37,0-4,1.26-4,4.44v7.23h-2.82V287.69h2.76v2.52a4.52,4.52,0,0,1,4.32-2.76,5.31,5.31,0,0,1,.93.09Z"/><path class="cls-1" d="M625,287.69l3.75,10.86,3.18-10.86h3l-4.68,14.43h-2.91l-3.84-11-3.75,11h-3L612,287.69h3.09l3.24,10.86L622,287.69Z"/><path class="cls-1" d="M641.06,293.87l3.9-.57c.87-.12,1.11-.57,1.11-1.08,0-1.41-.93-2.58-3.12-2.58a3.06,3.06,0,0,0-3.27,2.91l-2.7-.63c.3-2.76,2.79-4.68,5.91-4.68,4.32,0,6,2.46,6,5.28v7.23a13.57,13.57,0,0,0,.18,2.37h-2.76a10.56,10.56,0,0,1-.15-1.95,5.26,5.26,0,0,1-4.65,2.4c-2.94,0-4.83-2-4.83-4.32C636.68,295.67,638.57,294.23,641.06,293.87Zm5,2.07v-.66l-4.41.66a2.16,2.16,0,0,0-2.1,2.16,2.19,2.19,0,0,0,2.34,2.1C644.21,300.2,646.07,299.09,646.07,295.94Z"/><path class="cls-1" d="M653.33,302.12V280.4h2.82v21.72Z"/><path class="cls-1" d="M664.64,287.69h3.12v2.55h-3.12v7.5c0,1.32.54,2,2,2a5.71,5.71,0,0,0,1.11-.12V302a6.17,6.17,0,0,1-1.92.27,3.75,3.75,0,0,1-4-4.11v-7.92h-2.76v-2.55h.78a2,2,0,0,0,2.22-2.22v-2.34h2.58Z"/><path class="cls-1" d="M676.37,302.57c-3.36,0-5.4-2.52-5.4-5.79v-9.09h2.82v8.67c0,2,.9,3.72,3.27,3.72s3.42-1.5,3.42-3.69v-8.7h2.82v11.76a24.28,24.28,0,0,0,.15,2.67h-2.7a12.77,12.77,0,0,1-.12-1.74A4.71,4.71,0,0,1,676.37,302.57Z"/><path class="cls-1" d="M690.71,302.12h-2.82V287.69h2.76v2.07a4.94,4.94,0,0,1,4.44-2.49c3.45,0,5.16,2.49,5.16,5.7v9.15h-2.82v-8.67c0-2-.84-3.63-3.36-3.63-2.22,0-3.36,1.77-3.36,4Z"/><path class="cls-1" d="M706.43,302.27a3.84,3.84,0,0,0,3.93,3.54c3,0,4.41-1.56,4.41-4.68v-2.07a4.81,4.81,0,0,1-4.41,2.37c-3.84,0-6.63-2.91-6.63-7,0-3.9,2.67-7,6.63-7,2.22,0,3.72.84,4.43,2.28v-2h2.8V301c0,3.66-1.8,7.23-7.23,7.23-3.6,0-6.3-2.28-6.66-5.37Zm8.45-7.83c0-2.79-1.67-4.62-4.1-4.62s-4.17,1.83-4.17,4.62,1.62,4.62,4.17,4.62S714.88,297.23,714.88,294.44Z"/><path class="cls-1" d="M736,302.12h-2.85l-5.85-14.43h3.18l4.11,11.13,4.13-11.13h3Z"/><path class="cls-1" d="M758.09,294.89c0,4.41-3.06,7.68-7.38,7.68s-7.38-3.27-7.38-7.68a7.38,7.38,0,1,1,14.76,0Zm-2.88,0c0-3.33-2.1-5.13-4.5-5.13s-4.5,1.8-4.5,5.13,2.1,5.16,4.5,5.16S755.21,298.25,755.21,294.89Z"/><path class="cls-1" d="M764.5,302.12h-2.82V287.69h2.76v2.07a5,5,0,0,1,4.44-2.49c3.46,0,5.16,2.49,5.16,5.7v9.15h-2.82v-8.67c0-2-.84-3.63-3.36-3.63-2.22,0-3.36,1.77-3.36,4Z"/><path class="cls-1" d="M388.85,330.84c0,4.41-3.06,7.68-7.38,7.68s-7.38-3.27-7.38-7.68a7.38,7.38,0,1,1,14.76,0ZM378.62,317.7a1.75,1.75,0,0,1,1.77,1.74,1.73,1.73,0,0,1-1.77,1.74,1.7,1.7,0,0,1-1.71-1.74A1.72,1.72,0,0,1,378.62,317.7ZM386,330.84c0-3.33-2.1-5.13-4.5-5.13s-4.5,1.8-4.5,5.13,2.1,5.16,4.5,5.16S386,334.2,386,330.84Zm-1.71-13.14a1.74,1.74,0,0,1,1.74,1.74,1.72,1.72,0,0,1-1.74,1.74,1.7,1.7,0,0,1-1.74-1.74A1.72,1.72,0,0,1,384.26,317.7Z"/><path class="cls-1" d="M405.74,321.36v2.28h3.48v2.55h-3.48v11.88h-2.91V326.19h-6.57v11.88h-2.91V326.19h-2.67v-2.55h2.67v-2.43a4.58,4.58,0,0,1,4.74-4.95,3.64,3.64,0,0,1,1.68.3v2.52a3.26,3.26,0,0,0-1.23-.18,2.16,2.16,0,0,0-2.28,2.46v2.28h6.57v-2.43a4.58,4.58,0,0,1,4.74-4.95,3.64,3.64,0,0,1,1.68.3v2.52a3.26,3.26,0,0,0-1.23-.18A2.16,2.16,0,0,0,405.74,321.36Z"/><path class="cls-1" d="M424.64,334a6.54,6.54,0,0,1-6.48,4.56c-3.87,0-7.26-2.82-7.26-7.71,0-4.53,3.27-7.62,6.9-7.62,4.44,0,6.93,3.06,6.93,7.56a6.34,6.34,0,0,1-.06.9H413.81a4.28,4.28,0,0,0,4.35,4.38,3.93,3.93,0,0,0,4-2.91Zm-2.85-4.59a3.64,3.64,0,0,0-4-3.69,3.88,3.88,0,0,0-3.93,3.69Z"/><path class="cls-1" d="M431.09,338.07h-2.82V323.64H431v2.07a4.94,4.94,0,0,1,4.44-2.49c3.45,0,5.16,2.49,5.16,5.7v9.15h-2.82V329.4c0-2-.84-3.63-3.36-3.63-2.22,0-3.36,1.77-3.36,4Z"/><path class="cls-1" d="M448.85,323.64H452v2.55h-3.12v7.5c0,1.32.54,2,2,2a5.71,5.71,0,0,0,1.11-.12V338a6.17,6.17,0,0,1-1.92.27,3.75,3.75,0,0,1-4-4.11v-7.92h-2.76v-2.55h.78a2,2,0,0,0,2.22-2.22v-2.34h2.58Z"/><path class="cls-1" d="M455.33,338.07V316.35h2.82v21.72Z"/><path class="cls-1" d="M464.09,316.14a2,2,0,1,1-2,2A2,2,0,0,1,464.09,316.14Zm-1.38,21.93V323.64h2.79v14.43Z"/><path class="cls-1" d="M472,330.84c0,3.3,2.07,5.07,4.41,5.07a3.92,3.92,0,0,0,4-3L482.9,334a6.63,6.63,0,0,1-6.51,4.5c-4.2,0-7.29-3.3-7.29-7.68s3.15-7.65,7.26-7.65a6.28,6.28,0,0,1,6.42,4.59l-2.55,1.08a3.78,3.78,0,0,0-3.87-3.06C474.08,325.8,472,327.48,472,330.84Z"/><path class="cls-1" d="M489.05,338.07h-2.82V316.35h2.82v9a5.1,5.1,0,0,1,4.38-2.1c3.45,0,5.16,2.49,5.16,5.7v9.15h-2.82V329.4c0-2-.84-3.63-3.36-3.63-2.16,0-3.3,1.68-3.36,3.81Z"/><path class="cls-1" d="M515.78,334a6.54,6.54,0,0,1-6.48,4.56c-3.87,0-7.26-2.82-7.26-7.71,0-4.53,3.27-7.62,6.9-7.62,4.44,0,6.93,3.06,6.93,7.56a6.34,6.34,0,0,1-.06.9H505A4.28,4.28,0,0,0,509.3,336a3.93,3.93,0,0,0,4.05-2.91Zm-2.85-4.59a3.64,3.64,0,0,0-4-3.69,3.88,3.88,0,0,0-3.93,3.69Z"/><path class="cls-1" d="M522.23,338.07h-2.82V323.64h2.76v2.07a4.94,4.94,0,0,1,4.44-2.49c3.45,0,5.16,2.49,5.16,5.7v9.15H529V329.4c0-2-.84-3.63-3.36-3.63-2.22,0-3.36,1.77-3.36,4Z"/><path class="cls-1" d="M544.31,338.07V316.8h3v21.27Z"/><path class="cls-1" d="M555.26,338.07h-2.82V323.64h2.76v2.07a4.94,4.94,0,0,1,4.44-2.49c3.45,0,5.15,2.49,5.15,5.7v9.15H562V329.4c0-2-.84-3.63-3.36-3.63-2.22,0-3.36,1.77-3.36,4Z"/><path class="cls-1" d="M573.13,326.19v11.88h-2.9V326.19h-2.67v-2.55h2.67v-2.43a4.57,4.57,0,0,1,4.73-4.95,3.64,3.64,0,0,1,1.68.3v2.52a3.23,3.23,0,0,0-1.22-.18,2.17,2.17,0,0,0-2.29,2.46v2.28h3.48v2.55Z"/><path class="cls-1" d="M587.56,326.49a8.8,8.8,0,0,0-1.23-.09c-2.37,0-4,1.26-4,4.44v7.23h-2.82V323.64h2.76v2.52a4.52,4.52,0,0,1,4.32-2.76,5.31,5.31,0,0,1,.93.09Z"/><path class="cls-1" d="M593.86,329.82l3.9-.57c.87-.12,1.11-.57,1.11-1.08,0-1.41-.93-2.58-3.12-2.58a3.06,3.06,0,0,0-3.27,2.91l-2.7-.63c.3-2.76,2.79-4.68,5.91-4.68,4.32,0,6,2.46,6,5.28v7.23a13.57,13.57,0,0,0,.18,2.37h-2.76a10.56,10.56,0,0,1-.15-1.95,5.26,5.26,0,0,1-4.65,2.4c-2.94,0-4.83-2-4.83-4.32C589.48,331.62,591.37,330.18,593.86,329.82Zm5,2.07v-.66l-4.41.66a2.16,2.16,0,0,0-2.1,2.16,2.19,2.19,0,0,0,2.34,2.1C597,336.15,598.87,335,598.87,331.89Z"/><path class="cls-1" d="M607.54,333.42a3.08,3.08,0,0,0,3.36,2.7c1.59,0,2.46-.9,2.46-1.92s-.66-1.59-1.86-1.86L609,331.8a4.1,4.1,0,0,1-3.6-4.05c0-2.46,2.31-4.56,5.13-4.56,4,0,5.19,2.58,5.49,3.87l-2.49.93a2.8,2.8,0,0,0-3-2.4,2.18,2.18,0,0,0-2.4,1.92c0,.87.54,1.5,1.65,1.74l2.34.51c2.61.57,4,2.16,4,4.29s-1.71,4.47-5.28,4.47c-4,0-5.64-2.55-5.88-4.2Z"/><path class="cls-1" d="M623.71,323.64h3.12v2.55h-3.12v7.5c0,1.32.54,2,2,2a5.71,5.71,0,0,0,1.11-.12V338a6.17,6.17,0,0,1-1.92.27,3.75,3.75,0,0,1-4-4.11v-7.92h-2.76v-2.55h.78a2,2,0,0,0,2.22-2.22v-2.34h2.58Z"/><path class="cls-1" d="M638.2,326.49a8.8,8.8,0,0,0-1.23-.09c-2.37,0-4,1.26-4,4.44v7.23h-2.82V323.64H633v2.52a4.52,4.52,0,0,1,4.32-2.76,5.31,5.31,0,0,1,.93.09Z"/><path class="cls-1" d="M646.33,338.52c-3.36,0-5.4-2.52-5.4-5.79v-9.09h2.82v8.67c0,2,.9,3.72,3.27,3.72s3.42-1.5,3.42-3.69v-8.7h2.82V335.4a24.28,24.28,0,0,0,.15,2.67h-2.7a12.77,12.77,0,0,1-.12-1.74A4.71,4.71,0,0,1,646.33,338.52Z"/><path class="cls-1" d="M664.63,329.73l6.27,8.34h-3.54l-4.71-6.36-2,2v4.35h-2.79V316.35h2.79V330l6.24-6.39h3.9Z"/><path class="cls-1" d="M677.56,323.64h3.12v2.55h-3.12v7.5c0,1.32.54,2,2,2a5.71,5.71,0,0,0,1.11-.12V338a6.17,6.17,0,0,1-1.92.27,3.75,3.75,0,0,1-4-4.11v-7.92H672v-2.55h.78a2,2,0,0,0,2.22-2.22v-2.34h2.58Z"/><path class="cls-1" d="M689.29,338.52c-3.36,0-5.4-2.52-5.4-5.79v-9.09h2.82v8.67c0,2,.9,3.72,3.27,3.72s3.42-1.5,3.42-3.69v-8.7h2.82V335.4a24.28,24.28,0,0,0,.15,2.67h-2.7a12.77,12.77,0,0,1-.12-1.74A4.71,4.71,0,0,1,689.29,338.52Z"/><path class="cls-1" d="M708.82,326.49a8.8,8.8,0,0,0-1.23-.09c-2.37,0-4,1.26-4,4.44v7.23h-2.82V323.64h2.76v2.52a4.52,4.52,0,0,1,4.32-2.76,5.31,5.31,0,0,1,.93.09Z"/><path class="cls-1" d="M724.21,334a6.54,6.54,0,0,1-6.48,4.56c-3.87,0-7.26-2.82-7.26-7.71,0-4.53,3.27-7.62,6.9-7.62,4.44,0,6.93,3.06,6.93,7.56a6.34,6.34,0,0,1-.06.9H713.38a4.28,4.28,0,0,0,4.35,4.38,3.93,3.93,0,0,0,4-2.91Zm-2.85-4.59a3.64,3.64,0,0,0-4-3.69,3.88,3.88,0,0,0-3.93,3.69Z"/><path class="cls-1" d="M730.66,338.07h-2.82V323.64h2.76v2.07a4.94,4.94,0,0,1,4.44-2.49c3.45,0,5.16,2.49,5.16,5.7v9.15h-2.82V329.4c0-2-.84-3.63-3.36-3.63-2.22,0-3.36,1.77-3.36,4Z"/><path class="cls-1" d="M384.89,280.4a11.09,11.09,0,1,1-10.68,11.07A10.6,10.6,0,0,1,384.89,280.4Zm0,19.47c4,0,7.68-2.85,7.68-8.4s-3.72-8.37-7.68-8.37-7.68,2.82-7.68,8.37S380.93,299.87,384.89,299.87Z"/><path class="cls-1" d="M399.11,307.82V287.69h2.73v2.25a5.32,5.32,0,0,1,4.83-2.58c4.32,0,6.63,3.33,6.63,7.53s-2.49,7.62-6.72,7.62a5.37,5.37,0,0,1-4.68-2.34v7.65Zm7.05-18c-2.58,0-4.29,2.16-4.29,5s1.71,5.1,4.29,5.1,4.26-2.13,4.26-5.1S408.8,289.85,406.16,289.85Z"/><path class="cls-1" d="M429.71,298a6.54,6.54,0,0,1-6.48,4.56c-3.87,0-7.26-2.82-7.26-7.71,0-4.53,3.27-7.62,6.9-7.62,4.44,0,6.93,3.06,6.93,7.56a6.34,6.34,0,0,1-.06.9H418.88a4.28,4.28,0,0,0,4.35,4.38,3.93,3.93,0,0,0,4-2.91Zm-2.85-4.59a3.64,3.64,0,0,0-4-3.69,3.88,3.88,0,0,0-3.93,3.69Z"/><path class="cls-1" d="M436.16,302.12h-2.82V287.69h2.76v2.07a4.94,4.94,0,0,1,4.44-2.49c3.45,0,5.16,2.49,5.16,5.7v9.15h-2.82v-8.67c0-2-.84-3.63-3.36-3.63-2.22,0-3.36,1.77-3.36,4Z"/><path class="cls-1" d="M449.84,294.74v-2.46H458v2.46Z"/><path class="cls-1" d="M473.27,286.61a4.32,4.32,0,0,0-4.5-3.63c-2.4,0-4.11,1.56-4.11,3.54a3.08,3.08,0,0,0,2.73,3.09l3.18.69c3.54.78,5.52,3,5.52,6,0,3.3-2.82,6.3-7.35,6.3-5.13,0-7.56-3.3-7.95-6.33l2.82-.9a4.83,4.83,0,0,0,5.1,4.56c2.94,0,4.38-1.53,4.38-3.39,0-1.53-1-2.85-3.18-3.3l-3-.66c-3-.66-5.19-2.64-5.19-5.82,0-3.33,3.09-6.33,7-6.33,4.8,0,6.72,3,7.2,5.28Z"/><path class="cls-1" d="M493.61,294.89c0,4.41-3.06,7.68-7.38,7.68s-7.38-3.27-7.38-7.68a7.38,7.38,0,1,1,14.76,0Zm-2.88,0c0-3.33-2.1-5.13-4.5-5.13s-4.5,1.8-4.5,5.13,2.1,5.16,4.5,5.16S490.73,298.25,490.73,294.89Z"/><path class="cls-1" d="M502.46,302.57c-3.36,0-5.4-2.52-5.4-5.79v-9.09h2.82v8.67c0,2,.9,3.72,3.27,3.72s3.42-1.5,3.42-3.69v-8.7h2.82v11.76a24.28,24.28,0,0,0,.15,2.67h-2.7a12.77,12.77,0,0,1-.12-1.74A4.71,4.71,0,0,1,502.46,302.57Z"/><path class="cls-1" d="M522,290.54a8.8,8.8,0,0,0-1.23-.09c-2.37,0-4,1.26-4,4.44v7.23H514V287.69h2.76v2.52a4.52,4.52,0,0,1,4.32-2.76,5.31,5.31,0,0,1,.93.09Z"/><path class="cls-1" d="M526.52,294.89c0,3.3,2.07,5.07,4.41,5.07a3.92,3.92,0,0,0,4-3l2.49,1.08a6.63,6.63,0,0,1-6.51,4.5c-4.2,0-7.29-3.3-7.29-7.68s3.15-7.65,7.26-7.65a6.28,6.28,0,0,1,6.42,4.59l-2.55,1.08a3.78,3.78,0,0,0-3.87-3.06C528.62,289.85,526.52,291.53,526.52,294.89Z"/><path class="cls-1" d="M553.55,298a6.54,6.54,0,0,1-6.48,4.56c-3.87,0-7.26-2.82-7.26-7.71,0-4.53,3.27-7.62,6.9-7.62,4.44,0,6.93,3.06,6.93,7.56a6.34,6.34,0,0,1-.06.9H542.72a4.28,4.28,0,0,0,4.35,4.38,3.93,3.93,0,0,0,4-2.91Zm-2.85-4.59a3.64,3.64,0,0,0-4-3.69,3.88,3.88,0,0,0-3.93,3.69Z"/><path class="cls-1" d="M556.91,294.74v-2.46H565v2.46Z"/><path class="cls-1" d="M582.32,280.85h3.09l-8.19,21.27h-2.91l-8-21.27h3.12l6.42,17.49Z"/><path class="cls-1" d="M598.94,298a6.54,6.54,0,0,1-6.48,4.56c-3.87,0-7.26-2.82-7.26-7.71,0-4.53,3.27-7.62,6.9-7.62,4.44,0,6.93,3.06,6.93,7.56a6.34,6.34,0,0,1-.06.9H588.11a4.28,4.28,0,0,0,4.35,4.38,3.93,3.93,0,0,0,4-2.91Zm-2.85-4.59a3.64,3.64,0,0,0-4-3.69,3.88,3.88,0,0,0-3.93,3.69Z"/><path class="cls-1" d="M610.58,290.54a8.8,8.8,0,0,0-1.23-.09c-2.37,0-4,1.26-4,4.44v7.23h-2.82V287.69h2.76v2.52a4.52,4.52,0,0,1,4.32-2.76,5.31,5.31,0,0,1,.93.09Z"/><path class="cls-1" d="M625,287.69l3.75,10.86,3.18-10.86h3l-4.68,14.43h-2.91l-3.84-11-3.75,11h-3L612,287.69h3.09l3.24,10.86L622,287.69Z"/><path class="cls-1" d="M641.06,293.87l3.9-.57c.87-.12,1.11-.57,1.11-1.08,0-1.41-.93-2.58-3.12-2.58a3.06,3.06,0,0,0-3.27,2.91l-2.7-.63c.3-2.76,2.79-4.68,5.91-4.68,4.32,0,6,2.46,6,5.28v7.23a13.57,13.57,0,0,0,.18,2.37h-2.76a10.56,10.56,0,0,1-.15-1.95,5.26,5.26,0,0,1-4.65,2.4c-2.94,0-4.83-2-4.83-4.32C636.68,295.67,638.57,294.23,641.06,293.87Zm5,2.07v-.66l-4.41.66a2.16,2.16,0,0,0-2.1,2.16,2.19,2.19,0,0,0,2.34,2.1C644.21,300.2,646.07,299.09,646.07,295.94Z"/><path class="cls-1" d="M653.33,302.12V280.4h2.82v21.72Z"/><path class="cls-1" d="M664.64,287.69h3.12v2.55h-3.12v7.5c0,1.32.54,2,2,2a5.71,5.71,0,0,0,1.11-.12V302a6.17,6.17,0,0,1-1.92.27,3.75,3.75,0,0,1-4-4.11v-7.92h-2.76v-2.55h.78a2,2,0,0,0,2.22-2.22v-2.34h2.58Z"/><path class="cls-1" d="M676.37,302.57c-3.36,0-5.4-2.52-5.4-5.79v-9.09h2.82v8.67c0,2,.9,3.72,3.27,3.72s3.42-1.5,3.42-3.69v-8.7h2.82v11.76a24.28,24.28,0,0,0,.15,2.67h-2.7a12.77,12.77,0,0,1-.12-1.74A4.71,4.71,0,0,1,676.37,302.57Z"/><path class="cls-1" d="M690.71,302.12h-2.82V287.69h2.76v2.07a4.94,4.94,0,0,1,4.44-2.49c3.45,0,5.16,2.49,5.16,5.7v9.15h-2.82v-8.67c0-2-.84-3.63-3.36-3.63-2.22,0-3.36,1.77-3.36,4Z"/><path class="cls-1" d="M706.43,302.27a3.84,3.84,0,0,0,3.93,3.54c3,0,4.41-1.56,4.41-4.68v-2.07a4.81,4.81,0,0,1-4.41,2.37c-3.84,0-6.63-2.91-6.63-7,0-3.9,2.67-7,6.63-7,2.22,0,3.72.84,4.43,2.28v-2h2.8V301c0,3.66-1.8,7.23-7.23,7.23-3.6,0-6.3-2.28-6.66-5.37Zm8.45-7.83c0-2.79-1.67-4.62-4.1-4.62s-4.17,1.83-4.17,4.62,1.62,4.62,4.17,4.62S714.88,297.23,714.88,294.44Z"/><path class="cls-1" d="M736,302.12h-2.85l-5.85-14.43h3.18l4.11,11.13,4.13-11.13h3Z"/><path class="cls-1" d="M758.09,294.89c0,4.41-3.06,7.68-7.38,7.68s-7.38-3.27-7.38-7.68a7.38,7.38,0,1,1,14.76,0Zm-2.88,0c0-3.33-2.1-5.13-4.5-5.13s-4.5,1.8-4.5,5.13,2.1,5.16,4.5,5.16S755.21,298.25,755.21,294.89Z"/><path class="cls-1" d="M764.5,302.12h-2.82V287.69h2.76v2.07a5,5,0,0,1,4.44-2.49c3.46,0,5.16,2.49,5.16,5.7v9.15h-2.82v-8.67c0-2-.84-3.63-3.36-3.63-2.22,0-3.36,1.77-3.36,4Z"/><path class="cls-1" d="M388.85,330.84c0,4.41-3.06,7.68-7.38,7.68s-7.38-3.27-7.38-7.68a7.38,7.38,0,1,1,14.76,0ZM378.62,317.7a1.75,1.75,0,0,1,1.77,1.74,1.73,1.73,0,0,1-1.77,1.74,1.7,1.7,0,0,1-1.71-1.74A1.72,1.72,0,0,1,378.62,317.7ZM386,330.84c0-3.33-2.1-5.13-4.5-5.13s-4.5,1.8-4.5,5.13,2.1,5.16,4.5,5.16S386,334.2,386,330.84Zm-1.71-13.14a1.74,1.74,0,0,1,1.74,1.74,1.72,1.72,0,0,1-1.74,1.74,1.7,1.7,0,0,1-1.74-1.74A1.72,1.72,0,0,1,384.26,317.7Z"/><path class="cls-1" d="M405.74,321.36v2.28h3.48v2.55h-3.48v11.88h-2.91V326.19h-6.57v11.88h-2.91V326.19h-2.67v-2.55h2.67v-2.43a4.58,4.58,0,0,1,4.74-4.95,3.64,3.64,0,0,1,1.68.3v2.52a3.26,3.26,0,0,0-1.23-.18,2.16,2.16,0,0,0-2.28,2.46v2.28h6.57v-2.43a4.58,4.58,0,0,1,4.74-4.95,3.64,3.64,0,0,1,1.68.3v2.52a3.26,3.26,0,0,0-1.23-.18A2.16,2.16,0,0,0,405.74,321.36Z"/><path class="cls-1" d="M424.64,334a6.54,6.54,0,0,1-6.48,4.56c-3.87,0-7.26-2.82-7.26-7.71,0-4.53,3.27-7.62,6.9-7.62,4.44,0,6.93,3.06,6.93,7.56a6.34,6.34,0,0,1-.06.9H413.81a4.28,4.28,0,0,0,4.35,4.38,3.93,3.93,0,0,0,4-2.91Zm-2.85-4.59a3.64,3.64,0,0,0-4-3.69,3.88,3.88,0,0,0-3.93,3.69Z"/><path class="cls-1" d="M431.09,338.07h-2.82V323.64H431v2.07a4.94,4.94,0,0,1,4.44-2.49c3.45,0,5.16,2.49,5.16,5.7v9.15h-2.82V329.4c0-2-.84-3.63-3.36-3.63-2.22,0-3.36,1.77-3.36,4Z"/><path class="cls-1" d="M448.85,323.64H452v2.55h-3.12v7.5c0,1.32.54,2,2,2a5.71,5.71,0,0,0,1.11-.12V338a6.17,6.17,0,0,1-1.92.27,3.75,3.75,0,0,1-4-4.11v-7.92h-2.76v-2.55h.78a2,2,0,0,0,2.22-2.22v-2.34h2.58Z"/><path class="cls-1" d="M455.33,338.07V316.35h2.82v21.72Z"/><path class="cls-1" d="M464.09,316.14a2,2,0,1,1-2,2A2,2,0,0,1,464.09,316.14Zm-1.38,21.93V323.64h2.79v14.43Z"/><path class="cls-1" d="M472,330.84c0,3.3,2.07,5.07,4.41,5.07a3.92,3.92,0,0,0,4-3L482.9,334a6.63,6.63,0,0,1-6.51,4.5c-4.2,0-7.29-3.3-7.29-7.68s3.15-7.65,7.26-7.65a6.28,6.28,0,0,1,6.42,4.59l-2.55,1.08a3.78,3.78,0,0,0-3.87-3.06C474.08,325.8,472,327.48,472,330.84Z"/><path class="cls-1" d="M489.05,338.07h-2.82V316.35h2.82v9a5.1,5.1,0,0,1,4.38-2.1c3.45,0,5.16,2.49,5.16,5.7v9.15h-2.82V329.4c0-2-.84-3.63-3.36-3.63-2.16,0-3.3,1.68-3.36,3.81Z"/><path class="cls-1" d="M515.78,334a6.54,6.54,0,0,1-6.48,4.56c-3.87,0-7.26-2.82-7.26-7.71,0-4.53,3.27-7.62,6.9-7.62,4.44,0,6.93,3.06,6.93,7.56a6.34,6.34,0,0,1-.06.9H505A4.28,4.28,0,0,0,509.3,336a3.93,3.93,0,0,0,4.05-2.91Zm-2.85-4.59a3.64,3.64,0,0,0-4-3.69,3.88,3.88,0,0,0-3.93,3.69Z"/><path class="cls-1" d="M522.23,338.07h-2.82V323.64h2.76v2.07a4.94,4.94,0,0,1,4.44-2.49c3.45,0,5.16,2.49,5.16,5.7v9.15H529V329.4c0-2-.84-3.63-3.36-3.63-2.22,0-3.36,1.77-3.36,4Z"/><path class="cls-1" d="M544.31,338.07V316.8h3v21.27Z"/><path class="cls-1" d="M555.26,338.07h-2.82V323.64h2.76v2.07a4.94,4.94,0,0,1,4.44-2.49c3.45,0,5.15,2.49,5.15,5.7v9.15H562V329.4c0-2-.84-3.63-3.36-3.63-2.22,0-3.36,1.77-3.36,4Z"/><path class="cls-1" d="M573.13,326.19v11.88h-2.9V326.19h-2.67v-2.55h2.67v-2.43a4.57,4.57,0,0,1,4.73-4.95,3.64,3.64,0,0,1,1.68.3v2.52a3.23,3.23,0,0,0-1.22-.18,2.17,2.17,0,0,0-2.29,2.46v2.28h3.48v2.55Z"/><path class="cls-1" d="M587.56,326.49a8.8,8.8,0,0,0-1.23-.09c-2.37,0-4,1.26-4,4.44v7.23h-2.82V323.64h2.76v2.52a4.52,4.52,0,0,1,4.32-2.76,5.31,5.31,0,0,1,.93.09Z"/><path class="cls-1" d="M593.86,329.82l3.9-.57c.87-.12,1.11-.57,1.11-1.08,0-1.41-.93-2.58-3.12-2.58a3.06,3.06,0,0,0-3.27,2.91l-2.7-.63c.3-2.76,2.79-4.68,5.91-4.68,4.32,0,6,2.46,6,5.28v7.23a13.57,13.57,0,0,0,.18,2.37h-2.76a10.56,10.56,0,0,1-.15-1.95,5.26,5.26,0,0,1-4.65,2.4c-2.94,0-4.83-2-4.83-4.32C589.48,331.62,591.37,330.18,593.86,329.82Zm5,2.07v-.66l-4.41.66a2.16,2.16,0,0,0-2.1,2.16,2.19,2.19,0,0,0,2.34,2.1C597,336.15,598.87,335,598.87,331.89Z"/><path class="cls-1" d="M607.54,333.42a3.08,3.08,0,0,0,3.36,2.7c1.59,0,2.46-.9,2.46-1.92s-.66-1.59-1.86-1.86L609,331.8a4.1,4.1,0,0,1-3.6-4.05c0-2.46,2.31-4.56,5.13-4.56,4,0,5.19,2.58,5.49,3.87l-2.49.93a2.8,2.8,0,0,0-3-2.4,2.18,2.18,0,0,0-2.4,1.92c0,.87.54,1.5,1.65,1.74l2.34.51c2.61.57,4,2.16,4,4.29s-1.71,4.47-5.28,4.47c-4,0-5.64-2.55-5.88-4.2Z"/><path class="cls-1" d="M623.71,323.64h3.12v2.55h-3.12v7.5c0,1.32.54,2,2,2a5.71,5.71,0,0,0,1.11-.12V338a6.17,6.17,0,0,1-1.92.27,3.75,3.75,0,0,1-4-4.11v-7.92h-2.76v-2.55h.78a2,2,0,0,0,2.22-2.22v-2.34h2.58Z"/><path class="cls-1" d="M638.2,326.49a8.8,8.8,0,0,0-1.23-.09c-2.37,0-4,1.26-4,4.44v7.23h-2.82V323.64H633v2.52a4.52,4.52,0,0,1,4.32-2.76,5.31,5.31,0,0,1,.93.09Z"/><path class="cls-1" d="M646.33,338.52c-3.36,0-5.4-2.52-5.4-5.79v-9.09h2.82v8.67c0,2,.9,3.72,3.27,3.72s3.42-1.5,3.42-3.69v-8.7h2.82V335.4a24.28,24.28,0,0,0,.15,2.67h-2.7a12.77,12.77,0,0,1-.12-1.74A4.71,4.71,0,0,1,646.33,338.52Z"/><path class="cls-1" d="M664.63,329.73l6.27,8.34h-3.54l-4.71-6.36-2,2v4.35h-2.79V316.35h2.79V330l6.24-6.39h3.9Z"/><path class="cls-1" d="M677.56,323.64h3.12v2.55h-3.12v7.5c0,1.32.54,2,2,2a5.71,5.71,0,0,0,1.11-.12V338a6.17,6.17,0,0,1-1.92.27,3.75,3.75,0,0,1-4-4.11v-7.92H672v-2.55h.78a2,2,0,0,0,2.22-2.22v-2.34h2.58Z"/><path class="cls-1" d="M689.29,338.52c-3.36,0-5.4-2.52-5.4-5.79v-9.09h2.82v8.67c0,2,.9,3.72,3.27,3.72s3.42-1.5,3.42-3.69v-8.7h2.82V335.4a24.28,24.28,0,0,0,.15,2.67h-2.7a12.77,12.77,0,0,1-.12-1.74A4.71,4.71,0,0,1,689.29,338.52Z"/><path class="cls-1" d="M708.82,326.49a8.8,8.8,0,0,0-1.23-.09c-2.37,0-4,1.26-4,4.44v7.23h-2.82V323.64h2.76v2.52a4.52,4.52,0,0,1,4.32-2.76,5.31,5.31,0,0,1,.93.09Z"/><path class="cls-1" d="M724.21,334a6.54,6.54,0,0,1-6.48,4.56c-3.87,0-7.26-2.82-7.26-7.71,0-4.53,3.27-7.62,6.9-7.62,4.44,0,6.93,3.06,6.93,7.56a6.34,6.34,0,0,1-.06.9H713.38a4.28,4.28,0,0,0,4.35,4.38,3.93,3.93,0,0,0,4-2.91Zm-2.85-4.59a3.64,3.64,0,0,0-4-3.69,3.88,3.88,0,0,0-3.93,3.69Z"/><path class="cls-1" d="M730.66,338.07h-2.82V323.64h2.76v2.07a4.94,4.94,0,0,1,4.44-2.49c3.45,0,5.16,2.49,5.16,5.7v9.15h-2.82V329.4c0-2-.84-3.63-3.36-3.63-2.22,0-3.36,1.77-3.36,4Z"/><polygon points="373.53 186.75 401.6 186.75 401.6 258.59 421.94 258.59 421.94 186.75 450.14 186.75 450.14 167.31 373.53 167.31 373.53 186.75"/><polygon points="482.83 221.77 516.83 221.77 516.83 203.87 482.83 203.87 482.83 186.49 520.3 186.49 520.3 167.31 462.49 167.31 462.49 258.59 520.43 258.59 520.43 239.28 482.83 239.28 482.83 221.77"/><polygon class="cls-1" points="618.02 167.31 591.24 167.31 537.55 229.08 537.55 256.72 618.02 167.31"/><polygon points="571.68 227.77 592.78 258.59 618.15 258.59 585.97 211.89 571.68 227.77"/><polygon points="557.89 167.31 537.55 167.31 537.55 219.94 557.89 196.53 557.89 167.31"/><path d="M665.52,204.26l-12.23-2.32c-6.31-1.16-9-4.38-9-8.75,0-5,4.89-9.79,12.49-9.79,11.07,0,14.54,7.21,15.19,11.46l18.28-5.15c-1.93-10.69-10.56-24.33-33.35-24.33-17.51,0-32.7,12.1-32.7,29.35,0,13.52,9.4,23.82,24.85,26.78l12.49,2.32c6.05,1.16,9.78,4.51,9.78,9.14,0,5.67-4.89,9.53-12.87,9.53-12.49,0-18.15-7.34-18.93-15.71l-18.67,4.51c1.29,12.87,12.11,29.22,37.34,29.22,21.76,0,33.73-14.54,33.73-28.84C691.91,218.68,682.9,207.48,665.52,204.26Z"/><rect x="705.81" y="167.31" width="20.6" height="91.28"/><circle class="cls-1" cx="238.02" cy="251.76" r="95"/><polygon class="cls-2" points="285.23 198.13 253.76 198.13 190.67 270.71 190.67 303.19 285.23 198.13"/><polygon class="cls-2" points="230.78 269.17 255.57 305.39 285.38 305.39 247.56 250.52 230.78 269.17"/><polygon class="cls-2" points="214.57 198.13 190.67 198.13 190.67 259.97 214.57 232.47 214.57 198.13"/></svg>