<svg id="Calque_1" data-name="Calque 1" xmlns="http://www.w3.org/2000/svg" viewBox="0 0 895.14 503.52"><defs><style>.cls-1{fill:#968b83;}.cls-2{fill:#fff;}</style></defs><path class="cls-1" d="M261.07,368.8a11.09,11.09,0,1,1-10.68,11.07A10.6,10.6,0,0,1,261.07,368.8Zm0,19.47c4,0,7.68-2.85,7.68-8.4s-3.72-8.37-7.68-8.37-7.68,2.82-7.68,8.37S257.11,388.27,261.07,388.27Z"/><path class="cls-1" d="M275.29,396.22V376.09H278v2.25a5.32,5.32,0,0,1,4.83-2.58c4.32,0,6.63,3.33,6.63,7.53s-2.49,7.62-6.72,7.62a5.37,5.37,0,0,1-4.68-2.34v7.65Zm7-18c-2.58,0-4.29,2.16-4.29,5s1.71,5.1,4.29,5.1,4.26-2.13,4.26-5.1S285,378.25,282.34,378.25Z"/><path class="cls-1" d="M305.89,386.41a6.54,6.54,0,0,1-6.48,4.56c-3.87,0-7.26-2.82-7.26-7.71,0-4.53,3.27-7.62,6.9-7.62,4.44,0,6.93,3.06,6.93,7.56a6.34,6.34,0,0,1-.06.9H295.06a4.28,4.28,0,0,0,4.35,4.38,3.93,3.93,0,0,0,4-2.91ZM303,381.82a3.64,3.64,0,0,0-4-3.69,3.88,3.88,0,0,0-3.93,3.69Z"/><path class="cls-1" d="M312.34,390.52h-2.82V376.09h2.76v2.07a4.94,4.94,0,0,1,4.44-2.49c3.45,0,5.16,2.49,5.16,5.7v9.15h-2.82v-8.67c0-2-.84-3.63-3.36-3.63-2.22,0-3.36,1.77-3.36,4Z"/><path class="cls-1" d="M326,383.14v-2.46h8.13v2.46Z"/><path class="cls-1" d="M349.45,375a4.32,4.32,0,0,0-4.5-3.63c-2.4,0-4.11,1.56-4.11,3.54a3.08,3.08,0,0,0,2.73,3.09l3.18.69c3.54.78,5.52,3,5.52,6,0,3.3-2.82,6.3-7.35,6.3-5.13,0-7.56-3.3-7.95-6.33l2.82-.9a4.83,4.83,0,0,0,5.1,4.56c2.94,0,4.38-1.53,4.38-3.39,0-1.53-1-2.85-3.18-3.3l-3-.66c-3-.66-5.19-2.64-5.19-5.82s3.09-6.33,7-6.33c4.8,0,6.72,3,7.2,5.28Z"/><path class="cls-1" d="M369.79,383.29c0,4.41-3.06,7.68-7.38,7.68S355,387.7,355,383.29a7.38,7.38,0,1,1,14.76,0Zm-2.88,0c0-3.33-2.1-5.13-4.5-5.13s-4.5,1.8-4.5,5.13,2.1,5.16,4.5,5.16S366.91,386.65,366.91,383.29Z"/><path class="cls-1" d="M378.64,391c-3.36,0-5.4-2.52-5.4-5.79v-9.09h2.82v8.67c0,2,.9,3.72,3.27,3.72s3.42-1.5,3.42-3.69v-8.7h2.82v11.76a24.28,24.28,0,0,0,.15,2.67H383a12.77,12.77,0,0,1-.12-1.74A4.71,4.71,0,0,1,378.64,391Z"/><path class="cls-1" d="M398.17,378.94a8.8,8.8,0,0,0-1.23-.09c-2.37,0-4,1.26-4,4.44v7.23h-2.82V376.09h2.76v2.52a4.52,4.52,0,0,1,4.32-2.76,5.31,5.31,0,0,1,.93.09Z"/><path class="cls-1" d="M402.7,383.29c0,3.3,2.07,5.07,4.41,5.07a3.92,3.92,0,0,0,4-3l2.49,1.08a6.63,6.63,0,0,1-6.51,4.5c-4.2,0-7.29-3.3-7.29-7.68s3.15-7.65,7.26-7.65a6.28,6.28,0,0,1,6.42,4.59L411,381.31a3.78,3.78,0,0,0-3.87-3.06C404.8,378.25,402.7,379.93,402.7,383.29Z"/><path class="cls-1" d="M429.73,386.41a6.54,6.54,0,0,1-6.48,4.56c-3.87,0-7.26-2.82-7.26-7.71,0-4.53,3.27-7.62,6.9-7.62,4.44,0,6.93,3.06,6.93,7.56a6.34,6.34,0,0,1-.06.9H418.9a4.28,4.28,0,0,0,4.35,4.38,3.93,3.93,0,0,0,4.05-2.91Zm-2.85-4.59a3.64,3.64,0,0,0-4-3.69,3.88,3.88,0,0,0-3.93,3.69Z"/><path class="cls-1" d="M433.09,383.14v-2.46h8.13v2.46Z"/><path class="cls-1" d="M458.5,369.25h3.09l-8.19,21.27h-2.91l-8-21.27h3.12L452,386.74Z"/><path class="cls-1" d="M475.12,386.41a6.54,6.54,0,0,1-6.48,4.56c-3.87,0-7.26-2.82-7.26-7.71,0-4.53,3.27-7.62,6.9-7.62,4.44,0,6.93,3.06,6.93,7.56a6.34,6.34,0,0,1-.06.9H464.29a4.28,4.28,0,0,0,4.35,4.38,3.93,3.93,0,0,0,4.05-2.91Zm-2.85-4.59a3.64,3.64,0,0,0-4-3.69,3.88,3.88,0,0,0-3.93,3.69Z"/><path class="cls-1" d="M486.76,378.94a8.8,8.8,0,0,0-1.23-.09c-2.37,0-4,1.26-4,4.44v7.23h-2.82V376.09h2.76v2.52a4.52,4.52,0,0,1,4.32-2.76,5.31,5.31,0,0,1,.93.09Z"/><path class="cls-1" d="M501.13,376.09,504.87,387l3.19-10.86h3l-4.67,14.43h-2.91l-3.84-11-3.75,11h-3l-4.74-14.43h3.09L494.47,387l3.75-10.86Z"/><path class="cls-1" d="M517.24,382.27l3.9-.57c.87-.12,1.11-.57,1.11-1.08,0-1.41-.93-2.58-3.12-2.58a3.06,3.06,0,0,0-3.27,2.91l-2.7-.63c.3-2.76,2.79-4.68,5.91-4.68,4.32,0,6,2.46,6,5.28v7.23a13.57,13.57,0,0,0,.18,2.37h-2.76a10.56,10.56,0,0,1-.15-1.95,5.26,5.26,0,0,1-4.65,2.4c-2.94,0-4.83-2-4.83-4.32C512.86,384.07,514.75,382.63,517.24,382.27Zm5,2.07v-.66l-4.41.66a2.16,2.16,0,0,0-2.1,2.16,2.19,2.19,0,0,0,2.34,2.1C520.39,388.6,522.25,387.49,522.25,384.34Z"/><path class="cls-1" d="M529.51,390.52V368.8h2.82v21.72Z"/><path class="cls-1" d="M540.82,376.09h3.11v2.55h-3.11v7.5c0,1.32.53,2,2,2a5.6,5.6,0,0,0,1.1-.12v2.4a6,6,0,0,1-1.91.27,3.75,3.75,0,0,1-4-4.11v-7.92h-2.76v-2.55H536a2,2,0,0,0,2.22-2.22v-2.34h2.58Z"/><path class="cls-1" d="M552.54,391c-3.36,0-5.4-2.52-5.4-5.79v-9.09H550v8.67c0,2,.9,3.72,3.27,3.72s3.42-1.5,3.42-3.69v-8.7h2.82v11.76a24.28,24.28,0,0,0,.15,2.67h-2.7a12.77,12.77,0,0,1-.12-1.74A4.71,4.71,0,0,1,552.54,391Z"/><path class="cls-1" d="M566.88,390.52h-2.82V376.09h2.76v2.07a4.94,4.94,0,0,1,4.44-2.49c3.45,0,5.16,2.49,5.16,5.7v9.15H573.6v-8.67c0-2-.84-3.63-3.36-3.63-2.22,0-3.36,1.77-3.36,4Z"/><path class="cls-1" d="M582.6,390.67a3.84,3.84,0,0,0,3.93,3.54c3,0,4.41-1.56,4.41-4.68v-2.07a4.81,4.81,0,0,1-4.41,2.37c-3.84,0-6.63-2.91-6.63-7,0-3.9,2.67-7,6.63-7,2.22,0,3.72.84,4.44,2.28v-2h2.79v13.35c0,3.66-1.8,7.23-7.23,7.23-3.6,0-6.3-2.28-6.66-5.37Zm8.46-7.83c0-2.79-1.68-4.62-4.11-4.62s-4.17,1.83-4.17,4.62,1.62,4.62,4.17,4.62S591.06,385.63,591.06,382.84Z"/><path class="cls-1" d="M612.21,390.52h-2.85l-5.85-14.43h3.18l4.11,11.13,4.14-11.13h3Z"/><path class="cls-1" d="M634.26,383.29c0,4.41-3.06,7.68-7.38,7.68s-7.38-3.27-7.38-7.68a7.38,7.38,0,1,1,14.76,0Zm-2.88,0c0-3.33-2.1-5.13-4.5-5.13s-4.5,1.8-4.5,5.13,2.1,5.16,4.5,5.16S631.38,386.65,631.38,383.29Z"/><path class="cls-1" d="M640.68,390.52h-2.82V376.09h2.76v2.07a4.94,4.94,0,0,1,4.44-2.49c3.45,0,5.16,2.49,5.16,5.7v9.15H647.4v-8.67c0-2-.84-3.63-3.36-3.63-2.22,0-3.36,1.77-3.36,4Z"/><path class="cls-1" d="M265,419.25c0,4.41-3.06,7.68-7.38,7.68s-7.38-3.27-7.38-7.68a7.38,7.38,0,1,1,14.76,0ZM254.8,406.11a1.75,1.75,0,0,1,1.77,1.74,1.73,1.73,0,0,1-1.77,1.74,1.7,1.7,0,0,1-1.71-1.74A1.72,1.72,0,0,1,254.8,406.11Zm7.35,13.14c0-3.33-2.1-5.13-4.5-5.13s-4.5,1.8-4.5,5.13,2.1,5.16,4.5,5.16S262.15,422.61,262.15,419.25Zm-1.71-13.14a1.74,1.74,0,0,1,1.74,1.74,1.72,1.72,0,0,1-1.74,1.74,1.7,1.7,0,0,1-1.74-1.74A1.72,1.72,0,0,1,260.44,406.11Z"/><path class="cls-1" d="M281.92,409.77v2.28h3.48v2.55h-3.48v11.88H279V414.6h-6.57v11.88h-2.91V414.6h-2.67v-2.55h2.67v-2.43a4.58,4.58,0,0,1,4.74-4.95,3.64,3.64,0,0,1,1.68.3v2.52a3.26,3.26,0,0,0-1.23-.18,2.16,2.16,0,0,0-2.28,2.46v2.28H279v-2.43a4.58,4.58,0,0,1,4.74-4.95,3.64,3.64,0,0,1,1.68.3v2.52a3.26,3.26,0,0,0-1.23-.18A2.16,2.16,0,0,0,281.92,409.77Z"/><path class="cls-1" d="M300.82,422.37a6.54,6.54,0,0,1-6.48,4.56c-3.87,0-7.26-2.82-7.26-7.71,0-4.53,3.27-7.62,6.9-7.62,4.44,0,6.93,3.06,6.93,7.56a6.34,6.34,0,0,1-.06.9H290a4.28,4.28,0,0,0,4.35,4.38,3.93,3.93,0,0,0,4.05-2.91ZM298,417.78a3.64,3.64,0,0,0-4-3.69,3.88,3.88,0,0,0-3.93,3.69Z"/><path class="cls-1" d="M307.27,426.48h-2.82V412.05h2.76v2.07a4.94,4.94,0,0,1,4.44-2.49c3.45,0,5.16,2.49,5.16,5.7v9.15H314v-8.67c0-2-.84-3.63-3.36-3.63-2.22,0-3.36,1.77-3.36,4Z"/><path class="cls-1" d="M325,412.05h3.12v2.55H325v7.5c0,1.32.54,2,2,2a5.71,5.71,0,0,0,1.11-.12v2.4a6.17,6.17,0,0,1-1.92.27,3.75,3.75,0,0,1-4-4.11V414.6h-2.76v-2.55h.78a2,2,0,0,0,2.22-2.22v-2.34H325Z"/><path class="cls-1" d="M331.51,426.48V404.76h2.82v21.72Z"/><path class="cls-1" d="M340.27,404.55a2,2,0,1,1-2,2A2,2,0,0,1,340.27,404.55Zm-1.38,21.93V412.05h2.79v14.43Z"/><path class="cls-1" d="M348.16,419.25c0,3.3,2.07,5.07,4.41,5.07a3.92,3.92,0,0,0,4-3l2.49,1.08a6.63,6.63,0,0,1-6.51,4.5c-4.2,0-7.29-3.3-7.29-7.68s3.15-7.65,7.26-7.65a6.28,6.28,0,0,1,6.42,4.59l-2.55,1.08a3.78,3.78,0,0,0-3.87-3.06C350.26,414.21,348.16,415.89,348.16,419.25Z"/><path class="cls-1" d="M365.23,426.48h-2.82V404.76h2.82v9a5.1,5.1,0,0,1,4.38-2.1c3.45,0,5.16,2.49,5.16,5.7v9.15H372v-8.67c0-2-.84-3.63-3.36-3.63-2.16,0-3.3,1.68-3.36,3.81Z"/><path class="cls-1" d="M392,422.37a6.56,6.56,0,0,1-6.48,4.56c-3.87,0-7.26-2.82-7.26-7.71,0-4.53,3.27-7.62,6.9-7.62,4.44,0,6.92,3.06,6.92,7.56a6.34,6.34,0,0,1-.06.9H381.13a4.28,4.28,0,0,0,4.35,4.38,3.93,3.93,0,0,0,4-2.91Zm-2.86-4.59a3.63,3.63,0,0,0-4-3.69,3.88,3.88,0,0,0-3.92,3.69Z"/><path class="cls-1" d="M398.4,426.48h-2.82V412.05h2.76v2.07a4.94,4.94,0,0,1,4.44-2.49c3.45,0,5.16,2.49,5.16,5.7v9.15h-2.82v-8.67c0-2-.84-3.63-3.36-3.63-2.22,0-3.36,1.77-3.36,4Z"/><path class="cls-1" d="M420.48,426.48V405.21h3v21.27Z"/><path class="cls-1" d="M431.43,426.48h-2.82V412.05h2.76v2.07a4.94,4.94,0,0,1,4.44-2.49c3.45,0,5.16,2.49,5.16,5.7v9.15h-2.82v-8.67c0-2-.84-3.63-3.36-3.63-2.22,0-3.36,1.77-3.36,4Z"/><path class="cls-1" d="M449.31,414.6v11.88H446.4V414.6h-2.67v-2.55h2.67v-2.43a4.58,4.58,0,0,1,4.74-4.95,3.64,3.64,0,0,1,1.68.3v2.52a3.26,3.26,0,0,0-1.23-.18,2.16,2.16,0,0,0-2.28,2.46v2.28h3.48v2.55Z"/><path class="cls-1" d="M463.74,414.9a8.8,8.8,0,0,0-1.23-.09c-2.37,0-4,1.26-4,4.44v7.23h-2.82V412.05h2.76v2.52a4.52,4.52,0,0,1,4.32-2.76,5.31,5.31,0,0,1,.93.09Z"/><path class="cls-1" d="M470,418.23l3.9-.57c.87-.12,1.11-.57,1.11-1.08,0-1.41-.93-2.58-3.12-2.58a3.06,3.06,0,0,0-3.27,2.91l-2.7-.63c.3-2.76,2.79-4.68,5.91-4.68,4.32,0,6,2.46,6,5.28v7.23a13.57,13.57,0,0,0,.18,2.37h-2.76a10.56,10.56,0,0,1-.15-2,5.26,5.26,0,0,1-4.65,2.4c-2.94,0-4.83-2-4.83-4.32C465.66,420,467.55,418.59,470,418.23Zm5,2.07v-.66l-4.41.66a2.16,2.16,0,0,0-2.1,2.16,2.19,2.19,0,0,0,2.34,2.1C473.19,424.56,475.05,423.45,475.05,420.3Z"/><path class="cls-1" d="M483.72,421.83a3.08,3.08,0,0,0,3.36,2.7c1.59,0,2.46-.9,2.46-1.92s-.66-1.59-1.86-1.86l-2.46-.54a4.1,4.1,0,0,1-3.6-4c0-2.46,2.31-4.56,5.13-4.56,4,0,5.19,2.58,5.49,3.87l-2.49.93a2.8,2.8,0,0,0-3-2.4,2.18,2.18,0,0,0-2.4,1.92c0,.87.54,1.5,1.65,1.74l2.34.51c2.61.57,4,2.16,4,4.29s-1.71,4.47-5.28,4.47c-4,0-5.64-2.55-5.88-4.2Z"/><path class="cls-1" d="M499.89,412.05H503v2.55h-3.12v7.5c0,1.32.54,2,2,2A5.71,5.71,0,0,0,503,424v2.4a6.17,6.17,0,0,1-1.92.27,3.75,3.75,0,0,1-4-4.11V414.6h-2.76v-2.55h.78a2,2,0,0,0,2.22-2.22v-2.34h2.58Z"/><path class="cls-1" d="M514.38,414.9a8.8,8.8,0,0,0-1.23-.09c-2.37,0-4,1.26-4,4.44v7.23h-2.82V412.05h2.76v2.52a4.52,4.52,0,0,1,4.32-2.76,5.31,5.31,0,0,1,.93.09Z"/><path class="cls-1" d="M522.51,426.93c-3.36,0-5.4-2.52-5.4-5.79v-9.09h2.82v8.67c0,2,.9,3.72,3.27,3.72s3.42-1.5,3.42-3.69v-8.7h2.82v11.76a24.28,24.28,0,0,0,.15,2.67h-2.7a12.77,12.77,0,0,1-.12-1.74A4.71,4.71,0,0,1,522.51,426.93Z"/><path class="cls-1" d="M540.81,418.14l6.27,8.34h-3.54l-4.71-6.36-2,2v4.35H534V404.76h2.79v13.68l6.24-6.39H547Z"/><path class="cls-1" d="M553.74,412.05h3.12v2.55h-3.12v7.5c0,1.32.54,2,2,2a5.71,5.71,0,0,0,1.11-.12v2.4a6.17,6.17,0,0,1-1.92.27,3.75,3.75,0,0,1-4-4.11V414.6h-2.76v-2.55h.78a2,2,0,0,0,2.22-2.22v-2.34h2.58Z"/><path class="cls-1" d="M565.47,426.93c-3.36,0-5.4-2.52-5.4-5.79v-9.09h2.82v8.67c0,2,.9,3.72,3.27,3.72s3.42-1.5,3.42-3.69v-8.7h2.82v11.76a24.28,24.28,0,0,0,.15,2.67h-2.7a12.77,12.77,0,0,1-.12-1.74A4.71,4.71,0,0,1,565.47,426.93Z"/><path class="cls-1" d="M585,414.9a8.8,8.8,0,0,0-1.23-.09c-2.37,0-4,1.26-4,4.44v7.23H577V412.05h2.76v2.52a4.52,4.52,0,0,1,4.32-2.76,5.31,5.31,0,0,1,.93.09Z"/><path class="cls-1" d="M600.39,422.37a6.54,6.54,0,0,1-6.48,4.56c-3.87,0-7.26-2.82-7.26-7.71,0-4.53,3.27-7.62,6.9-7.62,4.44,0,6.93,3.06,6.93,7.56a6.34,6.34,0,0,1-.06.9H589.56a4.28,4.28,0,0,0,4.35,4.38,3.93,3.93,0,0,0,4.05-2.91Zm-2.85-4.59a3.64,3.64,0,0,0-4-3.69,3.88,3.88,0,0,0-3.93,3.69Z"/><path class="cls-1" d="M606.84,426.48H604V412.05h2.76v2.07a4.94,4.94,0,0,1,4.44-2.49c3.45,0,5.16,2.49,5.16,5.7v9.15h-2.82v-8.67c0-2-.84-3.63-3.36-3.63-2.22,0-3.36,1.77-3.36,4Z"/><path class="cls-1" d="M261.07,368.8a11.09,11.09,0,1,1-10.68,11.07A10.6,10.6,0,0,1,261.07,368.8Zm0,19.47c4,0,7.68-2.85,7.68-8.4s-3.72-8.37-7.68-8.37-7.68,2.82-7.68,8.37S257.11,388.27,261.07,388.27Z"/><path class="cls-1" d="M275.29,396.22V376.09H278v2.25a5.32,5.32,0,0,1,4.83-2.58c4.32,0,6.63,3.33,6.63,7.53s-2.49,7.62-6.72,7.62a5.37,5.37,0,0,1-4.68-2.34v7.65Zm7-18c-2.58,0-4.29,2.16-4.29,5s1.71,5.1,4.29,5.1,4.26-2.13,4.26-5.1S285,378.25,282.34,378.25Z"/><path class="cls-1" d="M305.89,386.41a6.54,6.54,0,0,1-6.48,4.56c-3.87,0-7.26-2.82-7.26-7.71,0-4.53,3.27-7.62,6.9-7.62,4.44,0,6.93,3.06,6.93,7.56a6.34,6.34,0,0,1-.06.9H295.06a4.28,4.28,0,0,0,4.35,4.38,3.93,3.93,0,0,0,4-2.91ZM303,381.82a3.64,3.64,0,0,0-4-3.69,3.88,3.88,0,0,0-3.93,3.69Z"/><path class="cls-1" d="M312.34,390.52h-2.82V376.09h2.76v2.07a4.94,4.94,0,0,1,4.44-2.49c3.45,0,5.16,2.49,5.16,5.7v9.15h-2.82v-8.67c0-2-.84-3.63-3.36-3.63-2.22,0-3.36,1.77-3.36,4Z"/><path class="cls-1" d="M326,383.14v-2.46h8.13v2.46Z"/><path class="cls-1" d="M349.45,375a4.32,4.32,0,0,0-4.5-3.63c-2.4,0-4.11,1.56-4.11,3.54a3.08,3.08,0,0,0,2.73,3.09l3.18.69c3.54.78,5.52,3,5.52,6,0,3.3-2.82,6.3-7.35,6.3-5.13,0-7.56-3.3-7.95-6.33l2.82-.9a4.83,4.83,0,0,0,5.1,4.56c2.94,0,4.38-1.53,4.38-3.39,0-1.53-1-2.85-3.18-3.3l-3-.66c-3-.66-5.19-2.64-5.19-5.82s3.09-6.33,7-6.33c4.8,0,6.72,3,7.2,5.28Z"/><path class="cls-1" d="M369.79,383.29c0,4.41-3.06,7.68-7.38,7.68S355,387.7,355,383.29a7.38,7.38,0,1,1,14.76,0Zm-2.88,0c0-3.33-2.1-5.13-4.5-5.13s-4.5,1.8-4.5,5.13,2.1,5.16,4.5,5.16S366.91,386.65,366.91,383.29Z"/><path class="cls-1" d="M378.64,391c-3.36,0-5.4-2.52-5.4-5.79v-9.09h2.82v8.67c0,2,.9,3.72,3.27,3.72s3.42-1.5,3.42-3.69v-8.7h2.82v11.76a24.28,24.28,0,0,0,.15,2.67H383a12.77,12.77,0,0,1-.12-1.74A4.71,4.71,0,0,1,378.64,391Z"/><path class="cls-1" d="M398.17,378.94a8.8,8.8,0,0,0-1.23-.09c-2.37,0-4,1.26-4,4.44v7.23h-2.82V376.09h2.76v2.52a4.52,4.52,0,0,1,4.32-2.76,5.31,5.31,0,0,1,.93.09Z"/><path class="cls-1" d="M402.7,383.29c0,3.3,2.07,5.07,4.41,5.07a3.92,3.92,0,0,0,4-3l2.49,1.08a6.63,6.63,0,0,1-6.51,4.5c-4.2,0-7.29-3.3-7.29-7.68s3.15-7.65,7.26-7.65a6.28,6.28,0,0,1,6.42,4.59L411,381.31a3.78,3.78,0,0,0-3.87-3.06C404.8,378.25,402.7,379.93,402.7,383.29Z"/><path class="cls-1" d="M429.73,386.41a6.54,6.54,0,0,1-6.48,4.56c-3.87,0-7.26-2.82-7.26-7.71,0-4.53,3.27-7.62,6.9-7.62,4.44,0,6.93,3.06,6.93,7.56a6.34,6.34,0,0,1-.06.9H418.9a4.28,4.28,0,0,0,4.35,4.38,3.93,3.93,0,0,0,4.05-2.91Zm-2.85-4.59a3.64,3.64,0,0,0-4-3.69,3.88,3.88,0,0,0-3.93,3.69Z"/><path class="cls-1" d="M433.09,383.14v-2.46h8.13v2.46Z"/><path class="cls-1" d="M458.5,369.25h3.09l-8.19,21.27h-2.91l-8-21.27h3.12L452,386.74Z"/><path class="cls-1" d="M475.12,386.41a6.54,6.54,0,0,1-6.48,4.56c-3.87,0-7.26-2.82-7.26-7.71,0-4.53,3.27-7.62,6.9-7.62,4.44,0,6.93,3.06,6.93,7.56a6.34,6.34,0,0,1-.06.9H464.29a4.28,4.28,0,0,0,4.35,4.38,3.93,3.93,0,0,0,4.05-2.91Zm-2.85-4.59a3.64,3.64,0,0,0-4-3.69,3.88,3.88,0,0,0-3.93,3.69Z"/><path class="cls-1" d="M486.76,378.94a8.8,8.8,0,0,0-1.23-.09c-2.37,0-4,1.26-4,4.44v7.23h-2.82V376.09h2.76v2.52a4.52,4.52,0,0,1,4.32-2.76,5.31,5.31,0,0,1,.93.09Z"/><path class="cls-1" d="M501.13,376.09,504.87,387l3.19-10.86h3l-4.67,14.43h-2.91l-3.84-11-3.75,11h-3l-4.74-14.43h3.09L494.47,387l3.75-10.86Z"/><path class="cls-1" d="M517.24,382.27l3.9-.57c.87-.12,1.11-.57,1.11-1.08,0-1.41-.93-2.58-3.12-2.58a3.06,3.06,0,0,0-3.27,2.91l-2.7-.63c.3-2.76,2.79-4.68,5.91-4.68,4.32,0,6,2.46,6,5.28v7.23a13.57,13.57,0,0,0,.18,2.37h-2.76a10.56,10.56,0,0,1-.15-1.95,5.26,5.26,0,0,1-4.65,2.4c-2.94,0-4.83-2-4.83-4.32C512.86,384.07,514.75,382.63,517.24,382.27Zm5,2.07v-.66l-4.41.66a2.16,2.16,0,0,0-2.1,2.16,2.19,2.19,0,0,0,2.34,2.1C520.39,388.6,522.25,387.49,522.25,384.34Z"/><path class="cls-1" d="M529.51,390.52V368.8h2.82v21.72Z"/><path class="cls-1" d="M540.82,376.09h3.11v2.55h-3.11v7.5c0,1.32.53,2,2,2a5.6,5.6,0,0,0,1.1-.12v2.4a6,6,0,0,1-1.91.27,3.75,3.75,0,0,1-4-4.11v-7.92h-2.76v-2.55H536a2,2,0,0,0,2.22-2.22v-2.34h2.58Z"/><path class="cls-1" d="M552.54,391c-3.36,0-5.4-2.52-5.4-5.79v-9.09H550v8.67c0,2,.9,3.72,3.27,3.72s3.42-1.5,3.42-3.69v-8.7h2.82v11.76a24.28,24.28,0,0,0,.15,2.67h-2.7a12.77,12.77,0,0,1-.12-1.74A4.71,4.71,0,0,1,552.54,391Z"/><path class="cls-1" d="M566.88,390.52h-2.82V376.09h2.76v2.07a4.94,4.94,0,0,1,4.44-2.49c3.45,0,5.16,2.49,5.16,5.7v9.15H573.6v-8.67c0-2-.84-3.63-3.36-3.63-2.22,0-3.36,1.77-3.36,4Z"/><path class="cls-1" d="M582.6,390.67a3.84,3.84,0,0,0,3.93,3.54c3,0,4.41-1.56,4.41-4.68v-2.07a4.81,4.81,0,0,1-4.41,2.37c-3.84,0-6.63-2.91-6.63-7,0-3.9,2.67-7,6.63-7,2.22,0,3.72.84,4.44,2.28v-2h2.79v13.35c0,3.66-1.8,7.23-7.23,7.23-3.6,0-6.3-2.28-6.66-5.37Zm8.46-7.83c0-2.79-1.68-4.62-4.11-4.62s-4.17,1.83-4.17,4.62,1.62,4.62,4.17,4.62S591.06,385.63,591.06,382.84Z"/><path class="cls-1" d="M612.21,390.52h-2.85l-5.85-14.43h3.18l4.11,11.13,4.14-11.13h3Z"/><path class="cls-1" d="M634.26,383.29c0,4.41-3.06,7.68-7.38,7.68s-7.38-3.27-7.38-7.68a7.38,7.38,0,1,1,14.76,0Zm-2.88,0c0-3.33-2.1-5.13-4.5-5.13s-4.5,1.8-4.5,5.13,2.1,5.16,4.5,5.16S631.38,386.65,631.38,383.29Z"/><path class="cls-1" d="M640.68,390.52h-2.82V376.09h2.76v2.07a4.94,4.94,0,0,1,4.44-2.49c3.45,0,5.16,2.49,5.16,5.7v9.15H647.4v-8.67c0-2-.84-3.63-3.36-3.63-2.22,0-3.36,1.77-3.36,4Z"/><path class="cls-1" d="M265,419.25c0,4.41-3.06,7.68-7.38,7.68s-7.38-3.27-7.38-7.68a7.38,7.38,0,1,1,14.76,0ZM254.8,406.11a1.75,1.75,0,0,1,1.77,1.74,1.73,1.73,0,0,1-1.77,1.74,1.7,1.7,0,0,1-1.71-1.74A1.72,1.72,0,0,1,254.8,406.11Zm7.35,13.14c0-3.33-2.1-5.13-4.5-5.13s-4.5,1.8-4.5,5.13,2.1,5.16,4.5,5.16S262.15,422.61,262.15,419.25Zm-1.71-13.14a1.74,1.74,0,0,1,1.74,1.74,1.72,1.72,0,0,1-1.74,1.74,1.7,1.7,0,0,1-1.74-1.74A1.72,1.72,0,0,1,260.44,406.11Z"/><path class="cls-1" d="M281.92,409.77v2.28h3.48v2.55h-3.48v11.88H279V414.6h-6.57v11.88h-2.91V414.6h-2.67v-2.55h2.67v-2.43a4.58,4.58,0,0,1,4.74-4.95,3.64,3.64,0,0,1,1.68.3v2.52a3.26,3.26,0,0,0-1.23-.18,2.16,2.16,0,0,0-2.28,2.46v2.28H279v-2.43a4.58,4.58,0,0,1,4.74-4.95,3.64,3.64,0,0,1,1.68.3v2.52a3.26,3.26,0,0,0-1.23-.18A2.16,2.16,0,0,0,281.92,409.77Z"/><path class="cls-1" d="M300.82,422.37a6.54,6.54,0,0,1-6.48,4.56c-3.87,0-7.26-2.82-7.26-7.71,0-4.53,3.27-7.62,6.9-7.62,4.44,0,6.93,3.06,6.93,7.56a6.34,6.34,0,0,1-.06.9H290a4.28,4.28,0,0,0,4.35,4.38,3.93,3.93,0,0,0,4.05-2.91ZM298,417.78a3.64,3.64,0,0,0-4-3.69,3.88,3.88,0,0,0-3.93,3.69Z"/><path class="cls-1" d="M307.27,426.48h-2.82V412.05h2.76v2.07a4.94,4.94,0,0,1,4.44-2.49c3.45,0,5.16,2.49,5.16,5.7v9.15H314v-8.67c0-2-.84-3.63-3.36-3.63-2.22,0-3.36,1.77-3.36,4Z"/><path class="cls-1" d="M325,412.05h3.12v2.55H325v7.5c0,1.32.54,2,2,2a5.71,5.71,0,0,0,1.11-.12v2.4a6.17,6.17,0,0,1-1.92.27,3.75,3.75,0,0,1-4-4.11V414.6h-2.76v-2.55h.78a2,2,0,0,0,2.22-2.22v-2.34H325Z"/><path class="cls-1" d="M331.51,426.48V404.76h2.82v21.72Z"/><path class="cls-1" d="M340.27,404.55a2,2,0,1,1-2,2A2,2,0,0,1,340.27,404.55Zm-1.38,21.93V412.05h2.79v14.43Z"/><path class="cls-1" d="M348.16,419.25c0,3.3,2.07,5.07,4.41,5.07a3.92,3.92,0,0,0,4-3l2.49,1.08a6.63,6.63,0,0,1-6.51,4.5c-4.2,0-7.29-3.3-7.29-7.68s3.15-7.65,7.26-7.65a6.28,6.28,0,0,1,6.42,4.59l-2.55,1.08a3.78,3.78,0,0,0-3.87-3.06C350.26,414.21,348.16,415.89,348.16,419.25Z"/><path class="cls-1" d="M365.23,426.48h-2.82V404.76h2.82v9a5.1,5.1,0,0,1,4.38-2.1c3.45,0,5.16,2.49,5.16,5.7v9.15H372v-8.67c0-2-.84-3.63-3.36-3.63-2.16,0-3.3,1.68-3.36,3.81Z"/><path class="cls-1" d="M392,422.37a6.56,6.56,0,0,1-6.48,4.56c-3.87,0-7.26-2.82-7.26-7.71,0-4.53,3.27-7.62,6.9-7.62,4.44,0,6.92,3.06,6.92,7.56a6.34,6.34,0,0,1-.06.9H381.13a4.28,4.28,0,0,0,4.35,4.38,3.93,3.93,0,0,0,4-2.91Zm-2.86-4.59a3.63,3.63,0,0,0-4-3.69,3.88,3.88,0,0,0-3.92,3.69Z"/><path class="cls-1" d="M398.4,426.48h-2.82V412.05h2.76v2.07a4.94,4.94,0,0,1,4.44-2.49c3.45,0,5.16,2.49,5.16,5.7v9.15h-2.82v-8.67c0-2-.84-3.63-3.36-3.63-2.22,0-3.36,1.77-3.36,4Z"/><path class="cls-1" d="M420.48,426.48V405.21h3v21.27Z"/><path class="cls-1" d="M431.43,426.48h-2.82V412.05h2.76v2.07a4.94,4.94,0,0,1,4.44-2.49c3.45,0,5.16,2.49,5.16,5.7v9.15h-2.82v-8.67c0-2-.84-3.63-3.36-3.63-2.22,0-3.36,1.77-3.36,4Z"/><path class="cls-1" d="M449.31,414.6v11.88H446.4V414.6h-2.67v-2.55h2.67v-2.43a4.58,4.58,0,0,1,4.74-4.95,3.64,3.64,0,0,1,1.68.3v2.52a3.26,3.26,0,0,0-1.23-.18,2.16,2.16,0,0,0-2.28,2.46v2.28h3.48v2.55Z"/><path class="cls-1" d="M463.74,414.9a8.8,8.8,0,0,0-1.23-.09c-2.37,0-4,1.26-4,4.44v7.23h-2.82V412.05h2.76v2.52a4.52,4.52,0,0,1,4.32-2.76,5.31,5.31,0,0,1,.93.09Z"/><path class="cls-1" d="M470,418.23l3.9-.57c.87-.12,1.11-.57,1.11-1.08,0-1.41-.93-2.58-3.12-2.58a3.06,3.06,0,0,0-3.27,2.91l-2.7-.63c.3-2.76,2.79-4.68,5.91-4.68,4.32,0,6,2.46,6,5.28v7.23a13.57,13.57,0,0,0,.18,2.37h-2.76a10.56,10.56,0,0,1-.15-2,5.26,5.26,0,0,1-4.65,2.4c-2.94,0-4.83-2-4.83-4.32C465.66,420,467.55,418.59,470,418.23Zm5,2.07v-.66l-4.41.66a2.16,2.16,0,0,0-2.1,2.16,2.19,2.19,0,0,0,2.34,2.1C473.19,424.56,475.05,423.45,475.05,420.3Z"/><path class="cls-1" d="M483.72,421.83a3.08,3.08,0,0,0,3.36,2.7c1.59,0,2.46-.9,2.46-1.92s-.66-1.59-1.86-1.86l-2.46-.54a4.1,4.1,0,0,1-3.6-4c0-2.46,2.31-4.56,5.13-4.56,4,0,5.19,2.58,5.49,3.87l-2.49.93a2.8,2.8,0,0,0-3-2.4,2.18,2.18,0,0,0-2.4,1.92c0,.87.54,1.5,1.65,1.74l2.34.51c2.61.57,4,2.16,4,4.29s-1.71,4.47-5.28,4.47c-4,0-5.64-2.55-5.88-4.2Z"/><path class="cls-1" d="M499.89,412.05H503v2.55h-3.12v7.5c0,1.32.54,2,2,2A5.71,5.71,0,0,0,503,424v2.4a6.17,6.17,0,0,1-1.92.27,3.75,3.75,0,0,1-4-4.11V414.6h-2.76v-2.55h.78a2,2,0,0,0,2.22-2.22v-2.34h2.58Z"/><path class="cls-1" d="M514.38,414.9a8.8,8.8,0,0,0-1.23-.09c-2.37,0-4,1.26-4,4.44v7.23h-2.82V412.05h2.76v2.52a4.52,4.52,0,0,1,4.32-2.76,5.31,5.31,0,0,1,.93.09Z"/><path class="cls-1" d="M522.51,426.93c-3.36,0-5.4-2.52-5.4-5.79v-9.09h2.82v8.67c0,2,.9,3.72,3.27,3.72s3.42-1.5,3.42-3.69v-8.7h2.82v11.76a24.28,24.28,0,0,0,.15,2.67h-2.7a12.77,12.77,0,0,1-.12-1.74A4.71,4.71,0,0,1,522.51,426.93Z"/><path class="cls-1" d="M540.81,418.14l6.27,8.34h-3.54l-4.71-6.36-2,2v4.35H534V404.76h2.79v13.68l6.24-6.39H547Z"/><path class="cls-1" d="M553.74,412.05h3.12v2.55h-3.12v7.5c0,1.32.54,2,2,2a5.71,5.71,0,0,0,1.11-.12v2.4a6.17,6.17,0,0,1-1.92.27,3.75,3.75,0,0,1-4-4.11V414.6h-2.76v-2.55h.78a2,2,0,0,0,2.22-2.22v-2.34h2.58Z"/><path class="cls-1" d="M565.47,426.93c-3.36,0-5.4-2.52-5.4-5.79v-9.09h2.82v8.67c0,2,.9,3.72,3.27,3.72s3.42-1.5,3.42-3.69v-8.7h2.82v11.76a24.28,24.28,0,0,0,.15,2.67h-2.7a12.77,12.77,0,0,1-.12-1.74A4.71,4.71,0,0,1,565.47,426.93Z"/><path class="cls-1" d="M585,414.9a8.8,8.8,0,0,0-1.23-.09c-2.37,0-4,1.26-4,4.44v7.23H577V412.05h2.76v2.52a4.52,4.52,0,0,1,4.32-2.76,5.31,5.31,0,0,1,.93.09Z"/><path class="cls-1" d="M600.39,422.37a6.54,6.54,0,0,1-6.48,4.56c-3.87,0-7.26-2.82-7.26-7.71,0-4.53,3.27-7.62,6.9-7.62,4.44,0,6.93,3.06,6.93,7.56a6.34,6.34,0,0,1-.06.9H589.56a4.28,4.28,0,0,0,4.35,4.38,3.93,3.93,0,0,0,4.05-2.91Zm-2.85-4.59a3.64,3.64,0,0,0-4-3.69,3.88,3.88,0,0,0-3.93,3.69Z"/><path class="cls-1" d="M606.84,426.48H604V412.05h2.76v2.07a4.94,4.94,0,0,1,4.44-2.49c3.45,0,5.16,2.49,5.16,5.7v9.15h-2.82v-8.67c0-2-.84-3.63-3.36-3.63-2.22,0-3.36,1.77-3.36,4Z"/><polygon points="246.58 270.29 274.65 270.29 274.65 342.13 294.99 342.13 294.99 270.29 323.19 270.29 323.19 250.85 246.58 250.85 246.58 270.29"/><polygon points="355.89 305.31 389.88 305.31 389.88 287.41 355.89 287.41 355.89 270.03 393.35 270.03 393.35 250.85 335.55 250.85 335.55 342.13 393.48 342.13 393.48 322.82 355.89 322.82 355.89 305.31"/><polygon class="cls-1" points="491.07 250.85 464.29 250.85 410.6 312.62 410.6 340.26 491.07 250.85"/><polygon points="444.73 311.31 465.83 342.13 491.2 342.13 459.02 295.43 444.73 311.31"/><polygon points="430.94 250.85 410.6 250.85 410.6 303.47 430.94 280.07 430.94 250.85"/><path d="M538.57,287.8l-12.23-2.32c-6.31-1.16-9-4.38-9-8.75,0-5,4.89-9.79,12.49-9.79,11.07,0,14.55,7.21,15.19,11.46l18.28-5.15c-1.93-10.69-10.55-24.33-33.34-24.33-17.51,0-32.71,12.1-32.71,29.35,0,13.52,9.4,23.82,24.85,26.78l12.49,2.32c6,1.16,9.79,4.5,9.79,9.14,0,5.66-4.9,9.53-12.88,9.53-12.49,0-18.15-7.34-18.93-15.71l-18.66,4.51c1.28,12.87,12.1,29.22,37.33,29.22,21.76,0,33.74-14.55,33.74-28.84C565,302.22,556,291,538.57,287.8Z"/><rect x="578.87" y="250.85" width="20.6" height="91.28"/><circle class="cls-1" cx="423.03" cy="115.87" r="80.85"/><polygon class="cls-2" points="463.2 70.23 436.42 70.23 382.73 132 382.73 159.65 463.2 70.23"/><polygon class="cls-2" points="416.86 130.69 437.96 161.51 463.32 161.51 431.15 114.81 416.86 130.69"/><polygon class="cls-2" points="403.07 70.23 382.73 70.23 382.73 122.86 403.07 99.45 403.07 70.23"/></svg>