<?xml version="1.0" encoding="UTF-8"?><svg xmlns="http://www.w3.org/2000/svg" viewBox="0 0 231.1 202.58"><defs><style>.d{fill:#fff;}.e{fill:#2360ad;}</style></defs><g id="a"/><g id="b"><g id="c"><g><g><path class="e" d="M0,195.28v-25.22H8.82c6.4,0,11.99,4.38,11.99,12.66s-5.66,12.56-12.06,12.56H0Zm8.64-3.09c4.66,0,8.57-3.13,8.57-9.46s-3.84-9.57-8.5-9.57H3.49v19.03h5.16Z"/><path class="e" d="M34.57,181.55c-.5-.07-1-.11-1.46-.11-2.81,0-4.7,1.49-4.7,5.26v8.57h-3.34v-17.11h3.27v2.99c1.25-2.63,3.38-3.27,5.12-3.27,.46,0,.92,.07,1.1,.11v3.56Z"/><path class="e" d="M39.62,169.28c1.35,0,2.42,1.07,2.42,2.42s-1.07,2.38-2.42,2.38-2.38-1.07-2.38-2.38,1.07-2.42,2.38-2.42Zm-1.64,26v-17.11h3.31v17.11h-3.31Z"/><path class="e" d="M50.04,195.28h-3.34v-17.11h3.27v2.45c1.24-2.13,3.27-2.95,5.26-2.95,4.09,0,6.12,2.95,6.12,6.76v10.85h-3.34v-10.28c0-2.38-1-4.3-3.98-4.3-2.63,0-3.98,2.1-3.98,4.7v9.89Z"/><path class="e" d="M74.62,185.4l7.43,9.89h-4.2l-5.58-7.54-2.38,2.38v5.16h-3.31v-25.75h3.31v16.22l7.4-7.58h4.62l-7.29,7.22Z"/><path class="e" d="M86.92,169.28c1.35,0,2.42,1.07,2.42,2.42s-1.07,2.38-2.42,2.38-2.38-1.07-2.38-2.38,1.07-2.42,2.38-2.42Zm-1.64,26v-17.11h3.31v17.11h-3.31Z"/><path class="e" d="M97.34,195.28h-3.34v-17.11h3.27v2.45c1.25-2.13,3.27-2.95,5.26-2.95,4.09,0,6.12,2.95,6.12,6.76v10.85h-3.34v-10.28c0-2.38-1-4.3-3.98-4.3-2.63,0-3.98,2.1-3.98,4.7v9.89Z"/><path class="e" d="M115.98,195.46c.25,2.38,2.06,4.2,4.66,4.2,3.59,0,5.23-1.85,5.23-5.55v-2.45c-.82,1.57-2.67,2.81-5.23,2.81-4.55,0-7.86-3.45-7.86-8.29s3.17-8.32,7.86-8.32c2.63,0,4.41,1,5.26,2.7v-2.38h3.31v15.83c0,4.34-2.13,8.57-8.57,8.57-4.27,0-7.47-2.7-7.9-6.37l3.24-.75Zm10.03-9.28c0-3.31-1.99-5.48-4.87-5.48s-4.94,2.17-4.94,5.48,1.92,5.48,4.94,5.48,4.87-2.17,4.87-5.48Z"/><path class="e" d="M156.45,178.18l4.45,12.88,3.77-12.88h3.52l-5.55,17.11h-3.45l-4.55-13.02-4.45,13.02h-3.52l-5.62-17.11h3.66l3.84,12.88,4.45-12.88h3.45Z"/><path class="e" d="M175.55,185.5l4.62-.68c1.03-.14,1.32-.68,1.32-1.28,0-1.67-1.1-3.06-3.7-3.06-2.35,0-3.66,1.46-3.88,3.45l-3.2-.75c.36-3.27,3.31-5.55,7.01-5.55,5.12,0,7.11,2.92,7.11,6.26v8.57c0,1.49,.14,2.38,.21,2.81h-3.27c-.07-.43-.18-1.07-.18-2.31-.75,1.21-2.45,2.84-5.51,2.84-3.49,0-5.73-2.42-5.73-5.12,0-3.06,2.24-4.77,5.19-5.19Zm5.94,2.45v-.78l-5.23,.78c-1.42,.21-2.49,1.03-2.49,2.56,0,1.28,1.07,2.49,2.77,2.49,2.74,0,4.94-1.32,4.94-5.05Z"/><path class="e" d="M194.61,178.18h3.7v3.02h-3.7v8.89c0,1.57,.64,2.35,2.38,2.35,.43,0,1.03-.07,1.32-.14v2.84c-.28,.11-1.14,.32-2.28,.32-2.92,0-4.77-1.78-4.77-4.87v-9.39h-3.27v-3.02h.92c1.85,0,2.63-1.14,2.63-2.63v-2.77h3.06v5.41Z"/><path class="e" d="M217.3,190.41c-.96,3.02-3.7,5.41-7.68,5.41-4.59,0-8.61-3.34-8.61-9.14,0-5.37,3.88-9.03,8.18-9.03,5.26,0,8.22,3.63,8.22,8.96,0,.43-.04,.85-.07,1.07h-12.88c.07,3.06,2.28,5.19,5.16,5.19s4.16-1.53,4.8-3.45l2.88,1Zm-3.38-5.44c-.07-2.45-1.67-4.38-4.69-4.38-2.81,0-4.52,2.17-4.66,4.38h9.35Z"/><path class="e" d="M231.1,181.55c-.5-.07-1-.11-1.46-.11-2.81,0-4.7,1.49-4.7,5.26v8.57h-3.34v-17.11h3.27v2.99c1.25-2.63,3.38-3.27,5.12-3.27,.46,0,.92,.07,1.1,.11v3.56Z"/></g><g><polygon points="24.91 122.83 39.06 122.83 39.06 159.04 49.31 159.04 49.31 122.83 63.53 122.83 63.53 113.03 24.91 113.03 24.91 122.83"/><polygon points="80 140.48 97.14 140.48 97.14 131.46 80 131.46 80 122.7 98.89 122.7 98.89 113.03 69.75 113.03 69.75 159.04 98.95 159.04 98.95 149.31 80 149.31 80 140.48"/><polygon class="e" points="123.03 140.93 123.03 140.94 148.14 113.03 134.64 113.03 132.64 115.34 107.58 144.17 107.58 158.1 121.21 142.96 123.03 140.93"/><polygon points="124.79 143.5 135.42 159.04 148.21 159.04 131.99 135.5 124.79 143.5"/><polygon points="117.83 113.03 107.58 113.03 107.58 139.56 117.83 127.76 117.83 113.03"/><path d="M172.08,131.65l-6.16-1.17c-3.18-.58-4.54-2.21-4.54-4.41,0-2.53,2.47-4.93,6.29-4.93,5.58,0,7.33,3.63,7.66,5.78l9.21-2.6c-.97-5.39-5.32-12.26-16.81-12.26-8.83,0-16.48,6.1-16.48,14.8,0,6.81,4.74,12.01,12.52,13.5l6.29,1.17c3.05,.58,4.93,2.27,4.93,4.61,0,2.86-2.47,4.8-6.49,4.8-6.29,0-9.15-3.7-9.54-7.92l-9.41,2.27c.65,6.49,6.1,14.73,18.82,14.73,10.97,0,17-7.33,17-14.54,0-6.55-4.54-12.2-13.3-13.82Z"/><rect x="192.39" y="113.03" width="10.38" height="46.01"/></g><g><circle class="e" cx="113.84" cy="45" r="45"/><path class="d" d="M114.06,71h0c-1.92,0-3.77-.26-5.53-.75-11.59-3.23-16.74-16.85-10.8-27.32l12.61-22.2c1.28-2.25,4.51-2.32,5.87-.11l13.4,21.65c7.33,11.85-.23,27.74-14.13,28.68-.47,.03-.94,.05-1.41,.05Z"/></g></g></g></g></svg>