<?xml version="1.0" encoding="UTF-8"?><svg xmlns="http://www.w3.org/2000/svg" viewBox="0 0 200 200"><defs><style>.d{fill:#fff;}.e{fill:#969;}.f{fill:#c800d7;}</style></defs><g id="a"/><g id="b"><g id="c"><g><circle class="f" cx="100" cy="100" r="100"/><circle class="e" cx="100" cy="100" r="100"/><path class="d" d="M132.83,45.53c-8.89-8.94-20.54-13.85-32.83-13.85h-.08c-25.8,.05-46.79,21.07-46.79,46.87,0,36.17,12.8,63.95,20.44,77.3,1.09,1.89,2.91,4.77,4.25,6.85,2.27,3.53,6.14,5.63,10.34,5.63h23.7c4.2,0,8.06-2.11,10.34-5.63,1.96-3.04,3.39-5.35,4.25-6.85,7.52-13.15,20.18-40.55,20.43-76.23,.09-12.6-5.03-25.03-14.04-34.09Zm-9.84,33.02c0,31.79-12.09,56.35-17.28,65.43-.16,.28-.46,.45-.79,.45h-9.83c-.32,0-.63-.17-.79-.45-6.46-11.29-17.28-34.8-17.28-65.44,0-12.67,10.31-22.98,22.98-22.98s22.98,10.31,22.98,22.98Z"/></g></g></g></svg>