<?xml version="1.0" encoding="UTF-8" standalone="no"?>
<svg
   xmlns:dc="http://purl.org/dc/elements/1.1/"
   xmlns:cc="http://creativecommons.org/ns#"
   xmlns:rdf="http://www.w3.org/1999/02/22-rdf-syntax-ns#"
   xmlns:svg="http://www.w3.org/2000/svg"
   xmlns="http://www.w3.org/2000/svg"
   xmlns:sodipodi="http://sodipodi.sourceforge.net/DTD/sodipodi-0.dtd"
   xmlns:inkscape="http://www.inkscape.org/namespaces/inkscape"
   viewBox="0 0 1280 639.99998"
   version="1.1"
   id="svg55"
   sodipodi:docname="210910-teksi-waste-logos-en-03.svg"
   width="1280"
   height="640"
   inkscape:version="0.92.4 (5da689c313, 2019-01-14)">
  <metadata
     id="metadata59">
    <rdf:RDF>
      <cc:Work
         rdf:about="">
        <dc:format>image/svg+xml</dc:format>
        <dc:type
           rdf:resource="http://purl.org/dc/dcmitype/StillImage" />
        <dc:title></dc:title>
      </cc:Work>
    </rdf:RDF>
  </metadata>
  <sodipodi:namedview
     pagecolor="#ffffff"
     bordercolor="#666666"
     borderopacity="1"
     objecttolerance="10"
     gridtolerance="10"
     guidetolerance="10"
     inkscape:pageopacity="0"
     inkscape:pageshadow="2"
     inkscape:window-width="1280"
     inkscape:window-height="1377"
     id="namedview57"
     showgrid="false"
     inkscape:zoom="0.42609844"
     inkscape:cx="681.27232"
     inkscape:cy="185.09414"
     inkscape:window-x="-8"
     inkscape:window-y="-8"
     inkscape:window-maximized="0"
     inkscape:current-layer="g51" />
  <defs
     id="defs4">
    <style
       id="style2">.d{fill:#fff;}.e{fill:#969;}.f{fill:#c800d7;}</style>
  </defs>
  <g
     id="a"
     transform="translate(0,444.18)" />
  <g
     id="b"
     transform="translate(0,444.18)">
    <g
       id="c">
      <g
         id="g51">
        <circle
           class="f"
           cx="241.59601"
           cy="-148.73094"
           r="170.44414"
           id="circle7"
           style="fill:#c800d7;stroke-width:3.78764725" />
        <circle
           class="e"
           cx="241.59601"
           cy="-148.73094"
           r="170.44414"
           id="circle9"
           style="fill:#996699;stroke-width:3.78764725" />
        <path
           class="d"
           d="m 297.5396,-241.56617 c -15.1506,-15.22634 -34.99785,-23.59705 -55.94356,-23.59705 h -0.15149 c -43.9746,0.0757 -79.76786,35.9069 -79.76786,79.8815 0,61.62503 21.81684,109.008491 34.84635,131.734373 1.85595,3.219508 4.96182,8.143446 7.23441,11.665961 3.86341,6.022357 10.4539,9.620622 17.61256,9.620622 h 40.37633 c 7.15865,0 13.74916,-3.598265 17.61255,-9.620622 3.33313,-5.189084 5.79512,-9.128236 7.23442,-11.665961 12.84011,-22.422875 34.39184,-69.124563 34.80848,-129.916303 0.1515,-21.47597 -8.56009,-42.64892 -23.93794,-58.10252 z m -16.77928,56.28445 c 0,54.16337 -20.6048,96.054739 -29.46789,111.546218 -0.26514,0.492388 -0.79542,0.757526 -1.32568,0.757526 h -16.7414 c -0.56814,0 -1.06055,-0.303007 -1.32568,-0.757526 -10.98418,-19.241259 -29.4679,-59.314568 -29.4679,-111.546218 0,-21.58959 17.57468,-39.16427 39.16427,-39.16427 21.5896,0 39.16428,17.57468 39.16428,39.16427 z"
           id="path11"
           inkscape:connector-curvature="0"
           style="fill:#ffffff;stroke-width:3.78764725" />
        <g
           id="g33"
           transform="matrix(4.0038176,0,0,4.0038176,447.89532,-761.63671)">
          <path
             class="e"
             d="m 31.05,170.07 h 3.59 l -7.19,25.22 h -3.59 l -6.58,-20.45 -6.51,20.45 H 7.28 L 0,170.07 h 3.59 l 5.55,19.74 6.33,-19.74 h 3.66 l 6.47,19.95 5.44,-19.95 z"
             id="path13"
             inkscape:connector-curvature="0"
             style="fill:#996699" />
          <path
             class="e"
             d="m 40.62,185.5 4.62,-0.68 c 1.03,-0.14 1.32,-0.68 1.32,-1.28 0,-1.67 -1.1,-3.06 -3.7,-3.06 -2.35,0 -3.66,1.46 -3.88,3.45 l -3.2,-0.75 c 0.36,-3.27 3.31,-5.55 7.01,-5.55 5.12,0 7.11,2.92 7.11,6.26 v 8.57 c 0,1.49 0.14,2.38 0.21,2.81 h -3.27 c -0.07,-0.43 -0.18,-1.07 -0.18,-2.31 -0.75,1.21 -2.45,2.84 -5.51,2.84 -3.49,0 -5.73,-2.42 -5.73,-5.12 0,-3.06 2.24,-4.77 5.19,-5.19 z m 5.94,2.45 v -0.78 l -5.23,0.78 c -1.42,0.21 -2.49,1.03 -2.49,2.56 0,1.28 1.07,2.49 2.77,2.49 2.74,0 4.94,-1.32 4.94,-5.05 z"
             id="path15"
             inkscape:connector-curvature="0"
             style="fill:#996699" />
          <path
             class="e"
             d="m 56.83,189.77 c 0.21,1.78 1.56,3.2 3.98,3.2 1.89,0 2.92,-1.07 2.92,-2.28 0,-1.07 -0.78,-1.89 -2.21,-2.21 l -2.92,-0.64 c -2.67,-0.57 -4.27,-2.38 -4.27,-4.8 0,-2.92 2.74,-5.41 6.08,-5.41 4.69,0 6.15,3.06 6.51,4.59 l -2.95,1.1 c -0.14,-0.89 -0.85,-2.85 -3.56,-2.85 -1.71,0 -2.85,1.1 -2.85,2.28 0,1.03 0.64,1.78 1.96,2.06 l 2.77,0.6 c 3.09,0.68 4.73,2.56 4.73,5.09 0,2.53 -2.03,5.3 -6.26,5.3 -4.7,0 -6.69,-3.02 -6.97,-4.98 l 3.02,-1.07 z"
             id="path17"
             inkscape:connector-curvature="0"
             style="fill:#996699" />
          <path
             class="e"
             d="m 76,178.18 h 3.7 v 3.02 H 76 v 8.89 c 0,1.57 0.64,2.35 2.38,2.35 0.43,0 1.03,-0.07 1.32,-0.14 v 2.84 c -0.28,0.11 -1.14,0.32 -2.28,0.32 -2.92,0 -4.77,-1.78 -4.77,-4.87 v -9.39 h -3.27 v -3.02 h 0.92 c 1.85,0 2.63,-1.14 2.63,-2.63 v -2.77 h 3.06 v 5.41 z"
             id="path19"
             inkscape:connector-curvature="0"
             style="fill:#996699" />
          <path
             class="e"
             d="m 98.69,190.41 c -0.96,3.02 -3.7,5.41 -7.68,5.41 -4.59,0 -8.61,-3.34 -8.61,-9.14 0,-5.37 3.88,-9.03 8.18,-9.03 5.26,0 8.22,3.63 8.22,8.96 0,0.43 -0.04,0.85 -0.07,1.07 H 85.85 c 0.07,3.06 2.28,5.19 5.16,5.19 2.88,0 4.16,-1.53 4.8,-3.45 l 2.88,1 z m -3.38,-5.44 c -0.07,-2.45 -1.67,-4.38 -4.7,-4.38 -2.81,0 -4.52,2.17 -4.66,4.38 h 9.35 z"
             id="path21"
             inkscape:connector-curvature="0"
             style="fill:#996699" />
          <path
             class="e"
             d="m 116.23,178.18 4.45,12.88 3.77,-12.88 h 3.52 l -5.55,17.11 h -3.45 l -4.55,-13.02 -4.45,13.02 h -3.52 l -5.62,-17.11 h 3.66 l 3.84,12.88 4.45,-12.88 z"
             id="path23"
             inkscape:connector-curvature="0"
             style="fill:#996699" />
          <path
             class="e"
             d="m 135.33,185.5 4.62,-0.68 c 1.03,-0.14 1.32,-0.68 1.32,-1.28 0,-1.67 -1.1,-3.06 -3.7,-3.06 -2.35,0 -3.66,1.46 -3.88,3.45 l -3.2,-0.75 c 0.36,-3.27 3.31,-5.55 7.01,-5.55 5.12,0 7.11,2.92 7.11,6.26 v 8.57 c 0,1.49 0.14,2.38 0.21,2.81 h -3.27 c -0.07,-0.43 -0.18,-1.07 -0.18,-2.31 -0.75,1.21 -2.45,2.84 -5.51,2.84 -3.49,0 -5.73,-2.42 -5.73,-5.12 0,-3.06 2.24,-4.77 5.19,-5.19 z m 5.94,2.45 v -0.78 l -5.23,0.78 c -1.42,0.21 -2.49,1.03 -2.49,2.56 0,1.28 1.07,2.49 2.77,2.49 2.74,0 4.94,-1.32 4.94,-5.05 z"
             id="path25"
             inkscape:connector-curvature="0"
             style="fill:#996699" />
          <path
             class="e"
             d="m 154.39,178.18 h 3.7 v 3.02 h -3.7 v 8.89 c 0,1.57 0.64,2.35 2.38,2.35 0.43,0 1.03,-0.07 1.32,-0.14 v 2.84 c -0.28,0.11 -1.14,0.32 -2.28,0.32 -2.92,0 -4.77,-1.78 -4.77,-4.87 v -9.39 h -3.27 v -3.02 h 0.92 c 1.85,0 2.63,-1.14 2.63,-2.63 v -2.77 h 3.06 v 5.41 z"
             id="path27"
             inkscape:connector-curvature="0"
             style="fill:#996699" />
          <path
             class="e"
             d="m 177.08,190.41 c -0.96,3.02 -3.7,5.41 -7.68,5.41 -4.59,0 -8.61,-3.34 -8.61,-9.14 0,-5.37 3.88,-9.03 8.18,-9.03 5.26,0 8.22,3.63 8.22,8.96 0,0.43 -0.04,0.85 -0.07,1.07 h -12.88 c 0.07,3.06 2.28,5.19 5.16,5.19 2.88,0 4.16,-1.53 4.8,-3.45 l 2.88,1 z m -3.38,-5.44 c -0.07,-2.45 -1.67,-4.38 -4.7,-4.38 -2.81,0 -4.52,2.17 -4.66,4.38 h 9.35 z"
             id="path29"
             inkscape:connector-curvature="0"
             style="fill:#996699" />
          <path
             class="e"
             d="m 190.88,181.56 c -0.5,-0.07 -1,-0.11 -1.46,-0.11 -2.81,0 -4.69,1.49 -4.69,5.26 v 8.57 h -3.34 v -17.11 h 3.27 v 2.99 c 1.25,-2.63 3.38,-3.27 5.12,-3.27 0.46,0 0.92,0.07 1.1,0.11 z"
             id="path31"
             inkscape:connector-curvature="0"
             style="fill:#996699" />
        </g>
        <g
           id="g49"
           transform="matrix(3.7713736,0,0,3.7713736,454.17705,-708.838)">
          <polygon
             points="20.25,159.04 30.5,159.04 30.5,122.83 44.71,122.83 44.71,113.03 6.1,113.03 6.1,122.83 20.25,122.83 "
             id="polygon35" />
          <polygon
             points="80.07,113.03 50.94,113.03 50.94,159.04 80.14,159.04 80.14,149.31 61.19,149.31 61.19,140.48 78.32,140.48 78.32,131.46 61.19,131.46 61.19,122.7 80.07,122.7 "
             id="polygon37" />
          <polygon
             class="e"
             points="129.33,113.03 115.83,113.03 113.82,115.34 88.77,144.17 88.77,158.1 102.39,142.96 104.21,140.93 104.21,140.94 "
             id="polygon39"
             style="fill:#996699" />
          <polygon
             points="129.39,159.04 113.17,135.5 105.97,143.5 116.61,159.04 "
             id="polygon41" />
          <polygon
             points="88.77,139.56 99.02,127.76 99.02,113.03 88.77,113.03 "
             id="polygon43" />
          <path
             d="m 153.27,131.65 -6.16,-1.17 c -3.18,-0.58 -4.54,-2.21 -4.54,-4.41 0,-2.53 2.47,-4.93 6.29,-4.93 5.58,0 7.33,3.63 7.66,5.78 l 9.21,-2.6 c -0.97,-5.39 -5.32,-12.26 -16.81,-12.26 -8.83,0 -16.48,6.1 -16.48,14.8 0,6.81 4.74,12.01 12.52,13.5 l 6.29,1.17 c 3.05,0.58 4.93,2.27 4.93,4.61 0,2.86 -2.47,4.8 -6.49,4.8 -6.29,0 -9.15,-3.7 -9.54,-7.92 l -9.41,2.27 c 0.65,6.49 6.1,14.73 18.82,14.73 10.97,0 17,-7.33 17,-14.54 0,-6.55 -4.54,-12.2 -13.3,-13.82 z"
             id="path45"
             inkscape:connector-curvature="0" />
          <rect
             x="173.58"
             y="113.03"
             width="10.38"
             height="46.009998"
             id="rect47" />
        </g>
      </g>
    </g>
  </g>
</svg>
