<?xml version="1.0" encoding="UTF-8"?><svg xmlns="http://www.w3.org/2000/svg" viewBox="0 0 190.88 195.82"><defs><style>.d{fill:#fff;}.e{fill:#969;}.f{fill:#c800d7;}</style></defs><g id="a"/><g id="b"><g id="c"><g><circle class="f" cx="95.03" cy="45" r="45"/><circle class="e" cx="95.03" cy="45" r="45"/><path class="d" d="M109.8,20.49c-4-4.02-9.24-6.23-14.77-6.23h-.04c-11.61,.02-21.06,9.48-21.06,21.09,0,16.27,5.76,28.78,9.2,34.78,.49,.85,1.31,2.15,1.91,3.08,1.02,1.59,2.76,2.54,4.65,2.54h10.66c1.89,0,3.63-.95,4.65-2.54,.88-1.37,1.53-2.41,1.91-3.08,3.39-5.92,9.08-18.25,9.19-34.3,.04-5.67-2.26-11.26-6.32-15.34Zm-4.43,14.86c0,14.3-5.44,25.36-7.78,29.45-.07,.13-.21,.2-.35,.2h-4.42c-.15,0-.28-.08-.35-.2-2.9-5.08-7.78-15.66-7.78-29.45,0-5.7,4.64-10.34,10.34-10.34s10.34,4.64,10.34,10.34Z"/><g><path class="e" d="M31.05,170.07h3.59l-7.19,25.22h-3.59l-6.58-20.45-6.51,20.45h-3.49L0,170.07H3.59l5.55,19.74,6.33-19.74h3.66l6.47,19.95,5.44-19.95Z"/><path class="e" d="M40.62,185.5l4.62-.68c1.03-.14,1.32-.68,1.32-1.28,0-1.67-1.1-3.06-3.7-3.06-2.35,0-3.66,1.46-3.88,3.45l-3.2-.75c.36-3.27,3.31-5.55,7.01-5.55,5.12,0,7.11,2.92,7.11,6.26v8.57c0,1.49,.14,2.38,.21,2.81h-3.27c-.07-.43-.18-1.07-.18-2.31-.75,1.21-2.45,2.84-5.51,2.84-3.49,0-5.73-2.42-5.73-5.12,0-3.06,2.24-4.77,5.19-5.19Zm5.94,2.45v-.78l-5.23,.78c-1.42,.21-2.49,1.03-2.49,2.56,0,1.28,1.07,2.49,2.77,2.49,2.74,0,4.94-1.32,4.94-5.05Z"/><path class="e" d="M56.83,189.77c.21,1.78,1.56,3.2,3.98,3.2,1.89,0,2.92-1.07,2.92-2.28,0-1.07-.78-1.89-2.21-2.21l-2.92-.64c-2.67-.57-4.27-2.38-4.27-4.8,0-2.92,2.74-5.41,6.08-5.41,4.69,0,6.15,3.06,6.51,4.59l-2.95,1.1c-.14-.89-.85-2.85-3.56-2.85-1.71,0-2.85,1.1-2.85,2.28,0,1.03,.64,1.78,1.96,2.06l2.77,.6c3.09,.68,4.73,2.56,4.73,5.09s-2.03,5.3-6.26,5.3c-4.7,0-6.69-3.02-6.97-4.98l3.02-1.07Z"/><path class="e" d="M76,178.18h3.7v3.02h-3.7v8.89c0,1.57,.64,2.35,2.38,2.35,.43,0,1.03-.07,1.32-.14v2.84c-.28,.11-1.14,.32-2.28,.32-2.92,0-4.77-1.78-4.77-4.87v-9.39h-3.27v-3.02h.92c1.85,0,2.63-1.14,2.63-2.63v-2.77h3.06v5.41Z"/><path class="e" d="M98.69,190.41c-.96,3.02-3.7,5.41-7.68,5.41-4.59,0-8.61-3.34-8.61-9.14,0-5.37,3.88-9.03,8.18-9.03,5.26,0,8.22,3.63,8.22,8.96,0,.43-.04,.85-.07,1.07h-12.88c.07,3.06,2.28,5.19,5.16,5.19s4.16-1.53,4.8-3.45l2.88,1Zm-3.38-5.44c-.07-2.45-1.67-4.38-4.7-4.38-2.81,0-4.52,2.17-4.66,4.38h9.35Z"/><path class="e" d="M116.23,178.18l4.45,12.88,3.77-12.88h3.52l-5.55,17.11h-3.45l-4.55-13.02-4.45,13.02h-3.52l-5.62-17.11h3.66l3.84,12.88,4.45-12.88h3.45Z"/><path class="e" d="M135.33,185.5l4.62-.68c1.03-.14,1.32-.68,1.32-1.28,0-1.67-1.1-3.06-3.7-3.06-2.35,0-3.66,1.46-3.88,3.45l-3.2-.75c.36-3.27,3.31-5.55,7.01-5.55,5.12,0,7.11,2.92,7.11,6.26v8.57c0,1.49,.14,2.38,.21,2.81h-3.27c-.07-.43-.18-1.07-.18-2.31-.75,1.21-2.45,2.84-5.51,2.84-3.49,0-5.73-2.42-5.73-5.12,0-3.06,2.24-4.77,5.19-5.19Zm5.94,2.45v-.78l-5.23,.78c-1.42,.21-2.49,1.03-2.49,2.56,0,1.28,1.07,2.49,2.77,2.49,2.74,0,4.94-1.32,4.94-5.05Z"/><path class="e" d="M154.39,178.18h3.7v3.02h-3.7v8.89c0,1.57,.64,2.35,2.38,2.35,.43,0,1.03-.07,1.32-.14v2.84c-.28,.11-1.14,.32-2.28,.32-2.92,0-4.77-1.78-4.77-4.87v-9.39h-3.27v-3.02h.92c1.85,0,2.63-1.14,2.63-2.63v-2.77h3.06v5.41Z"/><path class="e" d="M177.08,190.41c-.96,3.02-3.7,5.41-7.68,5.41-4.59,0-8.61-3.34-8.61-9.14,0-5.37,3.88-9.03,8.18-9.03,5.26,0,8.22,3.63,8.22,8.96,0,.43-.04,.85-.07,1.07h-12.88c.07,3.06,2.28,5.19,5.16,5.19s4.16-1.53,4.8-3.45l2.88,1Zm-3.38-5.44c-.07-2.45-1.67-4.38-4.7-4.38-2.81,0-4.52,2.17-4.66,4.38h9.35Z"/><path class="e" d="M190.88,181.56c-.5-.07-1-.11-1.46-.11-2.81,0-4.69,1.49-4.69,5.26v8.57h-3.34v-17.11h3.27v2.99c1.25-2.63,3.38-3.27,5.12-3.27,.46,0,.92,.07,1.1,.11v3.56Z"/></g><g><polygon points="6.1 122.83 20.25 122.83 20.25 159.04 30.5 159.04 30.5 122.83 44.71 122.83 44.71 113.03 6.1 113.03 6.1 122.83"/><polygon points="61.19 140.48 78.32 140.48 78.32 131.46 61.19 131.46 61.19 122.7 80.07 122.7 80.07 113.03 50.94 113.03 50.94 159.04 80.14 159.04 80.14 149.31 61.19 149.31 61.19 140.48"/><polygon class="e" points="104.21 140.93 104.21 140.94 129.33 113.03 115.83 113.03 113.82 115.34 88.77 144.17 88.77 158.1 102.39 142.96 104.21 140.93"/><polygon points="105.97 143.5 116.61 159.04 129.39 159.04 113.17 135.5 105.97 143.5"/><polygon points="99.02 113.03 88.77 113.03 88.77 139.56 99.02 127.76 99.02 113.03"/><path d="M153.27,131.65l-6.16-1.17c-3.18-.58-4.54-2.21-4.54-4.41,0-2.53,2.47-4.93,6.29-4.93,5.58,0,7.33,3.63,7.66,5.78l9.21-2.6c-.97-5.39-5.32-12.26-16.81-12.26-8.83,0-16.48,6.1-16.48,14.8,0,6.81,4.74,12.01,12.52,13.5l6.29,1.17c3.05,.58,4.93,2.27,4.93,4.61,0,2.86-2.47,4.8-6.49,4.8-6.29,0-9.15-3.7-9.54-7.92l-9.41,2.27c.65,6.49,6.1,14.73,18.82,14.73,10.97,0,17-7.33,17-14.54,0-6.55-4.54-12.2-13.3-13.82Z"/><rect x="173.58" y="113.03" width="10.38" height="46.01"/></g></g></g></g></svg>