<?xml version="1.0" encoding="UTF-8" standalone="no"?>
<svg
   xmlns:dc="http://purl.org/dc/elements/1.1/"
   xmlns:cc="http://creativecommons.org/ns#"
   xmlns:rdf="http://www.w3.org/1999/02/22-rdf-syntax-ns#"
   xmlns:svg="http://www.w3.org/2000/svg"
   xmlns="http://www.w3.org/2000/svg"
   xmlns:sodipodi="http://sodipodi.sourceforge.net/DTD/sodipodi-0.dtd"
   xmlns:inkscape="http://www.inkscape.org/namespaces/inkscape"
   viewBox="0 0 1280 639.99999"
   version="1.1"
   id="svg61"
   sodipodi:docname="210910-teksi-drink-logos-en-03.svg"
   inkscape:version="0.92.4 (5da689c313, 2019-01-14)"
   width="1280"
   height="640">
  <metadata
     id="metadata65">
    <rdf:RDF>
      <cc:Work
         rdf:about="">
        <dc:format>image/svg+xml</dc:format>
        <dc:type
           rdf:resource="http://purl.org/dc/dcmitype/StillImage" />
        <dc:title></dc:title>
      </cc:Work>
    </rdf:RDF>
  </metadata>
  <sodipodi:namedview
     pagecolor="#ffffff"
     bordercolor="#666666"
     borderopacity="1"
     objecttolerance="10"
     gridtolerance="10"
     guidetolerance="10"
     inkscape:pageopacity="0"
     inkscape:pageshadow="2"
     inkscape:window-width="1278"
     inkscape:window-height="1368"
     id="namedview63"
     showgrid="false"
     inkscape:zoom="0.41187975"
     inkscape:cx="633.33653"
     inkscape:cy="143.80297"
     inkscape:window-x="1273"
     inkscape:window-y="0"
     inkscape:window-maximized="0"
     inkscape:current-layer="g57" />
  <defs
     id="defs4">
    <style
       id="style2">.d{fill:#fff;}.e{fill:#2360ad;}</style>
  </defs>
  <g
     id="a"
     transform="translate(0,437.42)" />
  <g
     id="b"
     transform="translate(0,437.42)">
    <g
       id="c">
      <g
         id="g57">
        <g
           id="g33"
           transform="matrix(3.56368,0,0,3.56368,397.84539,-673.88139)">
          <path
             class="e"
             d="m 0,195.28 v -25.22 h 8.82 c 6.4,0 11.99,4.38 11.99,12.66 0,8.28 -5.66,12.56 -12.06,12.56 z m 8.64,-3.09 c 4.66,0 8.57,-3.13 8.57,-9.46 0,-6.33 -3.84,-9.57 -8.5,-9.57 H 3.49 v 19.03 h 5.16 z"
             id="path7"
             inkscape:connector-curvature="0"
             style="fill:#2360ad" />
          <path
             class="e"
             d="m 34.57,181.55 c -0.5,-0.07 -1,-0.11 -1.46,-0.11 -2.81,0 -4.7,1.49 -4.7,5.26 v 8.57 h -3.34 v -17.11 h 3.27 v 2.99 c 1.25,-2.63 3.38,-3.27 5.12,-3.27 0.46,0 0.92,0.07 1.1,0.11 v 3.56 z"
             id="path9"
             inkscape:connector-curvature="0"
             style="fill:#2360ad" />
          <path
             class="e"
             d="m 39.62,169.28 c 1.35,0 2.42,1.07 2.42,2.42 0,1.35 -1.07,2.38 -2.42,2.38 -1.35,0 -2.38,-1.07 -2.38,-2.38 0,-1.31 1.07,-2.42 2.38,-2.42 z m -1.64,26 v -17.11 h 3.31 v 17.11 z"
             id="path11"
             inkscape:connector-curvature="0"
             style="fill:#2360ad" />
          <path
             class="e"
             d="M 50.04,195.28 H 46.7 v -17.11 h 3.27 v 2.45 c 1.24,-2.13 3.27,-2.95 5.26,-2.95 4.09,0 6.12,2.95 6.12,6.76 v 10.85 H 58.01 V 185 c 0,-2.38 -1,-4.3 -3.98,-4.3 -2.63,0 -3.98,2.1 -3.98,4.7 v 9.89 z"
             id="path13"
             inkscape:connector-curvature="0"
             style="fill:#2360ad" />
          <path
             class="e"
             d="m 74.62,185.4 7.43,9.89 h -4.2 l -5.58,-7.54 -2.38,2.38 v 5.16 h -3.31 v -25.75 h 3.31 v 16.22 l 7.4,-7.58 h 4.62 z"
             id="path15"
             inkscape:connector-curvature="0"
             style="fill:#2360ad" />
          <path
             class="e"
             d="m 86.92,169.28 c 1.35,0 2.42,1.07 2.42,2.42 0,1.35 -1.07,2.38 -2.42,2.38 -1.35,0 -2.38,-1.07 -2.38,-2.38 0,-1.31 1.07,-2.42 2.38,-2.42 z m -1.64,26 v -17.11 h 3.31 v 17.11 z"
             id="path17"
             inkscape:connector-curvature="0"
             style="fill:#2360ad" />
          <path
             class="e"
             d="M 97.34,195.28 H 94 v -17.11 h 3.27 v 2.45 c 1.25,-2.13 3.27,-2.95 5.26,-2.95 4.09,0 6.12,2.95 6.12,6.76 v 10.85 h -3.34 V 185 c 0,-2.38 -1,-4.3 -3.98,-4.3 -2.63,0 -3.98,2.1 -3.98,4.7 v 9.89 z"
             id="path19"
             inkscape:connector-curvature="0"
             style="fill:#2360ad" />
          <path
             class="e"
             d="m 115.98,195.46 c 0.25,2.38 2.06,4.2 4.66,4.2 3.59,0 5.23,-1.85 5.23,-5.55 v -2.45 c -0.82,1.57 -2.67,2.81 -5.23,2.81 -4.55,0 -7.86,-3.45 -7.86,-8.29 0,-4.84 3.17,-8.32 7.86,-8.32 2.63,0 4.41,1 5.26,2.7 v -2.38 h 3.31 v 15.83 c 0,4.34 -2.13,8.57 -8.57,8.57 -4.27,0 -7.47,-2.7 -7.9,-6.37 z m 10.03,-9.28 c 0,-3.31 -1.99,-5.48 -4.87,-5.48 -2.88,0 -4.94,2.17 -4.94,5.48 0,3.31 1.92,5.48 4.94,5.48 3.02,0 4.87,-2.17 4.87,-5.48 z"
             id="path21"
             inkscape:connector-curvature="0"
             style="fill:#2360ad" />
          <path
             class="e"
             d="m 156.45,178.18 4.45,12.88 3.77,-12.88 h 3.52 l -5.55,17.11 h -3.45 l -4.55,-13.02 -4.45,13.02 h -3.52 l -5.62,-17.11 h 3.66 l 3.84,12.88 4.45,-12.88 z"
             id="path23"
             inkscape:connector-curvature="0"
             style="fill:#2360ad" />
          <path
             class="e"
             d="m 175.55,185.5 4.62,-0.68 c 1.03,-0.14 1.32,-0.68 1.32,-1.28 0,-1.67 -1.1,-3.06 -3.7,-3.06 -2.35,0 -3.66,1.46 -3.88,3.45 l -3.2,-0.75 c 0.36,-3.27 3.31,-5.55 7.01,-5.55 5.12,0 7.11,2.92 7.11,6.26 v 8.57 c 0,1.49 0.14,2.38 0.21,2.81 h -3.27 c -0.07,-0.43 -0.18,-1.07 -0.18,-2.31 -0.75,1.21 -2.45,2.84 -5.51,2.84 -3.49,0 -5.73,-2.42 -5.73,-5.12 0,-3.06 2.24,-4.77 5.19,-5.19 z m 5.94,2.45 v -0.78 l -5.23,0.78 c -1.42,0.21 -2.49,1.03 -2.49,2.56 0,1.28 1.07,2.49 2.77,2.49 2.74,0 4.94,-1.32 4.94,-5.05 z"
             id="path25"
             inkscape:connector-curvature="0"
             style="fill:#2360ad" />
          <path
             class="e"
             d="m 194.61,178.18 h 3.7 v 3.02 h -3.7 v 8.89 c 0,1.57 0.64,2.35 2.38,2.35 0.43,0 1.03,-0.07 1.32,-0.14 v 2.84 c -0.28,0.11 -1.14,0.32 -2.28,0.32 -2.92,0 -4.77,-1.78 -4.77,-4.87 v -9.39 h -3.27 v -3.02 h 0.92 c 1.85,0 2.63,-1.14 2.63,-2.63 v -2.77 h 3.06 v 5.41 z"
             id="path27"
             inkscape:connector-curvature="0"
             style="fill:#2360ad" />
          <path
             class="e"
             d="m 217.3,190.41 c -0.96,3.02 -3.7,5.41 -7.68,5.41 -4.59,0 -8.61,-3.34 -8.61,-9.14 0,-5.37 3.88,-9.03 8.18,-9.03 5.26,0 8.22,3.63 8.22,8.96 0,0.43 -0.04,0.85 -0.07,1.07 h -12.88 c 0.07,3.06 2.28,5.19 5.16,5.19 2.88,0 4.16,-1.53 4.8,-3.45 l 2.88,1 z m -3.38,-5.44 c -0.07,-2.45 -1.67,-4.38 -4.69,-4.38 -2.81,0 -4.52,2.17 -4.66,4.38 z"
             id="path29"
             inkscape:connector-curvature="0"
             style="fill:#2360ad" />
          <path
             class="e"
             d="m 231.1,181.55 c -0.5,-0.07 -1,-0.11 -1.46,-0.11 -2.81,0 -4.7,1.49 -4.7,5.26 v 8.57 h -3.34 v -17.11 h 3.27 v 2.99 c 1.25,-2.63 3.38,-3.27 5.12,-3.27 0.46,0 0.92,0.07 1.1,0.11 v 3.56 z"
             id="path31"
             inkscape:connector-curvature="0"
             style="fill:#2360ad" />
        </g>
        <g
           id="g49"
           transform="matrix(3.56368,0,0,3.56368,397.84539,-673.88139)">
          <polygon
             points="39.06,122.83 39.06,159.04 49.31,159.04 49.31,122.83 63.53,122.83 63.53,113.03 24.91,113.03 24.91,122.83 "
             id="polygon35" />
          <polygon
             points="98.95,159.04 98.95,149.31 80,149.31 80,140.48 97.14,140.48 97.14,131.46 80,131.46 80,122.7 98.89,122.7 98.89,113.03 69.75,113.03 69.75,159.04 "
             id="polygon37" />
          <polygon
             class="e"
             points="123.03,140.94 148.14,113.03 134.64,113.03 132.64,115.34 107.58,144.17 107.58,158.1 121.21,142.96 123.03,140.93 "
             id="polygon39"
             style="fill:#2360ad" />
          <polygon
             points="135.42,159.04 148.21,159.04 131.99,135.5 124.79,143.5 "
             id="polygon41" />
          <polygon
             points="107.58,113.03 107.58,139.56 117.83,127.76 117.83,113.03 "
             id="polygon43" />
          <path
             d="m 172.08,131.65 -6.16,-1.17 c -3.18,-0.58 -4.54,-2.21 -4.54,-4.41 0,-2.53 2.47,-4.93 6.29,-4.93 5.58,0 7.33,3.63 7.66,5.78 l 9.21,-2.6 c -0.97,-5.39 -5.32,-12.26 -16.81,-12.26 -8.83,0 -16.48,6.1 -16.48,14.8 0,6.81 4.74,12.01 12.52,13.5 l 6.29,1.17 c 3.05,0.58 4.93,2.27 4.93,4.61 0,2.86 -2.47,4.8 -6.49,4.8 -6.29,0 -9.15,-3.7 -9.54,-7.92 l -9.41,2.27 c 0.65,6.49 6.1,14.73 18.82,14.73 10.97,0 17,-7.33 17,-14.54 0,-6.55 -4.54,-12.2 -13.3,-13.82 z"
             id="path45"
             inkscape:connector-curvature="0" />
          <rect
             x="192.39"
             y="113.03"
             width="10.38"
             height="46.009998"
             id="rect47" />
        </g>
        <g
           id="g55"
           transform="matrix(3.2917666,0,0,3.2917666,-163.74051,-273.89628)">
          <circle
             class="e"
             cx="113.84"
             cy="45"
             r="45"
             id="circle51"
             style="fill:#2360ad" />
          <path
             class="d"
             d="m 114.06,71 v 0 c -1.92,0 -3.77,-0.26 -5.53,-0.75 C 96.94,67.02 91.79,53.4 97.73,42.93 l 12.61,-22.2 c 1.28,-2.25 4.51,-2.32 5.87,-0.11 l 13.4,21.65 c 7.33,11.85 -0.23,27.74 -14.13,28.68 -0.47,0.03 -0.94,0.05 -1.41,0.05 z"
             id="path53"
             inkscape:connector-curvature="0"
             style="fill:#ffffff" />
        </g>
      </g>
    </g>
  </g>
</svg>
