<?xml version="1.0" encoding="UTF-8"?>
<svg id="Calque_2" data-name="Calque 2" xmlns="http://www.w3.org/2000/svg" viewBox="0 0 238.46 202.58">
  <defs>
    <style>
      .cls-1 {
        fill: #fff;
      }

      .cls-2 {
        fill: #de9933;
      }
    </style>
  </defs>
  <g id="Calque_1-2" data-name="Calque 1">
    <g>
      <g>
        <path class="cls-2" d="M0,195.29v-25.22h8.82c6.4,0,11.99,4.38,11.99,12.66s-5.66,12.56-12.06,12.56H0ZM8.64,192.19c4.66,0,8.57-3.13,8.57-9.46s-3.84-9.57-8.5-9.57H3.49v19.03h5.16Z"/>
        <path class="cls-2" d="M26.71,169.29c1.35,0,2.42,1.07,2.42,2.42s-1.07,2.38-2.42,2.38-2.38-1.07-2.38-2.38,1.07-2.42,2.38-2.42ZM25.07,195.29v-17.11h3.31v17.11h-3.31Z"/>
        <path class="cls-2" d="M35.46,189.77c.21,1.78,1.57,3.2,3.98,3.2,1.89,0,2.92-1.07,2.92-2.28,0-1.07-.78-1.89-2.21-2.21l-2.92-.64c-2.67-.57-4.27-2.38-4.27-4.8,0-2.92,2.74-5.41,6.08-5.41,4.69,0,6.15,3.06,6.51,4.59l-2.95,1.1c-.14-.89-.85-2.85-3.56-2.85-1.71,0-2.85,1.1-2.85,2.28,0,1.03.64,1.78,1.96,2.06l2.77.6c3.09.68,4.73,2.56,4.73,5.09s-2.03,5.3-6.26,5.3c-4.7,0-6.69-3.02-6.97-4.98l3.02-1.07Z"/>
        <path class="cls-2" d="M54.63,178.18h3.7v3.02h-3.7v8.89c0,1.57.64,2.35,2.38,2.35.43,0,1.03-.07,1.32-.14v2.84c-.28.11-1.14.32-2.28.32-2.92,0-4.77-1.78-4.77-4.87v-9.39h-3.27v-3.02h.92c1.85,0,2.63-1.14,2.63-2.63v-2.77h3.06v5.41Z"/>
        <path class="cls-2" d="M71.81,181.56c-.5-.07-1-.11-1.46-.11-2.81,0-4.69,1.49-4.69,5.26v8.57h-3.34v-17.11h3.27v2.99c1.25-2.63,3.38-3.27,5.12-3.27.46,0,.92.07,1.1.11v3.56Z"/>
        <path class="cls-2" d="M76.85,169.29c1.35,0,2.42,1.07,2.42,2.42s-1.07,2.38-2.42,2.38-2.38-1.07-2.38-2.38,1.07-2.42,2.38-2.42ZM75.22,195.29v-17.11h3.31v17.11h-3.31Z"/>
        <path class="cls-2" d="M86.21,186.71c0,3.91,2.45,6.01,5.23,6.01,3.2,0,4.38-2.17,4.77-3.52l2.95,1.28c-.82,2.45-3.27,5.33-7.72,5.33-4.98,0-8.64-3.91-8.64-9.11s3.73-9.07,8.61-9.07c4.55,0,6.9,2.84,7.61,5.44l-3.02,1.28c-.43-1.67-1.67-3.63-4.59-3.63-2.7,0-5.19,1.99-5.19,5.98Z"/>
        <path class="cls-2" d="M107.76,178.18h3.7v3.02h-3.7v8.89c0,1.57.64,2.35,2.38,2.35.43,0,1.03-.07,1.32-.14v2.84c-.28.11-1.14.32-2.28.32-2.92,0-4.77-1.78-4.77-4.87v-9.39h-3.27v-3.02h.92c1.85,0,2.63-1.14,2.63-2.63v-2.77h3.06v5.41Z"/>
        <path class="cls-2" d="M127.75,195.29h-3.34v-25.75h3.34v10.63c1.25-1.81,3.24-2.49,5.19-2.49,4.09,0,6.12,2.95,6.12,6.76v10.85h-3.34v-10.28c0-2.38-1-4.3-3.98-4.3-2.56,0-3.91,1.99-3.98,4.52v10.07Z"/>
        <path class="cls-2" d="M159.44,190.41c-.96,3.02-3.7,5.41-7.68,5.41-4.59,0-8.61-3.34-8.61-9.14,0-5.37,3.88-9.03,8.18-9.03,5.26,0,8.22,3.63,8.22,8.96,0,.43-.04.85-.07,1.07h-12.88c.07,3.06,2.28,5.19,5.16,5.19s4.16-1.53,4.8-3.45l2.88,1ZM156.06,184.97c-.07-2.45-1.67-4.38-4.7-4.38-2.81,0-4.52,2.17-4.66,4.38h9.35Z"/>
        <path class="cls-2" d="M167.79,185.5l4.62-.68c1.03-.14,1.32-.68,1.32-1.28,0-1.67-1.1-3.06-3.7-3.06-2.35,0-3.66,1.46-3.88,3.45l-3.2-.75c.36-3.27,3.31-5.55,7.01-5.55,5.12,0,7.11,2.92,7.11,6.26v8.57c0,1.49.14,2.38.21,2.81h-3.27c-.07-.43-.18-1.07-.18-2.31-.75,1.21-2.45,2.84-5.51,2.84-3.49,0-5.73-2.42-5.73-5.12,0-3.06,2.24-4.77,5.19-5.19ZM173.73,187.96v-.78l-5.23.78c-1.42.21-2.49,1.03-2.49,2.56,0,1.28,1.07,2.49,2.77,2.49,2.74,0,4.94-1.32,4.94-5.05Z"/>
        <path class="cls-2" d="M186.86,178.18h3.7v3.02h-3.7v8.89c0,1.57.64,2.35,2.38,2.35.43,0,1.03-.07,1.32-.14v2.84c-.28.11-1.14.32-2.28.32-2.92,0-4.77-1.78-4.77-4.87v-9.39h-3.27v-3.02h.92c1.85,0,2.63-1.14,2.63-2.63v-2.77h3.06v5.41Z"/>
        <path class="cls-2" d="M196.17,169.29c1.35,0,2.42,1.07,2.42,2.42s-1.07,2.38-2.42,2.38-2.38-1.07-2.38-2.38,1.07-2.42,2.38-2.42ZM194.54,195.29v-17.11h3.31v17.11h-3.31Z"/>
        <path class="cls-2" d="M206.59,195.29h-3.34v-17.11h3.27v2.45c1.24-2.13,3.27-2.95,5.26-2.95,4.09,0,6.12,2.95,6.12,6.76v10.85h-3.34v-10.28c0-2.38-1-4.3-3.98-4.3-2.63,0-3.98,2.1-3.98,4.7v9.89Z"/>
        <path class="cls-2" d="M225.23,195.46c.25,2.38,2.06,4.2,4.66,4.2,3.59,0,5.23-1.85,5.23-5.55v-2.45c-.82,1.57-2.67,2.81-5.23,2.81-4.55,0-7.86-3.45-7.86-8.29s3.17-8.32,7.86-8.32c2.63,0,4.41,1,5.26,2.7v-2.38h3.31v15.83c0,4.34-2.13,8.57-8.57,8.57-4.27,0-7.47-2.7-7.9-6.37l3.24-.75ZM235.26,186.18c0-3.31-1.99-5.48-4.87-5.48s-4.94,2.17-4.94,5.48,1.92,5.48,4.94,5.48,4.87-2.17,4.87-5.48Z"/>
      </g>
      <g>
        <polygon points="29.96 122.83 44.11 122.83 44.11 159.04 54.36 159.04 54.36 122.83 68.57 122.83 68.57 113.03 29.96 113.03 29.96 122.83"/>
        <polygon points="85.05 140.48 102.18 140.48 102.18 131.46 85.05 131.46 85.05 122.7 103.94 122.7 103.94 113.03 74.8 113.03 74.8 159.04 104 159.04 104 149.31 85.05 149.31 85.05 140.48"/>
        <polygon class="cls-2" points="128.07 140.93 128.07 140.94 153.19 113.03 139.69 113.03 137.68 115.34 112.63 144.17 112.63 158.1 126.25 142.96 128.07 140.93"/>
        <polygon points="129.83 143.5 140.47 159.04 153.25 159.04 137.03 135.5 129.83 143.5"/>
        <polygon points="122.88 113.03 112.63 113.03 112.63 139.56 122.88 127.76 122.88 113.03"/>
        <path d="M177.13,131.65l-6.16-1.17c-3.18-.58-4.54-2.21-4.54-4.41,0-2.53,2.47-4.93,6.29-4.93,5.58,0,7.33,3.63,7.66,5.78l9.21-2.6c-.97-5.39-5.32-12.26-16.81-12.26-8.83,0-16.48,6.1-16.48,14.8,0,6.81,4.74,12.01,12.52,13.5l6.29,1.17c3.05.58,4.93,2.27,4.93,4.61,0,2.86-2.47,4.8-6.49,4.8-6.29,0-9.15-3.7-9.54-7.92l-9.41,2.27c.65,6.49,6.1,14.73,18.82,14.73,10.97,0,17-7.33,17-14.54,0-6.55-4.54-12.2-13.3-13.82Z"/>
        <rect x="197.44" y="113.03" width="10.38" height="46.01"/>
      </g>
      <circle class="cls-2" cx="118.89" cy="45" r="45"/>
      <path class="cls-1" d="M121.9,50.48s.05-.03.08-.05c4.83-2.68,8.34-7.08,9.88-12.39,3.2-11.03-3.17-22.6-14.19-25.8-3.31-.96-6.78.94-7.74,4.26-.96,3.31.94,6.78,4.26,7.74,4.41,1.28,6.95,5.91,5.67,10.31-.62,2.13-2.03,3.9-3.98,4.97h0c-4.87,2.68-8.41,7.1-9.96,12.44-3.2,11.03,3.16,22.6,14.19,25.8.58.17,1.17.25,1.75.25,2.71,0,5.21-1.78,6-4.51.96-3.31-.94-6.78-4.26-7.74-4.41-1.28-6.95-5.91-5.67-10.31.62-2.13,2.03-3.9,3.98-4.97Z"/>
    </g>
  </g>
</svg>