<svg id="Calque_1" data-name="Calque 1" xmlns="http://www.w3.org/2000/svg" viewBox="0 0 300 250"><defs><style>.cls-1{fill:#c800d7;}.cls-2{fill:#969;}.cls-3{fill:#fff;}</style></defs><circle class="cls-1" cx="150" cy="68.23" r="45"/><circle class="cls-2" cx="150" cy="68.23" r="45"/><path class="cls-3" d="M164.77,43.72A20.73,20.73,0,0,0,150,37.49h0a21.12,21.12,0,0,0-21.05,21.09,71.23,71.23,0,0,0,9.19,34.78c.39.67,1,1.71,1.92,3.08A5.5,5.5,0,0,0,144.67,99h10.66A5.5,5.5,0,0,0,160,96.44c.61-.93,1.43-2.23,1.92-3.08a71.29,71.29,0,0,0,9.19-34.3A21.69,21.69,0,0,0,164.77,43.72Zm-4.43,14.86A61.26,61.26,0,0,1,152.57,88a.42.42,0,0,1-.36.21h-4.42a.42.42,0,0,1-.36-.21,60.32,60.32,0,0,1-7.77-29.44,10.34,10.34,0,0,1,20.68,0Z"/><path class="cls-2" d="M89.52,211.47H78.35l-2.66,7.05H72L82,193.3h4l10,25.22H92.26Zm-9.92-3.23h8.68L83.9,196.93Z"/><path class="cls-2" d="M99.34,218.52V192.77h3.3v11.06a6.25,6.25,0,0,1,5.66-2.92c5.19,0,7.86,4,7.86,9s-2.88,9.11-8,9.11a6.11,6.11,0,0,1-5.55-2.95v2.49Zm8.36-14.66c-3,0-5.09,2.32-5.09,6s2.13,6.12,5.09,6.12,5-2.42,5-6.12S110.79,203.86,107.7,203.86Z"/><path class="cls-2" d="M133.73,201.41l4.45,12.87L142,201.41h3.52l-5.55,17.11h-3.45l-4.55-13-4.45,13H124l-5.62-17.11H122l3.84,12.87,4.45-12.87Z"/><path class="cls-2" d="M152.83,208.74l4.62-.68c1-.14,1.32-.68,1.32-1.28,0-1.67-1.11-3.06-3.7-3.06a3.63,3.63,0,0,0-3.88,3.45l-3.2-.75c.36-3.27,3.31-5.54,7-5.54,5.12,0,7.11,2.91,7.11,6.26v8.57a16.43,16.43,0,0,0,.21,2.81h-3.27a12.6,12.6,0,0,1-.18-2.31,6.24,6.24,0,0,1-5.51,2.84c-3.49,0-5.73-2.42-5.73-5.12C147.63,210.87,149.87,209.16,152.83,208.74Zm5.94,2.45v-.78l-5.23.78a2.56,2.56,0,0,0-2.49,2.56,2.6,2.6,0,0,0,2.77,2.49C156.56,216.24,158.77,214.92,158.77,211.19Z"/><path class="cls-2" d="M169,213a3.66,3.66,0,0,0,4,3.21c1.88,0,2.91-1.07,2.91-2.28s-.78-1.89-2.2-2.21l-2.92-.64c-2.67-.57-4.27-2.38-4.27-4.8,0-2.92,2.74-5.4,6.09-5.4,4.69,0,6.15,3.05,6.51,4.58l-3,1.11a3.31,3.31,0,0,0-3.55-2.85,2.58,2.58,0,0,0-2.85,2.28c0,1,.64,1.78,2,2.06l2.77.6c3.1.68,4.73,2.57,4.73,5.09s-2,5.3-6.26,5.3c-4.69,0-6.68-3-7-5Z"/><path class="cls-2" d="M185.23,213a3.65,3.65,0,0,0,4,3.21c1.88,0,2.92-1.07,2.92-2.28s-.79-1.89-2.21-2.21l-2.92-.64c-2.66-.57-4.26-2.38-4.26-4.8,0-2.92,2.74-5.4,6.08-5.4,4.69,0,6.15,3.05,6.51,4.58l-3,1.11a3.33,3.33,0,0,0-3.56-2.85A2.58,2.58,0,0,0,186,206c0,1,.64,1.78,2,2.06l2.77.6c3.1.68,4.73,2.57,4.73,5.09s-2,5.3-6.26,5.3c-4.69,0-6.68-3-7-5Z"/><path class="cls-2" d="M214.89,213.64a7.75,7.75,0,0,1-7.68,5.41c-4.59,0-8.61-3.34-8.61-9.14,0-5.37,3.87-9,8.18-9,5.26,0,8.21,3.62,8.21,9a7,7,0,0,1-.07,1.07H202.05a5.08,5.08,0,0,0,5.16,5.19,4.66,4.66,0,0,0,4.8-3.45Zm-3.38-5.44a4.31,4.31,0,0,0-4.7-4.37,4.61,4.61,0,0,0-4.66,4.37Z"/><path class="cls-2" d="M228.69,204.79a10.7,10.7,0,0,0-1.46-.11c-2.81,0-4.7,1.5-4.7,5.26v8.58h-3.34V201.41h3.27v3a5.36,5.36,0,0,1,5.12-3.28,6.85,6.85,0,0,1,1.11.11Z"/><polygon points="61.07 146.06 75.22 146.06 75.22 182.27 85.47 182.27 85.47 146.06 99.68 146.06 99.68 136.26 61.07 136.26 61.07 146.06"/><polygon points="116.16 163.71 133.29 163.71 133.29 154.69 116.16 154.69 116.16 145.93 135.04 145.93 135.04 136.26 105.91 136.26 105.91 182.27 135.11 182.27 135.11 172.54 116.16 172.54 116.16 163.71"/><polygon class="cls-2" points="159.18 164.17 159.18 164.17 184.3 136.26 170.8 136.26 168.79 138.57 143.74 167.4 143.74 181.33 157.36 166.19 159.18 164.17"/><polygon points="160.94 166.74 171.58 182.27 184.36 182.27 168.14 158.73 160.94 166.74"/><polygon points="153.99 136.26 143.74 136.26 143.74 162.79 153.99 150.99 153.99 136.26"/><path d="M208.24,154.89l-6.17-1.17c-3.18-.59-4.54-2.21-4.54-4.41,0-2.54,2.47-4.94,6.3-4.94,5.58,0,7.33,3.64,7.65,5.78l9.22-2.6c-1-5.38-5.32-12.26-16.81-12.26-8.82,0-16.48,6.1-16.48,14.79,0,6.82,4.73,12,12.52,13.5l6.3,1.17c3.05.58,4.93,2.27,4.93,4.61,0,2.85-2.47,4.8-6.49,4.8-6.3,0-9.15-3.7-9.54-7.92l-9.41,2.27c.65,6.49,6.1,14.73,18.82,14.73,11,0,17-7.33,17-14.53C221.54,162.15,217,156.51,208.24,154.89Z"/><rect x="228.55" y="136.26" width="10.38" height="46.01"/></svg>