<svg id="Calque_1" data-name="Calque 1" xmlns="http://www.w3.org/2000/svg" viewBox="0 0 300 250"><defs><style>.cls-1{fill:#c800d7;}.cls-2{fill:#969;}.cls-3{fill:#fff;}</style></defs><circle class="cls-1" cx="150" cy="125" r="100"/><circle class="cls-2" cx="150" cy="125" r="100"/><path class="cls-3" d="M182.83,70.53a46.15,46.15,0,0,0-32.91-13.85,46.94,46.94,0,0,0-46.79,46.87,158.2,158.2,0,0,0,20.43,77.29c.87,1.51,2.3,3.82,4.25,6.85a12.25,12.25,0,0,0,10.34,5.63h23.7a12.25,12.25,0,0,0,10.34-5.63c2-3,3.39-5.34,4.25-6.85a158.28,158.28,0,0,0,20.43-76.22A48.24,48.24,0,0,0,182.83,70.53Zm-9.85,33A135.88,135.88,0,0,1,155.7,169a.91.91,0,0,1-.78.46h-9.83a.91.91,0,0,1-.79-.46A133.87,133.87,0,0,1,127,103.55a23,23,0,1,1,46,0Z"/></svg>