<svg id="Calque_1" data-name="Calque 1" xmlns="http://www.w3.org/2000/svg" viewBox="0 0 300 250"><defs><style>.cls-1{fill:#2360ad;}.cls-2{fill:#fff;}</style></defs><path class="cls-1" d="M68,196.54v22H64.52v-22H56.09V193.3H76.44v3.24Z"/><path class="cls-1" d="M85.29,204.79a10.7,10.7,0,0,0-1.46-.11c-2.81,0-4.69,1.5-4.69,5.27v8.57H75.79V201.41h3.28v3a5.34,5.34,0,0,1,5.12-3.27,7.12,7.12,0,0,1,1.1.1Z"/><path class="cls-1" d="M90.34,192.52A2.4,2.4,0,1,1,88,194.94,2.4,2.4,0,0,1,90.34,192.52Zm-1.64,26V201.41H92v17.11Z"/><path class="cls-1" d="M100.76,218.52H97.42V201.41h3.27v2.45a5.86,5.86,0,0,1,5.26-3c4.09,0,6.12,3,6.12,6.76v10.85h-3.34V208.24c0-2.38-1-4.31-4-4.31-2.63,0-4,2.1-4,4.7Z"/><path class="cls-1" d="M125.34,208.63l7.43,9.89h-4.2L123,211l-2.38,2.38v5.16H117.3V192.77h3.31V209l7.39-7.58h4.63Z"/><path class="cls-1" d="M149.63,201.41l4.44,12.88,3.77-12.88h3.52l-5.54,17.11h-3.45l-4.56-13-4.44,13h-3.52l-5.62-17.11h3.66l3.84,12.88,4.45-12.88Z"/><path class="cls-1" d="M168.73,208.74l4.62-.68c1-.14,1.31-.68,1.31-1.28,0-1.67-1.1-3.06-3.69-3.06a3.63,3.63,0,0,0-3.88,3.45l-3.2-.75c.35-3.27,3.31-5.54,7-5.54,5.13,0,7.12,2.91,7.12,6.26v8.57a16.43,16.43,0,0,0,.21,2.81H175a12.6,12.6,0,0,1-.18-2.31,6.23,6.23,0,0,1-5.51,2.84c-3.49,0-5.73-2.42-5.73-5.12C163.53,210.87,165.77,209.16,168.73,208.74Zm5.93,2.45v-.78l-5.22.78a2.55,2.55,0,0,0-2.49,2.56,2.59,2.59,0,0,0,2.77,2.49C172.46,216.24,174.66,214.92,174.66,211.19Z"/><path class="cls-1" d="M184.94,213a3.66,3.66,0,0,0,4,3.2c1.88,0,2.91-1.07,2.91-2.28s-.78-1.89-2.2-2.21l-2.92-.64c-2.67-.57-4.27-2.38-4.27-4.8,0-2.91,2.74-5.4,6.08-5.4,4.7,0,6.16,3.05,6.51,4.58l-2.95,1.11a3.32,3.32,0,0,0-3.56-2.85,2.58,2.58,0,0,0-2.84,2.28c0,1,.64,1.78,2,2.06l2.77.61c3.09.67,4.73,2.56,4.73,5.08s-2,5.3-6.26,5.3c-4.7,0-6.69-3-7-5Z"/><path class="cls-1" d="M201.12,213a3.66,3.66,0,0,0,4,3.2c1.88,0,2.91-1.07,2.91-2.28s-.78-1.89-2.2-2.21l-2.92-.64c-2.67-.57-4.27-2.38-4.27-4.8,0-2.91,2.74-5.4,6.09-5.4,4.69,0,6.15,3.05,6.51,4.58l-3,1.11a3.31,3.31,0,0,0-3.55-2.85,2.58,2.58,0,0,0-2.85,2.28c0,1,.64,1.78,2,2.06l2.77.61c3.1.67,4.73,2.56,4.73,5.08s-2,5.3-6.26,5.3c-4.69,0-6.68-3-7-5Z"/><path class="cls-1" d="M230.79,213.64a7.75,7.75,0,0,1-7.69,5.41c-4.59,0-8.6-3.34-8.6-9.14,0-5.37,3.87-9,8.18-9,5.26,0,8.21,3.62,8.21,9a7,7,0,0,1-.07,1.07H218a5.08,5.08,0,0,0,5.15,5.19,4.65,4.65,0,0,0,4.8-3.45Zm-3.38-5.44a4.32,4.32,0,0,0-4.7-4.37,4.6,4.6,0,0,0-4.66,4.37Z"/><path class="cls-1" d="M244.58,204.79a10.45,10.45,0,0,0-1.45-.11c-2.81,0-4.7,1.5-4.7,5.27v8.57h-3.34V201.41h3.27v3a5.34,5.34,0,0,1,5.12-3.27,7,7,0,0,1,1.1.1Z"/><polygon points="61.07 146.06 75.22 146.06 75.22 182.27 85.47 182.27 85.47 146.06 99.68 146.06 99.68 136.26 61.07 136.26 61.07 146.06"/><polygon points="116.16 163.71 133.29 163.71 133.29 154.69 116.16 154.69 116.16 145.93 135.04 145.93 135.04 136.26 105.91 136.26 105.91 182.27 135.11 182.27 135.11 172.54 116.16 172.54 116.16 163.71"/><polygon class="cls-1" points="159.18 164.17 159.18 164.17 184.3 136.26 170.8 136.26 168.79 138.57 143.74 167.4 143.74 181.33 157.36 166.19 159.18 164.17"/><polygon points="160.94 166.74 171.58 182.27 184.36 182.27 168.14 158.73 160.94 166.74"/><polygon points="153.99 136.26 143.74 136.26 143.74 162.79 153.99 150.99 153.99 136.26"/><path d="M208.24,154.89l-6.17-1.17c-3.18-.59-4.54-2.21-4.54-4.41,0-2.54,2.47-4.94,6.3-4.94,5.58,0,7.33,3.64,7.65,5.78l9.22-2.6c-1-5.38-5.32-12.26-16.81-12.26-8.82,0-16.48,6.1-16.48,14.79,0,6.82,4.74,12,12.52,13.5l6.3,1.17c3.05.58,4.93,2.27,4.93,4.61,0,2.85-2.47,4.8-6.49,4.8-6.3,0-9.15-3.7-9.54-7.92l-9.41,2.27c.65,6.49,6.1,14.73,18.82,14.73,11,0,17-7.33,17-14.53C221.54,162.15,217,156.51,208.24,154.89Z"/><rect x="228.55" y="136.26" width="10.38" height="46.01"/><circle class="cls-1" cx="150" cy="68.23" r="45"/><path class="cls-2" d="M150.21,94.23h0a20.62,20.62,0,0,1-5.53-.75c-11.59-3.23-16.74-16.85-10.8-27.32L146.49,44a3.41,3.41,0,0,1,5.87-.11L165.75,65.5c7.33,11.85-.23,27.74-14.13,28.68C151.16,94.22,150.69,94.23,150.21,94.23Z"/></svg>