<?xml version="1.0" encoding="UTF-8"?>
<svg id="Calque_2" data-name="Calque 2" xmlns="http://www.w3.org/2000/svg" viewBox="0 0 200 200">
  <defs>
    <style>
      .cls-1 {
        fill: #fff;
      }

      .cls-2 {
        fill: #de9933;
      }
    </style>
  </defs>
  <g id="Calque_1-2" data-name="Calque 1">
    <g>
      <circle class="cls-2" cx="100" cy="100" r="100"/>
      <path class="cls-1" d="M106.69,112.17c.06-.03.12-.07.18-.11,10.74-5.97,18.54-15.73,21.96-27.54,7.11-24.5-7.03-50.22-31.54-57.34-7.36-2.13-15.07,2.1-17.21,9.47-2.14,7.37,2.1,15.07,9.47,17.21,9.79,2.84,15.45,13.12,12.61,22.92-1.38,4.74-4.52,8.67-8.85,11.05h0c-10.83,5.96-18.69,15.78-22.14,27.64-7.11,24.5,7.03,50.23,31.54,57.34,1.29.38,2.6.55,3.88.55,6.02,0,11.57-3.95,13.33-10.02,2.14-7.37-2.1-15.07-9.47-17.21-9.79-2.84-15.45-13.12-12.61-22.92,1.38-4.74,4.52-8.67,8.85-11.05Z"/>
    </g>
  </g>
</svg>