<?xml version="1.0" encoding="UTF-8"?>
<svg id="Calque_2" data-name="Calque 2" xmlns="http://www.w3.org/2000/svg" viewBox="0 0 177.86 195.82">
  <defs>
    <style>
      .cls-1 {
        fill: #fff;
      }

      .cls-2 {
        fill: #de9933;
      }
    </style>
  </defs>
  <g id="Calque_1-2" data-name="Calque 1">
    <g>
      <g>
        <path class="cls-2" d="M62.78,170.07h3.59l-7.19,25.22h-3.59l-6.58-20.45-6.51,20.45h-3.49l-7.29-25.22h3.59l5.55,19.74,6.33-19.74h3.66l6.47,19.95,5.44-19.95Z"/>
        <path class="cls-2" d="M72.34,185.51l4.62-.68c1.03-.14,1.32-.68,1.32-1.28,0-1.67-1.1-3.06-3.7-3.06-2.35,0-3.66,1.46-3.88,3.45l-3.2-.75c.36-3.27,3.31-5.55,7.01-5.55,5.12,0,7.11,2.92,7.11,6.26v8.57c0,1.49.14,2.38.21,2.81h-3.27c-.07-.43-.18-1.07-.18-2.31-.75,1.21-2.45,2.84-5.51,2.84-3.49,0-5.73-2.42-5.73-5.12,0-3.06,2.24-4.77,5.19-5.19ZM71.31,171.14c1.17,0,2.1.92,2.1,2.06s-.92,2.06-2.1,2.06-2.03-.89-2.03-2.06.89-2.06,2.03-2.06ZM78.28,187.96v-.78l-5.23.78c-1.42.21-2.49,1.03-2.49,2.56,0,1.28,1.07,2.49,2.77,2.49,2.74,0,4.94-1.32,4.94-5.05ZM78,171.14c1.14,0,2.06.92,2.06,2.06s-.92,2.06-2.06,2.06-2.06-.89-2.06-2.06.89-2.06,2.06-2.06Z"/>
        <path class="cls-2" d="M96.38,181.56c-.5-.07-1-.11-1.46-.11-2.81,0-4.69,1.49-4.69,5.26v8.57h-3.34v-17.11h3.27v2.99c1.25-2.63,3.38-3.27,5.12-3.27.46,0,.92.07,1.1.11v3.56Z"/>
        <path class="cls-2" d="M99.8,195.29v-17.11h3.2v2.28c1.07-1.88,3.2-2.77,5.19-2.77,2.13,0,4.2,1.03,5.12,3.24,1.35-2.46,3.56-3.24,5.73-3.24,2.99,0,5.9,2.03,5.9,6.51v11.1h-3.31v-10.74c0-2.24-1.1-3.91-3.63-3.91-2.35,0-3.95,1.85-3.95,4.3v10.35h-3.34v-10.74c0-2.21-1.07-3.91-3.63-3.91-2.38,0-3.98,1.78-3.98,4.34v10.31h-3.31Z"/>
        <path class="cls-2" d="M145.32,190.41c-.96,3.02-3.7,5.41-7.68,5.41-4.59,0-8.61-3.34-8.61-9.14,0-5.37,3.88-9.03,8.18-9.03,5.26,0,8.22,3.63,8.22,8.96,0,.43-.04.85-.07,1.07h-12.88c.07,3.06,2.28,5.19,5.16,5.19s4.16-1.53,4.8-3.45l2.88,1ZM141.94,184.97c-.07-2.45-1.67-4.38-4.7-4.38-2.81,0-4.52,2.17-4.66,4.38h9.35Z"/>
      </g>
      <g>
        <polygon points="0 122.83 14.15 122.83 14.15 159.04 24.4 159.04 24.4 122.83 38.61 122.83 38.61 113.03 0 113.03 0 122.83"/>
        <polygon points="55.09 140.48 72.22 140.48 72.22 131.46 55.09 131.46 55.09 122.7 73.98 122.7 73.98 113.03 44.84 113.03 44.84 159.04 74.04 159.04 74.04 149.31 55.09 149.31 55.09 140.48"/>
        <polygon class="cls-2" points="98.11 140.93 98.11 140.94 123.23 113.03 109.73 113.03 107.72 115.34 82.67 144.17 82.67 158.1 96.29 142.96 98.11 140.93"/>
        <polygon points="99.87 143.5 110.51 159.04 123.29 159.04 107.07 135.5 99.87 143.5"/>
        <polygon points="92.92 113.03 82.67 113.03 82.67 139.56 92.92 127.76 92.92 113.03"/>
        <path d="M147.17,131.65l-6.16-1.17c-3.18-.58-4.54-2.21-4.54-4.41,0-2.53,2.47-4.93,6.29-4.93,5.58,0,7.33,3.63,7.66,5.78l9.21-2.6c-.97-5.39-5.32-12.26-16.81-12.26-8.83,0-16.48,6.1-16.48,14.8,0,6.81,4.74,12.01,12.52,13.5l6.29,1.17c3.05.58,4.93,2.27,4.93,4.61,0,2.86-2.47,4.8-6.49,4.8-6.29,0-9.15-3.7-9.54-7.92l-9.41,2.27c.65,6.49,6.1,14.73,18.82,14.73,10.97,0,17-7.33,17-14.54,0-6.55-4.54-12.2-13.3-13.82Z"/>
        <rect x="167.48" y="113.03" width="10.38" height="46.01"/>
      </g>
      <circle class="cls-2" cx="88.93" cy="45" r="45"/>
      <path class="cls-1" d="M91.94,50.48s.05-.03.08-.05c4.83-2.68,8.34-7.08,9.88-12.39,3.2-11.03-3.17-22.6-14.19-25.8-3.31-.96-6.78.94-7.74,4.26-.96,3.31.94,6.78,4.26,7.74,4.41,1.28,6.95,5.91,5.67,10.31-.62,2.13-2.03,3.9-3.98,4.97h0c-4.87,2.68-8.41,7.1-9.96,12.44-3.2,11.03,3.16,22.6,14.19,25.8.58.17,1.17.25,1.75.25,2.71,0,5.21-1.78,6-4.51.96-3.31-.94-6.78-4.26-7.74-4.41-1.28-6.95-5.91-5.67-10.31.62-2.13,2.03-3.9,3.98-4.97Z"/>
    </g>
  </g>
</svg>