<svg id="Calque_1" data-name="Calque 1" xmlns="http://www.w3.org/2000/svg" viewBox="0 0 500 300"><defs><style>.cls-1{fill:#968b83;}</style></defs><path class="cls-1" d="M89.13,199.16,88.85,196c-1,1.77-3.42,3.63-7.18,3.63-5.62,0-10.87-4.1-10.87-11.69s5.56-11.66,11.09-11.66c4.87,0,8.63,2.72,9.93,6.76L89,184.25a7.06,7.06,0,0,0-7.11-5.12c-4,0-7.93,2.87-7.93,8.81s3.79,8.88,7.81,8.88c5,0,6.79-3.54,6.92-5.84H80.91V188.2H91.63v11Z"/><path class="cls-1" d="M110,194.83a6.88,6.88,0,0,1-6.82,4.8c-4.08,0-7.65-3-7.65-8.12,0-4.77,3.44-8,7.27-8,4.67,0,7.3,3.22,7.3,8a6.75,6.75,0,0,1-.07,1H98.58a4.52,4.52,0,0,0,4.59,4.61,4.14,4.14,0,0,0,4.26-3.06ZM107,190a3.83,3.83,0,0,0-4.17-3.89A4.08,4.08,0,0,0,98.68,190Z"/><path class="cls-1" d="M115.78,194.26a3.24,3.24,0,0,0,3.54,2.85c1.67,0,2.59-1,2.59-2s-.7-1.67-2-2l-2.59-.57c-2.37-.51-3.79-2.12-3.79-4.27,0-2.59,2.43-4.8,5.4-4.8,4.17,0,5.47,2.71,5.78,4.07l-2.62,1A3,3,0,0,0,119,186a2.29,2.29,0,0,0-2.53,2c0,.91.57,1.58,1.74,1.83l2.46.54c2.75.6,4.21,2.27,4.21,4.52s-1.8,4.7-5.56,4.7c-4.18,0-6-2.68-6.2-4.42Z"/><path class="cls-1" d="M133.29,184h3.28v2.69h-3.28v7.9c0,1.39.57,2.08,2.11,2.08a6.3,6.3,0,0,0,1.17-.12V199a6.26,6.26,0,0,1-2,.29c-2.59,0-4.23-1.58-4.23-4.33v-8.34h-2.91V184h.82a2.13,2.13,0,0,0,2.34-2.34v-2.46h2.72Z"/><path class="cls-1" d="M142,176.06a2.14,2.14,0,1,1,0,4.27,2.14,2.14,0,0,1,0-4.27Zm-1.45,23.1V184h2.94v15.2Z"/><path class="cls-1" d="M163.34,191.54c0,4.65-3.22,8.09-7.77,8.09s-7.77-3.44-7.77-8.09,3.22-8,7.77-8S163.34,186.93,163.34,191.54Zm-3,0c0-3.5-2.21-5.4-4.74-5.4s-4.74,1.9-4.74,5.4S153,197,155.57,197,160.31,195.08,160.31,191.54Z"/><path class="cls-1" d="M170.58,199.16h-3V184h2.91v2.18a5.22,5.22,0,0,1,4.68-2.62c3.63,0,5.43,2.62,5.43,6v9.64h-3V190c0-2.12-.88-3.83-3.54-3.83-2.34,0-3.54,1.87-3.54,4.18Z"/><path class="cls-1" d="M208.73,191.54c0,4.65-3.22,8.09-7.77,8.09s-7.78-3.44-7.78-8.09,3.23-8,7.78-8S208.73,186.93,208.73,191.54Zm-3,0c0-3.5-2.22-5.4-4.74-5.4s-4.74,1.9-4.74,5.4S198.43,197,201,197,205.7,195.08,205.7,191.54Z"/><path class="cls-1" d="M213,205.17V184h2.88v2.37a5.59,5.59,0,0,1,5.08-2.72c4.55,0,7,3.51,7,7.93s-2.63,8-7.08,8a5.64,5.64,0,0,1-4.93-2.46v8.06Zm7.43-18.93c-2.72,0-4.52,2.27-4.52,5.3s1.8,5.38,4.52,5.38,4.48-2.25,4.48-5.38S223.21,186.24,220.43,186.24Z"/><path class="cls-1" d="M245.71,194.83a6.88,6.88,0,0,1-6.82,4.8c-4.08,0-7.65-3-7.65-8.12,0-4.77,3.44-8,7.27-8,4.67,0,7.3,3.22,7.3,8a6.75,6.75,0,0,1-.07,1H234.3a4.52,4.52,0,0,0,4.59,4.61,4.14,4.14,0,0,0,4.26-3.06Zm-3-4.83a3.83,3.83,0,0,0-4.17-3.89A4.08,4.08,0,0,0,234.4,190Z"/><path class="cls-1" d="M253,199.16h-3V184h2.91v2.18a5.22,5.22,0,0,1,4.68-2.62c3.63,0,5.43,2.62,5.43,6v9.64h-3V190c0-2.12-.88-3.83-3.54-3.83-2.34,0-3.54,1.87-3.54,4.18Z"/><path class="cls-1" d="M278.08,194.26a3.24,3.24,0,0,0,3.54,2.85c1.67,0,2.59-1,2.59-2s-.7-1.67-2-2l-2.59-.57c-2.37-.51-3.79-2.12-3.79-4.27,0-2.59,2.43-4.8,5.4-4.8,4.17,0,5.47,2.71,5.78,4.07l-2.62,1a3,3,0,0,0-3.16-2.53,2.29,2.29,0,0,0-2.53,2c0,.91.57,1.58,1.74,1.83l2.47.54c2.74.6,4.2,2.27,4.2,4.52s-1.8,4.7-5.56,4.7c-4.18,0-5.94-2.68-6.2-4.42Z"/><path class="cls-1" d="M306,191.54c0,4.65-3.22,8.09-7.77,8.09s-7.77-3.44-7.77-8.09,3.22-8,7.77-8S306,186.93,306,191.54Zm-3,0c0-3.5-2.21-5.4-4.74-5.4s-4.74,1.9-4.74,5.4,2.21,5.44,4.74,5.44S303,195.08,303,191.54Z"/><path class="cls-1" d="M315.78,199.63c-3.53,0-5.68-2.65-5.68-6.09V184h3v9.13c0,2.09.95,3.92,3.44,3.92s3.6-1.58,3.6-3.88V184h3v12.39a26.3,26.3,0,0,0,.16,2.81H320.4a13.92,13.92,0,0,1-.13-1.83A5,5,0,0,1,315.78,199.63Z"/><path class="cls-1" d="M336.83,187a9.66,9.66,0,0,0-1.29-.09c-2.5,0-4.17,1.33-4.17,4.67v7.62h-3V184h2.9v2.66a4.77,4.77,0,0,1,4.55-2.91,5.68,5.68,0,0,1,1,.09Z"/><path class="cls-1" d="M342.08,191.54c0,3.48,2.18,5.35,4.65,5.35a4.12,4.12,0,0,0,4.23-3.13l2.63,1.13a7,7,0,0,1-6.86,4.74c-4.43,0-7.68-3.47-7.68-8.09s3.32-8,7.65-8a6.6,6.6,0,0,1,6.76,4.83l-2.69,1.14a4,4,0,0,0-4.07-3.22C344.29,186.24,342.08,188,342.08,191.54Z"/><path class="cls-1" d="M371,194.83a6.87,6.87,0,0,1-6.82,4.8c-4.08,0-7.65-3-7.65-8.12,0-4.77,3.44-8,7.27-8,4.67,0,7.3,3.22,7.3,8a5.51,5.51,0,0,1-.07,1H359.62a4.52,4.52,0,0,0,4.59,4.61,4.14,4.14,0,0,0,4.26-3.06ZM368,190a3.83,3.83,0,0,0-4.17-3.89,4.09,4.09,0,0,0-4.14,3.89Z"/><path class="cls-1" d="M394.71,196.85a5.09,5.09,0,0,1-4.71,2.72c-4.46,0-7.21-3.54-7.21-8.06,0-4.29,2.91-8,7.21-8,2.68,0,4.14,1.33,4.64,2.56v-9.83h2.94v20.07a24.19,24.19,0,0,0,.16,2.81h-2.88a13.43,13.43,0,0,1-.15-2Zm-4.43.1c2.72,0,4.4-2.37,4.4-5.5s-1.65-5.28-4.37-5.28-4.48,2.21-4.48,5.34S387.44,197,390.28,197Z"/><path class="cls-1" d="M416.36,194.83a6.89,6.89,0,0,1-6.83,4.8c-4.08,0-7.65-3-7.65-8.12,0-4.77,3.45-8,7.27-8,4.68,0,7.3,3.22,7.3,8a7.06,7.06,0,0,1-.06,1H405a4.51,4.51,0,0,0,4.58,4.61A4.15,4.15,0,0,0,413.8,194Zm-3-4.83a3.84,3.84,0,0,0-4.18-3.89A4.1,4.1,0,0,0,405,190Z"/><path class="cls-1" d="M422.14,194.26a3.24,3.24,0,0,0,3.54,2.85c1.68,0,2.59-1,2.59-2s-.69-1.67-2-2l-2.59-.57c-2.37-.51-3.79-2.12-3.79-4.27,0-2.59,2.43-4.8,5.4-4.8,4.18,0,5.47,2.71,5.79,4.07l-2.62,1a3,3,0,0,0-3.17-2.53,2.29,2.29,0,0,0-2.52,2c0,.91.57,1.58,1.73,1.83l2.47.54c2.75.6,4.2,2.27,4.2,4.52s-1.8,4.7-5.56,4.7c-4.17,0-5.94-2.68-6.19-4.42Z"/><path class="cls-1" d="M73.11,212A2.14,2.14,0,1,1,71,214.16,2.13,2.13,0,0,1,73.11,212Zm-1.46,23.1v-15.2h2.94v15.2Z"/><path class="cls-1" d="M82.37,235.11h-3v-15.2h2.91v2.18A5.2,5.2,0,0,1,87,219.47c3.64,0,5.44,2.62,5.44,6v9.63h-3V226c0-2.12-.89-3.82-3.54-3.82-2.34,0-3.54,1.86-3.54,4.17Z"/><path class="cls-1" d="M101.21,222.6v12.51H98.14V222.6H95.33v-2.69h2.81v-2.56a4.81,4.81,0,0,1,5-5.21,3.72,3.72,0,0,1,1.77.32v2.65a3.41,3.41,0,0,0-1.29-.19,2.28,2.28,0,0,0-2.4,2.59v2.4h3.66v2.69Z"/><path class="cls-1" d="M116.41,222.92a8.41,8.41,0,0,0-1.3-.1c-2.49,0-4.17,1.33-4.17,4.68v7.61h-3v-15.2h2.91v2.66a4.75,4.75,0,0,1,4.55-2.91,4.8,4.8,0,0,1,1,.1Z"/><path class="cls-1" d="M123.05,226.42l4.1-.6c.92-.12,1.17-.6,1.17-1.13,0-1.49-1-2.72-3.28-2.72a3.22,3.22,0,0,0-3.45,3.06l-2.84-.66c.31-2.91,2.94-4.93,6.22-4.93,4.55,0,6.32,2.59,6.32,5.56v7.62a14.61,14.61,0,0,0,.19,2.49h-2.9a10.39,10.39,0,0,1-.16-2.05,5.55,5.55,0,0,1-4.9,2.53c-3.1,0-5.09-2.15-5.09-4.55C118.43,228.32,120.42,226.8,123.05,226.42Zm5.27,2.18v-.69l-4.64.69a2.27,2.27,0,0,0-2.21,2.28,2.3,2.3,0,0,0,2.46,2.21C126.36,233.09,128.32,231.92,128.32,228.6Z"/><path class="cls-1" d="M137.46,230.22a3.24,3.24,0,0,0,3.54,2.84c1.67,0,2.59-.95,2.59-2s-.69-1.68-2-2l-2.59-.57c-2.37-.51-3.79-2.12-3.79-4.27,0-2.59,2.43-4.8,5.4-4.8,4.17,0,5.47,2.72,5.78,4.08l-2.62,1a3,3,0,0,0-3.16-2.53,2.3,2.3,0,0,0-2.53,2c0,.92.57,1.58,1.74,1.83l2.47.54c2.75.6,4.2,2.28,4.2,4.52s-1.8,4.71-5.56,4.71c-4.17,0-5.94-2.69-6.2-4.43Z"/><path class="cls-1" d="M154.5,219.91h3.28v2.69H154.5v7.9c0,1.39.56,2.09,2.11,2.09a6.22,6.22,0,0,0,1.17-.13V235a6.68,6.68,0,0,1-2,.28,4,4,0,0,1-4.24-4.33V222.6h-2.9v-2.69h.82a2.13,2.13,0,0,0,2.34-2.33v-2.47h2.72Z"/><path class="cls-1" d="M169.76,222.92a8.31,8.31,0,0,0-1.3-.1c-2.49,0-4.17,1.33-4.17,4.68v7.61h-3v-15.2h2.91v2.66a5,5,0,0,1,5.53-2.81Z"/><path class="cls-1" d="M178.33,235.59c-3.54,0-5.69-2.66-5.69-6.1v-9.58h3v9.14c0,2.08.95,3.92,3.44,3.92s3.61-1.58,3.61-3.89v-9.17h3V232.3a26.75,26.75,0,0,0,.15,2.81h-2.84a13.78,13.78,0,0,1-.13-1.83A5,5,0,0,1,178.33,235.59Z"/><path class="cls-1" d="M192.49,227.5c0,3.47,2.18,5.34,4.64,5.34a4.14,4.14,0,0,0,4.24-3.13l2.62,1.14a7,7,0,0,1-6.86,4.74c-4.42,0-7.68-3.48-7.68-8.09s3.32-8.06,7.65-8.06a6.61,6.61,0,0,1,6.76,4.83l-2.68,1.14a4,4,0,0,0-4.08-3.22C194.7,222.19,192.49,224,192.49,227.5Z"/><path class="cls-1" d="M211.64,219.91h3.29v2.69h-3.29v7.9c0,1.39.57,2.09,2.12,2.09a6.32,6.32,0,0,0,1.17-.13V235a6.76,6.76,0,0,1-2,.28c-2.59,0-4.23-1.58-4.23-4.33V222.6h-2.91v-2.69h.82a2.12,2.12,0,0,0,2.34-2.33v-2.47h2.72Z"/><path class="cls-1" d="M224,235.59c-3.54,0-5.69-2.66-5.69-6.1v-9.58h3v9.14c0,2.08.95,3.92,3.44,3.92s3.61-1.58,3.61-3.89v-9.17h3V232.3a23.71,23.71,0,0,0,.16,2.81h-2.85a14,14,0,0,1-.12-1.83A5,5,0,0,1,224,235.59Z"/><path class="cls-1" d="M244.57,222.92a8.28,8.28,0,0,0-1.29-.1c-2.5,0-4.17,1.33-4.17,4.68v7.61h-3v-15.2H239v2.66a4.77,4.77,0,0,1,4.55-2.91,4.63,4.63,0,0,1,1,.1Z"/><path class="cls-1" d="M260.79,230.79a6.9,6.9,0,0,1-6.83,4.8c-4.07,0-7.65-3-7.65-8.12,0-4.77,3.45-8,7.27-8,4.68,0,7.3,3.22,7.3,8a7.06,7.06,0,0,1-.06.95H249.38A4.51,4.51,0,0,0,254,233a4.14,4.14,0,0,0,4.27-3.07Zm-3-4.84a3.84,3.84,0,0,0-4.18-3.89,4.1,4.1,0,0,0-4.14,3.89Z"/><path class="cls-1" d="M266.1,230.22a3.24,3.24,0,0,0,3.54,2.84c1.67,0,2.59-.95,2.59-2s-.69-1.68-2-2l-2.59-.57c-2.37-.51-3.79-2.12-3.79-4.27,0-2.59,2.43-4.8,5.4-4.8,4.17,0,5.47,2.72,5.78,4.08l-2.62,1a3,3,0,0,0-3.16-2.53,2.29,2.29,0,0,0-2.53,2c0,.92.57,1.58,1.74,1.83l2.47.54c2.75.6,4.2,2.28,4.2,4.52s-1.8,4.71-5.56,4.71c-4.17,0-5.94-2.69-6.2-4.43Z"/><path class="cls-1" d="M287,241.12V219.91h2.88v2.37a5.6,5.6,0,0,1,5.08-2.71c4.55,0,7,3.5,7,7.93s-2.63,8-7.08,8a5.64,5.64,0,0,1-4.93-2.46v8.06Zm7.43-18.93c-2.72,0-4.52,2.27-4.52,5.31s1.8,5.37,4.52,5.37,4.48-2.24,4.48-5.37S297.17,222.19,294.39,222.19Z"/><path class="cls-1" d="M311.26,235.59c-3.53,0-5.68-2.66-5.68-6.1v-9.58h3v9.14c0,2.08.95,3.92,3.44,3.92s3.6-1.58,3.6-3.89v-9.17h3V232.3a26.12,26.12,0,0,0,.16,2.81h-2.84a13.78,13.78,0,0,1-.13-1.83A5,5,0,0,1,311.26,235.59Z"/><path class="cls-1" d="M323.4,235.11V212.24h2.94v9.82a5.55,5.55,0,0,1,5-2.59c4.61,0,7,3.54,7,8s-2.56,8.08-7.08,8.08a5.41,5.41,0,0,1-4.93-2.62v2.21Zm7.43-13c-2.62,0-4.52,2.06-4.52,5.35s1.9,5.43,4.52,5.43,4.49-2.15,4.49-5.43S333.58,222.09,330.83,222.09Z"/><path class="cls-1" d="M342.18,235.11V212.24h3v22.87Z"/><path class="cls-1" d="M351.41,212a2.14,2.14,0,1,1-2.12,2.15A2.13,2.13,0,0,1,351.41,212ZM350,235.11v-15.2h2.94v15.2Z"/><path class="cls-1" d="M368.66,241.12V233a5.09,5.09,0,0,1-4.74,2.55c-4.36,0-7.2-3.63-7.2-8.05s2.68-7.93,7.14-7.93a5.1,5.1,0,0,1,4.86,2.71v-2.34h2.88v21.21Zm-4.45-8.22c2.68,0,4.48-2.3,4.48-5.43s-1.8-5.31-4.48-5.31-4.46,2.18-4.46,5.31S361.49,232.9,364.21,232.9Z"/><path class="cls-1" d="M381.94,235.59c-3.54,0-5.69-2.66-5.69-6.1v-9.58h3v9.14c0,2.08.95,3.92,3.44,3.92s3.61-1.58,3.61-3.89v-9.17h3V232.3a23.71,23.71,0,0,0,.16,2.81h-2.85a13.78,13.78,0,0,1-.13-1.83A5,5,0,0,1,381.94,235.59Z"/><path class="cls-1" d="M407.54,230.79a6.9,6.9,0,0,1-6.83,4.8c-4.07,0-7.65-3-7.65-8.12,0-4.77,3.45-8,7.27-8,4.68,0,7.3,3.22,7.3,8a7.06,7.06,0,0,1-.06.95H396.13a4.51,4.51,0,0,0,4.58,4.62A4.14,4.14,0,0,0,405,229.9Zm-3-4.84a3.84,3.84,0,0,0-4.18-3.89,4.1,4.1,0,0,0-4.14,3.89Z"/><path class="cls-1" d="M412.85,230.22a3.24,3.24,0,0,0,3.54,2.84c1.67,0,2.59-.95,2.59-2s-.69-1.68-2-2l-2.59-.57c-2.37-.51-3.79-2.12-3.79-4.27,0-2.59,2.43-4.8,5.4-4.8,4.17,0,5.47,2.72,5.79,4.08l-2.63,1A3,3,0,0,0,416,222a2.29,2.29,0,0,0-2.53,2c0,.92.57,1.58,1.74,1.83l2.47.54c2.75.6,4.2,2.28,4.2,4.52s-1.8,4.71-5.56,4.71c-4.17,0-5.94-2.69-6.2-4.43Z"/><polygon points="66.89 78.93 94.96 78.93 94.96 150.77 115.3 150.77 115.3 78.93 143.5 78.93 143.5 59.48 66.89 59.48 66.89 78.93"/><polygon points="176.19 113.94 210.18 113.94 210.18 96.05 176.19 96.05 176.19 78.67 213.66 78.67 213.66 59.48 155.85 59.48 155.85 150.77 213.79 150.77 213.79 131.46 176.19 131.46 176.19 113.94"/><polygon class="cls-1" points="311.38 59.48 284.59 59.48 230.91 121.26 230.91 148.9 311.38 59.48"/><polygon points="265.04 119.94 286.14 150.77 311.5 150.77 279.32 104.07 265.04 119.94"/><polygon points="251.25 59.48 230.91 59.48 230.91 112.11 251.25 88.71 251.25 59.48"/><path d="M358.88,96.44l-12.23-2.32c-6.31-1.16-9-4.38-9-8.76,0-5,4.9-9.78,12.49-9.78,11.07,0,14.55,7.21,15.19,11.46l18.29-5.15C381.67,71.2,373,57.55,350.25,57.55c-17.51,0-32.7,12.1-32.7,29.36,0,13.52,9.4,23.82,24.85,26.78L354.89,116c6.05,1.15,9.78,4.5,9.78,9.14,0,5.66-4.89,9.52-12.87,9.52-12.49,0-18.16-7.33-18.93-15.7l-18.67,4.5c1.29,12.88,12.1,29.23,37.34,29.23,21.76,0,33.73-14.55,33.73-28.84C385.27,110.86,376.26,99.66,358.88,96.44Z"/><rect x="399.17" y="59.48" width="20.6" height="91.28"/></svg>