<svg id="Calque_1" data-name="Calque 1" xmlns="http://www.w3.org/2000/svg" viewBox="0 0 895.14 503.52"><defs><style>.cls-1{fill:#968b83;}.cls-2{fill:#fff;}</style></defs><path class="cls-1" d="M268.83,390.52l-.29-3.16c-1,1.77-3.41,3.64-7.17,3.64-5.63,0-10.87-4.11-10.87-11.7s5.56-11.66,11.09-11.66c4.87,0,8.63,2.72,9.92,6.77l-2.81,1.2a7.06,7.06,0,0,0-7.11-5.12c-4,0-7.93,2.87-7.93,8.81s3.79,8.88,7.8,8.88c5,0,6.8-3.54,6.92-5.84h-7.77v-2.78h10.71v11Z"/><path class="cls-1" d="M289.69,386.19a6.9,6.9,0,0,1-6.83,4.81c-4.08,0-7.65-3-7.65-8.12,0-4.78,3.45-8,7.27-8,4.68,0,7.3,3.22,7.3,8a7.06,7.06,0,0,1-.06.95H278.28a4.51,4.51,0,0,0,4.58,4.61,4.15,4.15,0,0,0,4.27-3.06Zm-3-4.83a3.83,3.83,0,0,0-4.17-3.89,4.1,4.1,0,0,0-4.14,3.89Z"/><path class="cls-1" d="M295.47,385.62a3.24,3.24,0,0,0,3.54,2.85c1.68,0,2.59-1,2.59-2s-.69-1.68-2-2l-2.59-.57c-2.37-.51-3.79-2.12-3.79-4.27,0-2.59,2.43-4.8,5.4-4.8,4.18,0,5.47,2.72,5.79,4.08l-2.62,1a3,3,0,0,0-3.17-2.53,2.29,2.29,0,0,0-2.52,2c0,.92.57,1.58,1.73,1.83l2.47.54c2.75.6,4.2,2.27,4.2,4.52S302.74,391,299,391c-4.17,0-5.94-2.69-6.19-4.43Z"/><path class="cls-1" d="M313,375.32h3.29V378H313v7.9c0,1.39.57,2.08,2.12,2.08a6.3,6.3,0,0,0,1.17-.12v2.53a6.68,6.68,0,0,1-2,.28,4,4,0,0,1-4.24-4.33V378H307.1v-2.69h.83a2.13,2.13,0,0,0,2.34-2.34v-2.46H313Z"/><path class="cls-1" d="M321.74,367.42a2.14,2.14,0,1,1-2.12,2.15A2.13,2.13,0,0,1,321.74,367.42Zm-1.46,23.1v-15.2h2.94v15.2Z"/><path class="cls-1" d="M343,382.91c0,4.64-3.22,8.09-7.78,8.09s-7.77-3.45-7.77-8.09,3.22-8.06,7.77-8.06S343,378.29,343,382.91Zm-3,0c0-3.51-2.21-5.41-4.74-5.41s-4.74,1.9-4.74,5.41,2.22,5.43,4.74,5.43S340,386.45,340,382.91Z"/><path class="cls-1" d="M350.28,390.52h-3v-15.2h2.91v2.18a5.2,5.2,0,0,1,4.67-2.62c3.64,0,5.44,2.62,5.44,6v9.64h-3v-9.13c0-2.12-.89-3.82-3.54-3.82-2.34,0-3.54,1.86-3.54,4.17Z"/><path class="cls-1" d="M388.43,382.91c0,4.64-3.23,8.09-7.78,8.09s-7.77-3.45-7.77-8.09,3.22-8.06,7.77-8.06S388.43,378.29,388.43,382.91Zm-3,0c0-3.51-2.21-5.41-4.74-5.41s-4.74,1.9-4.74,5.41,2.21,5.43,4.74,5.43S385.39,386.45,385.39,382.91Z"/><path class="cls-1" d="M392.7,396.53V375.32h2.87v2.37a5.62,5.62,0,0,1,5.09-2.72c4.55,0,7,3.51,7,7.94s-2.62,8-7.08,8a5.67,5.67,0,0,1-4.93-2.46v8.06Zm7.42-18.93c-2.72,0-4.52,2.27-4.52,5.31s1.8,5.37,4.52,5.37,4.49-2.24,4.49-5.37S402.9,377.6,400.12,377.6Z"/><path class="cls-1" d="M425.41,386.19a6.9,6.9,0,0,1-6.83,4.81c-4.08,0-7.65-3-7.65-8.12,0-4.78,3.45-8,7.27-8,4.68,0,7.3,3.22,7.3,8a7.06,7.06,0,0,1-.06.95H414a4.51,4.51,0,0,0,4.58,4.61,4.15,4.15,0,0,0,4.27-3.06Zm-3-4.83a3.83,3.83,0,0,0-4.17-3.89,4.1,4.1,0,0,0-4.14,3.89Z"/><path class="cls-1" d="M432.68,390.52h-3v-15.2h2.91v2.18a5.2,5.2,0,0,1,4.67-2.62c3.64,0,5.44,2.62,5.44,6v9.64h-3v-9.13c0-2.12-.89-3.82-3.54-3.82-2.34,0-3.54,1.86-3.54,4.17Z"/><path class="cls-1" d="M457.77,385.62a3.24,3.24,0,0,0,3.54,2.85c1.68,0,2.6-1,2.6-2s-.7-1.68-2-2l-2.6-.57c-2.37-.51-3.79-2.12-3.79-4.27,0-2.59,2.44-4.8,5.41-4.8,4.17,0,5.46,2.72,5.78,4.08l-2.62,1a3,3,0,0,0-3.16-2.53,2.29,2.29,0,0,0-2.53,2c0,.92.57,1.58,1.74,1.83l2.46.54c2.75.6,4.2,2.27,4.2,4.52S465,391,461.28,391c-4.17,0-5.94-2.69-6.19-4.43Z"/><path class="cls-1" d="M485.68,382.91c0,4.64-3.22,8.09-7.77,8.09s-7.78-3.45-7.78-8.09,3.23-8.06,7.78-8.06S485.68,378.29,485.68,382.91Zm-3,0c0-3.51-2.22-5.41-4.74-5.41s-4.74,1.9-4.74,5.41,2.21,5.43,4.74,5.43S482.65,386.45,482.65,382.91Z"/><path class="cls-1" d="M495.48,391c-3.54,0-5.69-2.66-5.69-6.1v-9.58h3v9.14c0,2.08.95,3.91,3.45,3.91s3.6-1.58,3.6-3.88v-9.17h3v12.39a26.12,26.12,0,0,0,.16,2.81h-2.85a14,14,0,0,1-.12-1.83A5,5,0,0,1,495.48,391Z"/><path class="cls-1" d="M516.53,378.32a9.69,9.69,0,0,0-1.3-.09c-2.49,0-4.17,1.33-4.17,4.68v7.61h-3v-15.2H511V378a4.76,4.76,0,0,1,4.55-2.91,5.92,5.92,0,0,1,1,.09Z"/><path class="cls-1" d="M521.78,382.91c0,3.47,2.18,5.34,4.64,5.34a4.14,4.14,0,0,0,4.24-3.13l2.62,1.14a7,7,0,0,1-6.86,4.74c-4.42,0-7.67-3.48-7.67-8.09s3.31-8.06,7.64-8.06a6.61,6.61,0,0,1,6.76,4.83l-2.68,1.14a4,4,0,0,0-4.08-3.22C524,377.6,521.78,379.37,521.78,382.91Z"/><path class="cls-1" d="M550.73,386.19A6.9,6.9,0,0,1,543.9,391c-4.07,0-7.64-3-7.64-8.12,0-4.78,3.44-8,7.26-8,4.68,0,7.3,3.22,7.3,8a7.06,7.06,0,0,1-.06.95H539.32a4.51,4.51,0,0,0,4.58,4.61,4.15,4.15,0,0,0,4.27-3.06Zm-3-4.83a3.84,3.84,0,0,0-4.17-3.89,4.1,4.1,0,0,0-4.15,3.89Z"/><path class="cls-1" d="M574.4,388.22a5.08,5.08,0,0,1-4.71,2.71c-4.45,0-7.2-3.54-7.2-8.05,0-4.3,2.91-8,7.2-8,2.69,0,4.14,1.33,4.65,2.56v-9.83h2.94v20.07a22,22,0,0,0,.16,2.81h-2.88a12.86,12.86,0,0,1-.16-2Zm-4.42.09c2.72,0,4.39-2.37,4.39-5.5s-1.64-5.28-4.36-5.28-4.49,2.22-4.49,5.35S567.13,388.31,570,388.31Z"/><path class="cls-1" d="M596.05,386.19a6.88,6.88,0,0,1-6.82,4.81c-4.08,0-7.65-3-7.65-8.12,0-4.78,3.44-8,7.27-8,4.67,0,7.3,3.22,7.3,8a5.51,5.51,0,0,1-.07.95H584.64a4.52,4.52,0,0,0,4.59,4.61,4.14,4.14,0,0,0,4.26-3.06Zm-3-4.83a3.83,3.83,0,0,0-4.17-3.89,4.09,4.09,0,0,0-4.14,3.89Z"/><path class="cls-1" d="M601.84,385.62a3.24,3.24,0,0,0,3.54,2.85c1.67,0,2.59-1,2.59-2s-.7-1.68-2-2l-2.59-.57c-2.37-.51-3.79-2.12-3.79-4.27,0-2.59,2.43-4.8,5.4-4.8,4.17,0,5.47,2.72,5.78,4.08l-2.62,1a3,3,0,0,0-3.16-2.53,2.29,2.29,0,0,0-2.53,2c0,.92.57,1.58,1.74,1.83l2.47.54c2.75.6,4.2,2.27,4.2,4.52s-1.8,4.71-5.56,4.71c-4.17,0-5.94-2.69-6.2-4.43Z"/><path class="cls-1" d="M252.8,403.38a2.13,2.13,0,1,1-2.11,2.14A2.13,2.13,0,0,1,252.8,403.38Zm-1.45,23.1v-15.2h2.94v15.2Z"/><path class="cls-1" d="M262.06,426.48h-3v-15.2H262v2.18a5.21,5.21,0,0,1,4.68-2.63c3.63,0,5.43,2.63,5.43,6v9.64h-3v-9.14c0-2.11-.88-3.82-3.54-3.82-2.33,0-3.54,1.86-3.54,4.17Z"/><path class="cls-1" d="M280.9,414v12.52h-3.06V414H275v-2.68h2.82v-2.56a4.82,4.82,0,0,1,5-5.22,3.76,3.76,0,0,1,1.77.32v2.65a3.53,3.53,0,0,0-1.3-.19,2.28,2.28,0,0,0-2.4,2.59v2.41h3.67V414Z"/><path class="cls-1" d="M296.1,414.28a9.71,9.71,0,0,0-1.29-.1c-2.5,0-4.17,1.33-4.17,4.68v7.62h-3v-15.2h2.9v2.65a4.77,4.77,0,0,1,4.55-2.91,5.43,5.43,0,0,1,1,.1Z"/><path class="cls-1" d="M302.74,417.79l4.11-.6c.92-.13,1.17-.6,1.17-1.14,0-1.49-1-2.72-3.29-2.72a3.23,3.23,0,0,0-3.44,3.07l-2.85-.67c.32-2.91,2.94-4.93,6.23-4.93,4.55,0,6.32,2.59,6.32,5.56V424a14.66,14.66,0,0,0,.19,2.5h-2.91a11.41,11.41,0,0,1-.16-2.06,5.52,5.52,0,0,1-4.89,2.53c-3.1,0-5.09-2.15-5.09-4.55C298.13,419.68,300.12,418.17,302.74,417.79ZM308,420v-.7l-4.65.7a2.27,2.27,0,0,0-2.21,2.27,2.3,2.3,0,0,0,2.47,2.21C306.06,424.45,308,423.28,308,420Z"/><path class="cls-1" d="M317.16,421.58a3.24,3.24,0,0,0,3.54,2.84c1.67,0,2.59-.95,2.59-2s-.7-1.68-2-2l-2.59-.57a4.33,4.33,0,0,1-3.8-4.26c0-2.6,2.44-4.81,5.41-4.81,4.17,0,5.46,2.72,5.78,4.08l-2.62,1a3,3,0,0,0-3.16-2.53,2.29,2.29,0,0,0-2.53,2c0,.92.57,1.58,1.74,1.84l2.46.53c2.75.6,4.21,2.28,4.21,4.52s-1.81,4.71-5.57,4.71c-4.17,0-5.94-2.69-6.19-4.42Z"/><path class="cls-1" d="M334.19,411.28h3.29V414h-3.29v7.9c0,1.39.57,2.09,2.12,2.09a5.49,5.49,0,0,0,1.17-.13v2.53a6.68,6.68,0,0,1-2,.28c-2.6,0-4.24-1.58-4.24-4.33V414h-2.91v-2.68h.83a2.13,2.13,0,0,0,2.33-2.34v-2.47h2.72Z"/><path class="cls-1" d="M349.46,414.28a10,10,0,0,0-1.3-.1c-2.5,0-4.17,1.33-4.17,4.68v7.62h-3v-15.2h2.91v2.65a4.75,4.75,0,0,1,4.55-2.91,5.66,5.66,0,0,1,1,.1Z"/><path class="cls-1" d="M358,427c-3.54,0-5.69-2.65-5.69-6.1v-9.57h3v9.13c0,2.08.95,3.92,3.45,3.92s3.6-1.58,3.6-3.89v-9.16h3v12.38a26.53,26.53,0,0,0,.16,2.82h-2.84a12.41,12.41,0,0,1-.13-1.84A5,5,0,0,1,358,427Z"/><path class="cls-1" d="M372.18,418.86c0,3.48,2.18,5.34,4.65,5.34a4.12,4.12,0,0,0,4.23-3.13l2.63,1.14a7,7,0,0,1-6.86,4.74c-4.43,0-7.68-3.48-7.68-8.09s3.32-8.06,7.65-8.06a6.61,6.61,0,0,1,6.76,4.84l-2.69,1.13a4,4,0,0,0-4.07-3.22C374.39,413.55,372.18,415.32,372.18,418.86Z"/><path class="cls-1" d="M391.34,411.28h3.28V414h-3.28v7.9c0,1.39.57,2.09,2.11,2.09a5.49,5.49,0,0,0,1.17-.13v2.53a6.68,6.68,0,0,1-2,.28c-2.59,0-4.23-1.58-4.23-4.33V414h-2.91v-2.68h.82a2.13,2.13,0,0,0,2.34-2.34v-2.47h2.72Z"/><path class="cls-1" d="M403.69,427c-3.54,0-5.68-2.65-5.68-6.1v-9.57h3v9.13c0,2.08.94,3.92,3.44,3.92s3.6-1.58,3.6-3.89v-9.16h3v12.38a26.53,26.53,0,0,0,.16,2.82h-2.84a12.41,12.41,0,0,1-.13-1.84A5,5,0,0,1,403.69,427Z"/><path class="cls-1" d="M424.27,414.28a9.86,9.86,0,0,0-1.3-.1c-2.49,0-4.17,1.33-4.17,4.68v7.62h-3v-15.2h2.91v2.65a4.76,4.76,0,0,1,4.55-2.91,5.66,5.66,0,0,1,1,.1Z"/><path class="cls-1" d="M440.48,422.15a6.88,6.88,0,0,1-6.82,4.8c-4.08,0-7.65-3-7.65-8.12,0-4.77,3.44-8,7.27-8,4.68,0,7.3,3.23,7.3,8a7,7,0,0,1-.06.94H429.08a4.51,4.51,0,0,0,4.58,4.62,4.14,4.14,0,0,0,4.26-3.07Zm-3-4.84a3.82,3.82,0,0,0-4.17-3.88,4.08,4.08,0,0,0-4.14,3.88Z"/><path class="cls-1" d="M445.8,421.58a3.23,3.23,0,0,0,3.53,2.84c1.68,0,2.6-.95,2.6-2s-.7-1.68-2-2l-2.59-.57a4.33,4.33,0,0,1-3.8-4.26c0-2.6,2.44-4.81,5.41-4.81,4.17,0,5.46,2.72,5.78,4.08l-2.62,1a3,3,0,0,0-3.16-2.53,2.29,2.29,0,0,0-2.53,2c0,.92.57,1.58,1.74,1.84l2.46.53c2.75.6,4.21,2.28,4.21,4.52S453.06,427,449.3,427c-4.17,0-5.94-2.69-6.19-4.42Z"/><path class="cls-1" d="M466.66,432.48v-21.2h2.87v2.37a5.6,5.6,0,0,1,5.09-2.72c4.55,0,7,3.51,7,7.93s-2.62,8-7.08,8a5.68,5.68,0,0,1-4.93-2.47v8.06Zm7.42-18.93c-2.72,0-4.52,2.28-4.52,5.31s1.8,5.37,4.52,5.37,4.49-2.24,4.49-5.37S476.86,413.55,474.08,413.55Z"/><path class="cls-1" d="M491,427c-3.54,0-5.69-2.65-5.69-6.1v-9.57h3v9.13c0,2.08.95,3.92,3.45,3.92s3.6-1.58,3.6-3.89v-9.16h3v12.38a26.53,26.53,0,0,0,.16,2.82h-2.85a14.21,14.21,0,0,1-.12-1.84A5,5,0,0,1,491,427Z"/><path class="cls-1" d="M503.1,426.48V403.6H506v9.83a5.53,5.53,0,0,1,5-2.6c4.62,0,7,3.54,7,8s-2.56,8.09-7.08,8.09a5.41,5.41,0,0,1-4.93-2.63v2.22Zm7.43-13c-2.63,0-4.52,2.05-4.52,5.34s1.89,5.43,4.52,5.43,4.48-2.15,4.48-5.43S513.27,413.46,510.53,413.46Z"/><path class="cls-1" d="M521.87,426.48V403.6h3v22.88Z"/><path class="cls-1" d="M531.1,403.38a2.13,2.13,0,1,1-2.12,2.14A2.13,2.13,0,0,1,531.1,403.38Zm-1.45,23.1v-15.2h2.94v15.2Z"/><path class="cls-1" d="M548.36,432.48v-8.15a5.07,5.07,0,0,1-4.74,2.56c-4.36,0-7.21-3.64-7.21-8.06s2.69-7.93,7.14-7.93a5.13,5.13,0,0,1,4.87,2.71v-2.33h2.88v21.2Zm-4.46-8.22c2.69,0,4.49-2.3,4.49-5.43s-1.8-5.31-4.49-5.31-4.45,2.18-4.45,5.31S541.18,424.26,543.9,424.26Z"/><path class="cls-1" d="M561.63,427c-3.54,0-5.68-2.65-5.68-6.1v-9.57h3v9.13c0,2.08.94,3.92,3.44,3.92s3.6-1.58,3.6-3.89v-9.16h3v12.38a26.53,26.53,0,0,0,.16,2.82h-2.84a12.41,12.41,0,0,1-.13-1.84A5,5,0,0,1,561.63,427Z"/><path class="cls-1" d="M587.23,422.15a6.88,6.88,0,0,1-6.82,4.8c-4.08,0-7.65-3-7.65-8.12,0-4.77,3.45-8,7.27-8,4.68,0,7.3,3.23,7.3,8a7,7,0,0,1-.06.94H575.83a4.51,4.51,0,0,0,4.58,4.62,4.13,4.13,0,0,0,4.26-3.07Zm-3-4.84a3.82,3.82,0,0,0-4.17-3.88,4.08,4.08,0,0,0-4.14,3.88Z"/><path class="cls-1" d="M592.55,421.58a3.24,3.24,0,0,0,3.54,2.84c1.67,0,2.59-.95,2.59-2s-.7-1.68-2-2l-2.59-.57a4.33,4.33,0,0,1-3.8-4.26c0-2.6,2.44-4.81,5.41-4.81,4.17,0,5.46,2.72,5.78,4.08l-2.62,1a3,3,0,0,0-3.16-2.53,2.29,2.29,0,0,0-2.53,2c0,.92.57,1.58,1.74,1.84l2.46.53c2.75.6,4.21,2.28,4.21,4.52s-1.81,4.71-5.57,4.71c-4.17,0-5.94-2.69-6.19-4.42Z"/><polygon points="246.58 270.29 274.65 270.29 274.65 342.13 294.99 342.13 294.99 270.29 323.19 270.29 323.19 250.85 246.58 250.85 246.58 270.29"/><polygon points="355.89 305.31 389.88 305.31 389.88 287.41 355.89 287.41 355.89 270.03 393.35 270.03 393.35 250.85 335.55 250.85 335.55 342.13 393.48 342.13 393.48 322.82 355.89 322.82 355.89 305.31"/><polygon class="cls-1" points="491.07 250.85 464.29 250.85 410.6 312.62 410.6 340.26 491.07 250.85"/><polygon points="444.73 311.31 465.83 342.13 491.2 342.13 459.02 295.43 444.73 311.31"/><polygon points="430.94 250.85 410.6 250.85 410.6 303.47 430.94 280.07 430.94 250.85"/><path d="M538.57,287.8l-12.23-2.32c-6.31-1.16-9-4.38-9-8.75,0-5,4.89-9.79,12.49-9.79,11.07,0,14.55,7.21,15.19,11.46l18.28-5.15c-1.93-10.69-10.55-24.33-33.34-24.33-17.51,0-32.71,12.1-32.71,29.35,0,13.52,9.4,23.82,24.85,26.78l12.49,2.32c6,1.16,9.79,4.5,9.79,9.14,0,5.66-4.9,9.53-12.88,9.53-12.49,0-18.15-7.34-18.93-15.71l-18.66,4.51c1.28,12.87,12.1,29.22,37.33,29.22,21.76,0,33.74-14.55,33.74-28.84C565,302.22,556,291,538.57,287.8Z"/><rect x="578.87" y="250.85" width="20.6" height="91.28"/><circle class="cls-1" cx="423.03" cy="115.87" r="80.85"/><polygon class="cls-2" points="463.2 70.23 436.42 70.23 382.73 132 382.73 159.65 463.2 70.23"/><polygon class="cls-2" points="416.86 130.69 437.96 161.51 463.32 161.51 431.15 114.81 416.86 130.69"/><polygon class="cls-2" points="403.07 70.23 382.73 70.23 382.73 122.86 403.07 99.45 403.07 70.23"/></svg>