<svg id="Calque_1" data-name="Calque 1" xmlns="http://www.w3.org/2000/svg" viewBox="0 0 895.14 503.52"><defs><style>.cls-1{fill:#968b83;}.cls-2{fill:#fff;}</style></defs><path class="cls-1" d="M361.7,385.66l-.28-3.1c-1,1.73-3.34,3.56-7,3.56-5.52,0-10.67-4-10.67-11.47s5.46-11.44,10.88-11.44c4.78,0,8.47,2.67,9.74,6.63L361.58,371a6.94,6.94,0,0,0-7-5c-3.93,0-7.78,2.82-7.78,8.65s3.72,8.71,7.66,8.71c4.9,0,6.67-3.47,6.79-5.73h-7.63V374.9h10.51v10.76Z"/><path class="cls-1" d="M382.16,381.41a6.75,6.75,0,0,1-6.7,4.71c-4,0-7.5-2.91-7.5-8,0-4.68,3.38-7.87,7.13-7.87,4.59,0,7.16,3.16,7.16,7.81a6.72,6.72,0,0,1-.06.93H371a4.42,4.42,0,0,0,4.49,4.53,4.06,4.06,0,0,0,4.19-3Zm-2.94-4.74a3.77,3.77,0,0,0-4.1-3.82,4,4,0,0,0-4.06,3.82Z"/><path class="cls-1" d="M387.83,380.85a3.19,3.19,0,0,0,3.48,2.79c1.64,0,2.54-.93,2.54-2s-.68-1.65-1.92-1.93l-2.55-.55a4.25,4.25,0,0,1-3.72-4.19c0-2.54,2.39-4.71,5.3-4.71,4.1,0,5.37,2.66,5.68,4l-2.57,1a2.9,2.9,0,0,0-3.11-2.48,2.25,2.25,0,0,0-2.48,2c0,.9.56,1.55,1.71,1.8l2.42.53c2.7.59,4.12,2.23,4.12,4.43s-1.77,4.62-5.46,4.62c-4.09,0-5.82-2.63-6.07-4.34Z"/><path class="cls-1" d="M405,370.74h3.22v2.64H405v7.75c0,1.36.56,2.05,2.07,2.05a6,6,0,0,0,1.15-.13v2.48a6.14,6.14,0,0,1-2,.28,3.88,3.88,0,0,1-4.16-4.25v-8.18h-2.85v-2.64h.81a2.08,2.08,0,0,0,2.29-2.29V366H405Z"/><path class="cls-1" d="M413.59,363a2.1,2.1,0,1,1-2.07,2.11A2.09,2.09,0,0,1,413.59,363Zm-1.42,22.67V370.74h2.88v14.92Z"/><path class="cls-1" d="M434.49,378.18c0,4.56-3.16,7.94-7.63,7.94s-7.63-3.38-7.63-7.94a7.52,7.52,0,0,1,7.63-7.9C431.33,370.28,434.49,373.66,434.49,378.18Zm-3,0c0-3.44-2.17-5.3-4.65-5.3s-4.65,1.86-4.65,5.3,2.17,5.34,4.65,5.34S431.51,381.66,431.51,378.18Z"/><path class="cls-1" d="M441.59,385.66h-2.92V370.74h2.85v2.14a5.12,5.12,0,0,1,4.59-2.57c3.57,0,5.34,2.57,5.34,5.89v9.46h-2.92v-9c0-2.08-.87-3.76-3.47-3.76-2.3,0-3.47,1.83-3.47,4.1Z"/><path class="cls-1" d="M479,378.18c0,4.56-3.16,7.94-7.62,7.94s-7.63-3.38-7.63-7.94,3.16-7.9,7.63-7.9S479,373.66,479,378.18Zm-3,0c0-3.44-2.17-5.3-4.65-5.3s-4.65,1.86-4.65,5.3,2.17,5.34,4.65,5.34S476,381.66,476,378.18Z"/><path class="cls-1" d="M483.19,391.55V370.74H486v2.33a5.49,5.49,0,0,1,5-2.67c4.46,0,6.85,3.44,6.85,7.78s-2.57,7.88-6.94,7.88a5.56,5.56,0,0,1-4.84-2.42v7.91ZM490.47,373c-2.66,0-4.43,2.23-4.43,5.2s1.77,5.28,4.43,5.28,4.41-2.21,4.41-5.28S493.2,373,490.47,373Z"/><path class="cls-1" d="M515.27,381.41a6.75,6.75,0,0,1-6.69,4.71c-4,0-7.51-2.91-7.51-8,0-4.68,3.38-7.87,7.13-7.87,4.59,0,7.17,3.16,7.17,7.81a5.24,5.24,0,0,1-.07.93H504.08a4.43,4.43,0,0,0,4.5,4.53,4.06,4.06,0,0,0,4.18-3Zm-2.94-4.74a3.76,3.76,0,0,0-4.09-3.82,4,4,0,0,0-4.07,3.82Z"/><path class="cls-1" d="M522.4,385.66h-2.91V370.74h2.85v2.14a5.1,5.1,0,0,1,4.59-2.57c3.56,0,5.33,2.57,5.33,5.89v9.46h-2.91v-9c0-2.08-.87-3.76-3.48-3.76-2.29,0-3.47,1.83-3.47,4.1Z"/><path class="cls-1" d="M547,380.85a3.19,3.19,0,0,0,3.48,2.79c1.64,0,2.54-.93,2.54-2s-.68-1.65-1.92-1.93l-2.54-.55a4.25,4.25,0,0,1-3.73-4.19c0-2.54,2.39-4.71,5.31-4.71,4.09,0,5.36,2.66,5.67,4l-2.57,1a2.9,2.9,0,0,0-3.1-2.48,2.25,2.25,0,0,0-2.48,2c0,.9.55,1.55,1.7,1.8l2.42.53c2.7.59,4.12,2.23,4.12,4.43s-1.76,4.62-5.45,4.62c-4.1,0-5.83-2.63-6.08-4.34Z"/><path class="cls-1" d="M574.39,378.18c0,4.56-3.16,7.94-7.63,7.94s-7.63-3.38-7.63-7.94a7.52,7.52,0,0,1,7.63-7.9C571.23,370.28,574.39,373.66,574.39,378.18Zm-3,0c0-3.44-2.17-5.3-4.65-5.3s-4.65,1.86-4.65,5.3,2.17,5.34,4.65,5.34S571.41,381.66,571.41,378.18Z"/><path class="cls-1" d="M584,386.12c-3.47,0-5.58-2.6-5.58-6v-9.4h2.91v9c0,2.05.93,3.85,3.38,3.85s3.54-1.55,3.54-3.82v-9h2.91V382.9a23,23,0,0,0,.16,2.76h-2.8a13.65,13.65,0,0,1-.12-1.8A4.87,4.87,0,0,1,584,386.12Z"/><path class="cls-1" d="M604.64,373.69a9.26,9.26,0,0,0-1.27-.09c-2.45,0-4.09,1.3-4.09,4.58v7.48h-2.91V370.74h2.85v2.61a4.65,4.65,0,0,1,4.46-2.85,5.51,5.51,0,0,1,1,.09Z"/><path class="cls-1" d="M609.79,378.18c0,3.41,2.14,5.24,4.56,5.24a4,4,0,0,0,4.15-3.07l2.57,1.12a6.84,6.84,0,0,1-6.72,4.65c-4.34,0-7.54-3.41-7.54-7.94s3.26-7.9,7.51-7.9A6.49,6.49,0,0,1,621,375l-2.63,1.12a3.92,3.92,0,0,0-4-3.16C612,373,609.79,374.71,609.79,378.18Z"/><path class="cls-1" d="M638.19,381.41a6.77,6.77,0,0,1-6.7,4.71c-4,0-7.5-2.91-7.5-8,0-4.68,3.38-7.87,7.13-7.87,4.59,0,7.16,3.16,7.16,7.81a6.72,6.72,0,0,1-.06.93H627a4.44,4.44,0,0,0,4.5,4.53,4,4,0,0,0,4.18-3Zm-3-4.74a3.76,3.76,0,0,0-4.09-3.82,4,4,0,0,0-4.06,3.82Z"/><path class="cls-1" d="M661.4,383.39a5,5,0,0,1-4.61,2.67c-4.38,0-7.07-3.47-7.07-7.91,0-4.21,2.85-7.81,7.07-7.81,2.63,0,4.06,1.3,4.55,2.51v-9.64h2.89V382.9a24.54,24.54,0,0,0,.15,2.76h-2.82a12.63,12.63,0,0,1-.16-2Zm-4.34.1c2.67,0,4.31-2.33,4.31-5.4s-1.61-5.18-4.28-5.18-4.4,2.17-4.4,5.24S654.27,383.49,657.06,383.49Z"/><path class="cls-1" d="M682.64,381.41a6.76,6.76,0,0,1-6.7,4.71c-4,0-7.5-2.91-7.5-8,0-4.68,3.38-7.87,7.13-7.87,4.59,0,7.16,3.16,7.16,7.81a6.72,6.72,0,0,1-.06.93H671.45a4.42,4.42,0,0,0,4.49,4.53,4.06,4.06,0,0,0,4.19-3Zm-2.94-4.74a3.77,3.77,0,0,0-4.1-3.82,4,4,0,0,0-4.06,3.82Z"/><path class="cls-1" d="M688.31,380.85a3.18,3.18,0,0,0,3.47,2.79c1.65,0,2.55-.93,2.55-2s-.69-1.65-1.93-1.93l-2.54-.55a4.25,4.25,0,0,1-3.72-4.19c0-2.54,2.39-4.71,5.3-4.71,4.1,0,5.37,2.66,5.68,4l-2.58,1a2.88,2.88,0,0,0-3.1-2.48,2.25,2.25,0,0,0-2.48,2c0,.9.56,1.55,1.71,1.8l2.42.53c2.69.59,4.12,2.23,4.12,4.43s-1.77,4.62-5.46,4.62c-4.09,0-5.83-2.63-6.07-4.34Z"/><path class="cls-1" d="M346,399a2.09,2.09,0,1,1-2.07,2.1A2.09,2.09,0,0,1,346,399Zm-1.42,22.66V406.7h2.88v14.91Z"/><path class="cls-1" d="M355.44,421.61h-2.92V406.7h2.86v2.14a5.1,5.1,0,0,1,4.58-2.58c3.57,0,5.34,2.58,5.34,5.89v9.46h-2.92v-9c0-2.08-.86-3.75-3.47-3.75-2.29,0-3.47,1.83-3.47,4.09Z"/><path class="cls-1" d="M374.29,409.33v12.28h-3V409.33h-2.76V406.7h2.76v-2.51a4.73,4.73,0,0,1,4.9-5.12,3.77,3.77,0,0,1,1.73.31V402a3.41,3.41,0,0,0-1.27-.18,2.23,2.23,0,0,0-2.35,2.54v2.36h3.59v2.63Z"/><path class="cls-1" d="M389.57,409.64a9.37,9.37,0,0,0-1.27-.09c-2.45,0-4.09,1.3-4.09,4.59v7.47h-2.92V406.7h2.85v2.6a4.68,4.68,0,0,1,4.47-2.85,5.62,5.62,0,0,1,1,.09Z"/><path class="cls-1" d="M396.45,413.08l4-.59c.9-.12,1.15-.58,1.15-1.11,0-1.46-1-2.67-3.23-2.67a3.17,3.17,0,0,0-3.38,3l-2.79-.65c.31-2.85,2.89-4.84,6.11-4.84,4.47,0,6.2,2.54,6.2,5.46v7.47a14.1,14.1,0,0,0,.19,2.45h-2.85a10.08,10.08,0,0,1-.16-2,5.42,5.42,0,0,1-4.8,2.49c-3,0-5-2.11-5-4.47C391.92,414.94,393.88,413.46,396.45,413.08Zm5.18,2.14v-.68l-4.56.68a2.23,2.23,0,0,0-2.17,2.24,2.27,2.27,0,0,0,2.42,2.17C399.71,419.63,401.63,418.48,401.63,415.22Z"/><path class="cls-1" d="M411,416.8a3.17,3.17,0,0,0,3.47,2.79c1.64,0,2.54-.92,2.54-2s-.68-1.64-1.92-1.92l-2.54-.56a4.24,4.24,0,0,1-3.72-4.19c0-2.54,2.38-4.71,5.3-4.71,4.09,0,5.36,2.67,5.67,4l-2.57,1a2.89,2.89,0,0,0-3.1-2.48,2.25,2.25,0,0,0-2.48,2c0,.9.56,1.55,1.7,1.79l2.42.53c2.7.59,4.13,2.23,4.13,4.44s-1.77,4.62-5.46,4.62c-4.09,0-5.83-2.64-6.08-4.35Z"/><path class="cls-1" d="M428,406.7h3.22v2.63H428v7.75c0,1.37.56,2.05,2.08,2.05a6,6,0,0,0,1.14-.12v2.48a6.39,6.39,0,0,1-2,.28,3.87,3.87,0,0,1-4.15-4.25v-8.19h-2.86V406.7h.81a2.09,2.09,0,0,0,2.29-2.3V402H428Z"/><path class="cls-1" d="M443.38,409.64a9.26,9.26,0,0,0-1.27-.09c-2.45,0-4.09,1.3-4.09,4.59v7.47h-2.91V406.7H438v2.6a4.66,4.66,0,0,1,4.46-2.85,5.51,5.51,0,0,1,1,.09Z"/><path class="cls-1" d="M452.16,422.08c-3.48,0-5.58-2.61-5.58-6V406.7h2.91v9c0,2,.93,3.84,3.38,3.84s3.53-1.55,3.53-3.81v-9h2.92v12.15a26,26,0,0,0,.15,2.76h-2.79a13.65,13.65,0,0,1-.12-1.8A4.88,4.88,0,0,1,452.16,422.08Z"/><path class="cls-1" d="M466.42,414.14c0,3.41,2.14,5.24,4.55,5.24a4.06,4.06,0,0,0,4.16-3.07l2.57,1.12a6.86,6.86,0,0,1-6.73,4.65c-4.34,0-7.53-3.41-7.53-7.94s3.26-7.91,7.5-7.91a6.49,6.49,0,0,1,6.64,4.75l-2.64,1.11a3.9,3.9,0,0,0-4-3.16C468.59,408.93,466.42,410.67,466.42,414.14Z"/><path class="cls-1" d="M485.57,406.7h3.23v2.63h-3.23v7.75c0,1.37.56,2.05,2.08,2.05a6.16,6.16,0,0,0,1.15-.12v2.48a6.48,6.48,0,0,1-2,.28,3.87,3.87,0,0,1-4.15-4.25v-8.19h-2.85V406.7h.8a2.09,2.09,0,0,0,2.3-2.3V402h2.66Z"/><path class="cls-1" d="M498.07,422.08c-3.48,0-5.58-2.61-5.58-6V406.7h2.91v9c0,2,.93,3.84,3.38,3.84s3.53-1.55,3.53-3.81v-9h2.92v12.15a26,26,0,0,0,.15,2.76h-2.79a13.65,13.65,0,0,1-.12-1.8A4.88,4.88,0,0,1,498.07,422.08Z"/><path class="cls-1" d="M518.62,409.64a9.37,9.37,0,0,0-1.27-.09c-2.45,0-4.1,1.3-4.1,4.59v7.47h-2.91V406.7h2.85v2.6a4.68,4.68,0,0,1,4.47-2.85,5.74,5.74,0,0,1,1,.09Z"/><path class="cls-1" d="M534.9,417.36a6.77,6.77,0,0,1-6.7,4.72c-4,0-7.5-2.92-7.5-8,0-4.68,3.38-7.88,7.13-7.88,4.59,0,7.16,3.16,7.16,7.82a6.84,6.84,0,0,1-.06.93H523.7a4.43,4.43,0,0,0,4.5,4.52,4,4,0,0,0,4.18-3ZM532,412.62a3.76,3.76,0,0,0-4.09-3.82,4,4,0,0,0-4.06,3.82Z"/><path class="cls-1" d="M540.47,416.8a3.19,3.19,0,0,0,3.48,2.79c1.64,0,2.54-.92,2.54-2s-.68-1.64-1.92-1.92l-2.55-.56a4.25,4.25,0,0,1-3.72-4.19c0-2.54,2.39-4.71,5.31-4.71,4.09,0,5.36,2.67,5.67,4l-2.57,1a2.91,2.91,0,0,0-3.1-2.48,2.25,2.25,0,0,0-2.48,2c0,.9.55,1.55,1.7,1.79l2.42.53c2.7.59,4.12,2.23,4.12,4.44s-1.76,4.62-5.45,4.62c-4.1,0-5.83-2.64-6.08-4.35Z"/><path class="cls-1" d="M561.68,427.5V406.7h2.82V409a5.48,5.48,0,0,1,5-2.66c4.47,0,6.85,3.44,6.85,7.78S573.77,422,569.4,422a5.54,5.54,0,0,1-4.84-2.42v7.91ZM569,408.93c-2.66,0-4.43,2.23-4.43,5.21s1.77,5.27,4.43,5.27,4.41-2.2,4.41-5.27S571.69,408.93,569,408.93Z"/><path class="cls-1" d="M585.89,422.08c-3.47,0-5.58-2.61-5.58-6V406.7h2.91v9c0,2,.93,3.84,3.38,3.84s3.54-1.55,3.54-3.81v-9h2.91v12.15a23,23,0,0,0,.16,2.76h-2.79a11.92,11.92,0,0,1-.13-1.8A4.86,4.86,0,0,1,585.89,422.08Z"/><path class="cls-1" d="M598.16,421.61V399.16h2.89v9.64a5.44,5.44,0,0,1,4.93-2.54c4.52,0,6.85,3.48,6.85,7.82s-2.51,7.93-7,7.93a5.31,5.31,0,0,1-4.83-2.57v2.17Zm7.29-12.77c-2.57,0-4.43,2-4.43,5.24s1.86,5.33,4.43,5.33,4.4-2.11,4.4-5.33S608.15,408.84,605.45,408.84Z"/><path class="cls-1" d="M617,421.61V399.16h2.91v22.45Z"/><path class="cls-1" d="M626.37,399a2.09,2.09,0,1,1-2.08,2.1A2.09,2.09,0,0,1,626.37,399ZM625,421.61V406.7h2.88v14.91Z"/><path class="cls-1" d="M643.67,427.5v-8A5,5,0,0,1,639,422c-4.28,0-7.07-3.56-7.07-7.9s2.64-7.79,7-7.79a5,5,0,0,1,4.77,2.67V406.7h2.83v20.8Zm-4.37-8.06c2.64,0,4.4-2.26,4.4-5.33s-1.76-5.21-4.4-5.21-4.37,2.14-4.37,5.21S636.63,419.44,639.3,419.44Z"/><path class="cls-1" d="M657.06,422.08c-3.47,0-5.58-2.61-5.58-6V406.7h2.92v9c0,2,.93,3.84,3.38,3.84s3.53-1.55,3.53-3.81v-9h2.92v12.15a26,26,0,0,0,.15,2.76h-2.79a13.65,13.65,0,0,1-.12-1.8A4.88,4.88,0,0,1,657.06,422.08Z"/><path class="cls-1" d="M682.55,417.36a6.77,6.77,0,0,1-6.7,4.72c-4,0-7.5-2.92-7.5-8,0-4.68,3.38-7.88,7.13-7.88,4.59,0,7.16,3.16,7.16,7.82a6.84,6.84,0,0,1-.06.93H671.35a4.44,4.44,0,0,0,4.5,4.52,4.06,4.06,0,0,0,4.19-3Zm-2.95-4.74a3.76,3.76,0,0,0-4.09-3.82,4,4,0,0,0-4.06,3.82Z"/><path class="cls-1" d="M688.12,416.8a3.19,3.19,0,0,0,3.48,2.79c1.64,0,2.54-.92,2.54-2s-.68-1.64-1.92-1.92l-2.55-.56a4.25,4.25,0,0,1-3.72-4.19c0-2.54,2.39-4.71,5.31-4.71,4.09,0,5.36,2.67,5.67,4l-2.57,1a2.91,2.91,0,0,0-3.1-2.48,2.25,2.25,0,0,0-2.48,2c0,.9.55,1.55,1.7,1.79l2.42.53c2.7.59,4.12,2.23,4.12,4.44s-1.76,4.62-5.45,4.62c-4.1,0-5.83-2.64-6.08-4.35Z"/><polygon points="342.96 270.29 371.03 270.29 371.03 342.13 391.37 342.13 391.37 270.29 419.57 270.29 419.57 250.85 342.96 250.85 342.96 270.29"/><polygon points="452.26 305.31 486.26 305.31 486.26 287.41 452.26 287.41 452.26 270.03 489.73 270.03 489.73 250.85 431.92 250.85 431.92 342.13 489.86 342.13 489.86 322.82 452.26 322.82 452.26 305.31"/><polygon class="cls-1" points="587.45 250.85 560.67 250.85 506.98 312.62 506.98 340.26 587.45 250.85"/><polygon points="541.11 311.31 562.21 342.13 587.58 342.13 555.4 295.43 541.11 311.31"/><polygon points="527.32 250.85 506.98 250.85 506.98 303.47 527.32 280.07 527.32 250.85"/><path d="M635,287.8l-12.23-2.32c-6.31-1.16-9-4.38-9-8.75,0-5,4.89-9.79,12.49-9.79,11.07,0,14.54,7.21,15.19,11.46l18.28-5.15c-1.93-10.69-10.56-24.33-33.35-24.33-17.51,0-32.7,12.1-32.7,29.35,0,13.52,9.4,23.82,24.85,26.78L631,307.37c6,1.16,9.78,4.5,9.78,9.14,0,5.66-4.89,9.53-12.87,9.53-12.49,0-18.15-7.34-18.93-15.71l-18.67,4.51c1.29,12.87,12.11,29.22,37.34,29.22,21.76,0,33.74-14.55,33.74-28.84C661.35,302.22,652.33,291,635,287.8Z"/><rect x="675.24" y="250.85" width="20.6" height="91.28"/><circle class="cls-1" cx="207.45" cy="335.3" r="95"/><polygon class="cls-2" points="254.66 281.67 223.19 281.67 160.1 354.25 160.1 386.73 254.66 281.67"/><polygon class="cls-2" points="200.21 352.71 225 388.93 254.81 388.93 217 334.05 200.21 352.71"/><polygon class="cls-2" points="184 281.67 160.1 281.67 160.1 343.51 184 316 184 281.67"/></svg>