<svg id="Calque_1" data-name="Calque 1" xmlns="http://www.w3.org/2000/svg" viewBox="0 0 300 250"><defs><style>.cls-1{fill:#c800d7;}.cls-2{fill:#969;}.cls-3{fill:#fff;}</style></defs><circle class="cls-1" cx="150" cy="125" r="100"/><circle class="cls-2" cx="150" cy="125" r="100"/><path class="cls-3" d="M182.83,70.53A46.08,46.08,0,0,0,150,56.68h-.08a46.94,46.94,0,0,0-46.79,46.87,158.2,158.2,0,0,0,20.43,77.29c1.09,1.9,2.91,4.77,4.25,6.85a12.25,12.25,0,0,0,10.34,5.63h23.7a12.25,12.25,0,0,0,10.34-5.63c2-3,3.39-5.35,4.25-6.85a158.28,158.28,0,0,0,20.43-76.22A48.24,48.24,0,0,0,182.83,70.53Zm-9.84,33A135.9,135.9,0,0,1,155.7,169a.9.9,0,0,1-.78.45h-9.83a.9.9,0,0,1-.79-.45A134,134,0,0,1,127,103.55a23,23,0,1,1,46,0Z"/></svg>