<svg id="Calque_1" data-name="Calque 1" xmlns="http://www.w3.org/2000/svg" viewBox="0 0 300 250"><defs><style>.cls-1{fill:#2360ad;}.cls-2{fill:#fff;}</style></defs><path class="cls-1" d="M58.47,218.52V193.3H73.8v3.23H62v7.76H72.7v3.27H62v7.72H73.8v3.24Z"/><path class="cls-1" d="M82.48,208.73l4.62-.67c1-.14,1.32-.68,1.32-1.28,0-1.67-1.1-3.06-3.7-3.06a3.64,3.64,0,0,0-3.88,3.45l-3.2-.75c.36-3.27,3.31-5.55,7-5.55,5.12,0,7.11,2.92,7.11,6.26v8.58a15.06,15.06,0,0,0,.22,2.81H88.7a13,13,0,0,1-.17-2.32A6.25,6.25,0,0,1,83,219.05c-3.48,0-5.72-2.42-5.72-5.12C77.29,210.87,79.53,209.16,82.48,208.73Zm5.94,2.46v-.78l-5.23.78a2.56,2.56,0,0,0-2.49,2.56,2.6,2.6,0,0,0,2.78,2.49C86.21,216.24,88.42,214.92,88.42,211.19Z"/><path class="cls-1" d="M103.25,219.05c-4,0-6.4-3-6.4-6.86V201.41h3.34v10.28c0,2.34,1.07,4.41,3.88,4.41s4.05-1.78,4.05-4.38V201.41h3.35v13.94a29.77,29.77,0,0,0,.17,3.17h-3.2a15.64,15.64,0,0,1-.14-2.07A5.58,5.58,0,0,1,103.25,219.05Z"/><path class="cls-1" d="M125.87,225.27V201.41h3.23v2.67a6.32,6.32,0,0,1,5.73-3.06c5.12,0,7.86,3.94,7.86,8.92s-2.95,9-8,9a6.35,6.35,0,0,1-5.54-2.78v9.07Zm8.36-21.3c-3.06,0-5.09,2.56-5.09,6s2,6.05,5.09,6.05,5.05-2.52,5.05-6.05S137.36,204,134.23,204Z"/><path class="cls-1" d="M163.35,209.94c0,5.23-3.62,9.11-8.75,9.11s-8.75-3.88-8.75-9.11,3.63-9.07,8.75-9.07S163.35,204.75,163.35,209.94Zm-3.41,0c0-3.94-2.49-6.08-5.34-6.08s-5.33,2.14-5.33,6.08,2.49,6.12,5.33,6.12S159.94,213.93,159.94,209.94Z"/><path class="cls-1" d="M172,201.41h3.69v3H172v8.89c0,1.57.64,2.35,2.38,2.35a6.74,6.74,0,0,0,1.31-.14v2.84a7.13,7.13,0,0,1-2.27.32c-2.92,0-4.77-1.77-4.77-4.87v-9.39h-3.27v-3h.93a2.4,2.4,0,0,0,2.63-2.63V196H172Z"/><path class="cls-1" d="M183.73,208.73l4.63-.67c1-.14,1.31-.68,1.31-1.28,0-1.67-1.1-3.06-3.7-3.06a3.63,3.63,0,0,0-3.87,3.45l-3.21-.75c.36-3.27,3.31-5.55,7-5.55,5.12,0,7.12,2.92,7.12,6.26v8.58a16.43,16.43,0,0,0,.21,2.81H190a12.65,12.65,0,0,1-.18-2.32,6.25,6.25,0,0,1-5.51,2.85c-3.49,0-5.73-2.42-5.73-5.12C178.54,210.87,180.78,209.16,183.73,208.73Zm5.94,2.46v-.78l-5.23.78a2.56,2.56,0,0,0-2.49,2.56,2.6,2.6,0,0,0,2.78,2.49C187.47,216.24,189.67,214.92,189.67,211.19Z"/><path class="cls-1" d="M198.28,218.52V192.77h3.31v11.06a6.22,6.22,0,0,1,5.65-2.92c5.19,0,7.86,4,7.86,9s-2.88,9.11-8,9.11a6.08,6.08,0,0,1-5.54-2.95v2.49Zm8.36-14.66c-3,0-5.09,2.31-5.09,6s2.13,6.12,5.09,6.12,5.05-2.42,5.05-6.12S209.73,203.86,206.64,203.86Z"/><path class="cls-1" d="M219.4,218.52V192.77h3.35v25.75Z"/><path class="cls-1" d="M243.3,213.64a7.75,7.75,0,0,1-7.68,5.41c-4.59,0-8.61-3.34-8.61-9.14,0-5.37,3.88-9,8.18-9,5.27,0,8.22,3.63,8.22,9a8.42,8.42,0,0,1-.07,1.06H230.46a5.09,5.09,0,0,0,5.16,5.2,4.66,4.66,0,0,0,4.8-3.45Zm-3.38-5.44a4.31,4.31,0,0,0-4.69-4.37,4.6,4.6,0,0,0-4.66,4.37Z"/><polygon points="61.07 146.06 75.22 146.06 75.22 182.27 85.47 182.27 85.47 146.06 99.68 146.06 99.68 136.26 61.07 136.26 61.07 146.06"/><polygon points="116.16 163.71 133.29 163.71 133.29 154.69 116.16 154.69 116.16 145.93 135.04 145.93 135.04 136.26 105.91 136.26 105.91 182.27 135.11 182.27 135.11 172.54 116.16 172.54 116.16 163.71"/><polygon class="cls-1" points="159.18 164.17 159.18 164.17 184.3 136.26 170.8 136.26 168.79 138.57 143.74 167.4 143.74 181.33 157.36 166.19 159.18 164.17"/><polygon points="160.94 166.74 171.58 182.27 184.36 182.27 168.14 158.73 160.94 166.74"/><polygon points="153.99 136.26 143.74 136.26 143.74 162.79 153.99 150.99 153.99 136.26"/><path d="M208.24,154.89l-6.17-1.17c-3.18-.59-4.54-2.21-4.54-4.41,0-2.54,2.47-4.94,6.3-4.94,5.58,0,7.33,3.64,7.65,5.78l9.22-2.6c-1-5.38-5.32-12.26-16.81-12.26-8.82,0-16.48,6.1-16.48,14.79,0,6.82,4.74,12,12.52,13.5l6.3,1.17c3.05.58,4.93,2.27,4.93,4.61,0,2.85-2.47,4.8-6.49,4.8-6.3,0-9.15-3.7-9.54-7.92l-9.41,2.27c.65,6.49,6.1,14.73,18.82,14.73,11,0,17-7.33,17-14.53C221.54,162.15,217,156.51,208.24,154.89Z"/><rect x="228.55" y="136.26" width="10.38" height="46.01"/><circle class="cls-1" cx="150" cy="68.23" r="45"/><path class="cls-2" d="M150.21,94.23h0a20.62,20.62,0,0,1-5.53-.75c-11.59-3.23-16.74-16.85-10.8-27.32L146.49,44a3.41,3.41,0,0,1,5.87-.11L165.75,65.5c7.33,11.85-.23,27.74-14.13,28.68C151.16,94.22,150.69,94.23,150.21,94.23Z"/></svg>