<svg id="Calque_1" data-name="Calque 1" xmlns="http://www.w3.org/2000/svg" viewBox="0 0 300 250"><defs><style>.cls-1{fill:#c800d7;}.cls-2{fill:#969;}.cls-3{fill:#fff;}</style></defs><circle class="cls-1" cx="150" cy="68.23" r="45"/><circle class="cls-2" cx="150" cy="68.23" r="45"/><path class="cls-3" d="M164.77,43.72A20.73,20.73,0,0,0,150,37.49h0a21.12,21.12,0,0,0-21.05,21.09,71.23,71.23,0,0,0,9.19,34.78c.49.85,1.31,2.15,1.92,3.08A5.5,5.5,0,0,0,144.67,99h10.66A5.5,5.5,0,0,0,160,96.44c.89-1.37,1.53-2.4,1.92-3.08a71.25,71.25,0,0,0,9.19-34.3A21.69,21.69,0,0,0,164.77,43.72Zm-4.43,14.86A61.3,61.3,0,0,1,152.57,88a.42.42,0,0,1-.36.21h-4.42a.39.39,0,0,1-.35-.21,60.2,60.2,0,0,1-7.78-29.44,10.34,10.34,0,0,1,20.68,0Z"/><path class="cls-2" d="M44.64,211.47H33.47l-2.66,7.05H27.07l10-25.22h4l10,25.22H47.38Zm-9.92-3.23H43.4L39,196.93Z"/><path class="cls-2" d="M55.91,213a3.65,3.65,0,0,0,4,3.2c1.88,0,2.91-1.06,2.91-2.27s-.78-1.89-2.2-2.21l-2.92-.64c-2.67-.57-4.27-2.38-4.27-4.8,0-2.92,2.74-5.41,6.09-5.41,4.69,0,6.15,3.06,6.51,4.59l-3,1.11a3.31,3.31,0,0,0-3.55-2.85A2.58,2.58,0,0,0,56.66,206c0,1,.64,1.78,2,2.06l2.77.6c3.1.68,4.73,2.57,4.73,5.09s-2,5.3-6.26,5.3c-4.69,0-6.68-3-7-5Z"/><path class="cls-2" d="M72.1,213c.21,1.78,1.56,3.2,4,3.2,1.88,0,2.92-1.06,2.92-2.27s-.79-1.89-2.21-2.21l-2.92-.64c-2.66-.57-4.26-2.38-4.26-4.8,0-2.92,2.73-5.41,6.08-5.41,4.69,0,6.15,3.06,6.51,4.59l-3,1.11a3.33,3.33,0,0,0-3.56-2.85A2.58,2.58,0,0,0,72.84,206c0,1,.64,1.78,2,2.06l2.77.6c3.1.68,4.73,2.57,4.73,5.09s-2,5.3-6.26,5.3c-4.69,0-6.68-3-7-5Z"/><path class="cls-2" d="M90.66,208.74l4.62-.68c1-.14,1.32-.68,1.32-1.28,0-1.67-1.1-3.06-3.7-3.06A3.64,3.64,0,0,0,89,207.17l-3.2-.75c.36-3.27,3.31-5.55,7-5.55,5.12,0,7.11,2.92,7.11,6.26v8.58a16,16,0,0,0,.22,2.81H96.89a11.77,11.77,0,0,1-.18-2.32,6.25,6.25,0,0,1-5.52,2.85c-3.48,0-5.72-2.42-5.72-5.12C85.47,210.87,87.71,209.16,90.66,208.74Zm5.94,2.45v-.78l-5.23.78a2.56,2.56,0,0,0-2.49,2.56,2.6,2.6,0,0,0,2.78,2.49C94.39,216.24,96.6,214.92,96.6,211.19Z"/><path class="cls-2" d="M106.84,192.52a2.4,2.4,0,1,1-2.38,2.41A2.39,2.39,0,0,1,106.84,192.52Zm-1.63,26V201.41h3.3v17.11Z"/><path class="cls-2" d="M117.26,218.52h-3.34V201.41h3.27v2.45a5.87,5.87,0,0,1,5.27-3c4.09,0,6.11,3,6.11,6.76v10.85h-3.34V208.24c0-2.39-1-4.31-4-4.31-2.64,0-4,2.1-4,4.7Z"/><path class="cls-2" d="M135.44,192.52a2.4,2.4,0,1,1-2.39,2.41A2.39,2.39,0,0,1,135.44,192.52Zm-1.64,26V201.41h3.31v17.11Z"/><path class="cls-2" d="M144.19,213c.21,1.78,1.56,3.2,4,3.2,1.88,0,2.92-1.06,2.92-2.27s-.79-1.89-2.21-2.21l-2.92-.64c-2.66-.57-4.27-2.38-4.27-4.8,0-2.92,2.74-5.41,6.09-5.41,4.69,0,6.15,3.06,6.51,4.59l-3,1.11a3.31,3.31,0,0,0-3.55-2.85,2.58,2.58,0,0,0-2.85,2.28c0,1,.64,1.78,2,2.06l2.77.6c3.1.68,4.73,2.57,4.73,5.09s-2,5.3-6.26,5.3c-4.69,0-6.68-3-7-5Z"/><path class="cls-2" d="M160.37,213c.21,1.78,1.56,3.2,4,3.2,1.89,0,2.92-1.06,2.92-2.27s-.79-1.89-2.21-2.21l-2.92-.64c-2.66-.57-4.26-2.38-4.26-4.8,0-2.92,2.74-5.41,6.08-5.41,4.69,0,6.15,3.06,6.51,4.59l-2.95,1.11a3.33,3.33,0,0,0-3.56-2.85,2.58,2.58,0,0,0-2.85,2.28c0,1,.64,1.78,2,2.06l2.77.6c3.1.68,4.73,2.57,4.73,5.09s-2,5.3-6.26,5.3c-4.69,0-6.68-3-7-5Z"/><path class="cls-2" d="M190,213.64a7.75,7.75,0,0,1-7.68,5.41c-4.59,0-8.61-3.34-8.61-9.14,0-5.37,3.88-9,8.18-9,5.26,0,8.22,3.63,8.22,9a6.88,6.88,0,0,1-.08,1.07H177.19a5.08,5.08,0,0,0,5.16,5.19,4.66,4.66,0,0,0,4.8-3.45Zm-3.38-5.44a4.31,4.31,0,0,0-4.7-4.37,4.59,4.59,0,0,0-4.65,4.37Z"/><path class="cls-2" d="M194.33,218.52V201.41h3.2v2.27a5.91,5.91,0,0,1,5.19-2.77,5.35,5.35,0,0,1,5.13,3.24,6.12,6.12,0,0,1,5.72-3.24c3,0,5.91,2,5.91,6.51v11.1h-3.31V207.78c0-2.25-1.1-3.92-3.63-3.92a4,4,0,0,0-3.95,4.31v10.35h-3.34V207.78c0-2.21-1.07-3.92-3.63-3.92-2.38,0-4,1.78-4,4.34v10.32Z"/><path class="cls-2" d="M239.85,213.64a7.74,7.74,0,0,1-7.68,5.41c-4.59,0-8.61-3.34-8.61-9.14,0-5.37,3.88-9,8.19-9,5.26,0,8.21,3.63,8.21,9a7.11,7.11,0,0,1-.07,1.07H227a5.08,5.08,0,0,0,5.15,5.19,4.65,4.65,0,0,0,4.8-3.45Zm-3.37-5.44a4.32,4.32,0,0,0-4.7-4.37,4.6,4.6,0,0,0-4.66,4.37Z"/><path class="cls-2" d="M247.5,218.52h-3.34V201.41h3.27v2.45a5.86,5.86,0,0,1,5.26-3c4.09,0,6.12,3,6.12,6.76v10.85h-3.34V208.24c0-2.39-1-4.31-4-4.31-2.63,0-4,2.1-4,4.7Z"/><path class="cls-2" d="M268.55,201.41h3.7v3h-3.7v8.89c0,1.57.64,2.35,2.39,2.35a6.83,6.83,0,0,0,1.31-.14v2.84a7.13,7.13,0,0,1-2.27.32c-2.92,0-4.77-1.77-4.77-4.87v-9.39h-3.27v-3h.92a2.4,2.4,0,0,0,2.64-2.63V196h3.05Z"/><polygon points="61.07 146.06 75.22 146.06 75.22 182.27 85.47 182.27 85.47 146.06 99.68 146.06 99.68 136.26 61.07 136.26 61.07 146.06"/><polygon points="116.16 163.71 133.29 163.71 133.29 154.69 116.16 154.69 116.16 145.93 135.04 145.93 135.04 136.26 105.91 136.26 105.91 182.27 135.11 182.27 135.11 172.54 116.16 172.54 116.16 163.71"/><polygon class="cls-2" points="159.18 164.17 159.18 164.17 184.3 136.26 170.8 136.26 168.79 138.57 143.74 167.4 143.74 181.33 157.36 166.19 159.18 164.17"/><polygon points="160.94 166.74 171.58 182.27 184.36 182.27 168.14 158.73 160.94 166.74"/><polygon points="153.99 136.26 143.74 136.26 143.74 162.79 153.99 150.99 153.99 136.26"/><path d="M208.24,154.89l-6.17-1.17c-3.18-.59-4.54-2.21-4.54-4.41,0-2.54,2.47-4.94,6.3-4.94,5.58,0,7.33,3.64,7.65,5.78l9.22-2.6c-1-5.38-5.32-12.26-16.81-12.26-8.82,0-16.48,6.1-16.48,14.79,0,6.82,4.73,12,12.52,13.5l6.3,1.17c3.05.58,4.93,2.27,4.93,4.61,0,2.85-2.47,4.8-6.49,4.8-6.3,0-9.15-3.7-9.54-7.92l-9.41,2.27c.65,6.49,6.1,14.73,18.82,14.73,11,0,17-7.33,17-14.53C221.54,162.15,217,156.51,208.24,154.89Z"/><rect x="228.55" y="136.26" width="10.38" height="46.01"/></svg>