<?xml version="1.0" encoding="UTF-8"?>
<svg id="Calque_2" data-name="Calque 2" xmlns="http://www.w3.org/2000/svg" viewBox="0 0 336.02 202.58">
  <defs>
    <style>
      .cls-1 {
        fill: #fff;
      }

      .cls-2 {
        fill: #de9933;
      }
    </style>
  </defs>
  <g id="Calque_1-2" data-name="Calque 1">
    <g>
      <g>
        <path class="cls-2" d="M0,182.66c0-8.43,6.26-13.12,12.52-13.12,5.76,0,9.82,3.13,11.1,8l-3.24,1.14c-.96-3.81-3.73-5.94-7.86-5.94-4.59,0-8.96,3.34-8.96,9.92s4.38,9.96,8.96,9.96c4.3,0,7.01-2.6,8.04-6.05l3.09,1.14c-1.35,4.73-5.33,8.11-11.13,8.11-6.51,0-12.52-4.73-12.52-13.16Z"/>
        <path class="cls-2" d="M30.91,195.29h-3.34v-25.75h3.34v10.63c1.25-1.81,3.24-2.49,5.19-2.49,4.09,0,6.12,2.95,6.12,6.76v10.85h-3.34v-10.28c0-2.38-1-4.3-3.98-4.3-2.56,0-3.91,1.99-3.98,4.52v10.07Z"/>
        <path class="cls-2" d="M51.5,185.5l4.62-.68c1.03-.14,1.32-.68,1.32-1.28,0-1.67-1.1-3.06-3.7-3.06-2.35,0-3.66,1.46-3.88,3.45l-3.2-.75c.36-3.27,3.31-5.55,7.01-5.55,5.12,0,7.11,2.92,7.11,6.26v8.57c0,1.49.14,2.38.21,2.81h-3.27c-.07-.43-.18-1.07-.18-2.31-.75,1.21-2.45,2.84-5.51,2.84-3.49,0-5.73-2.42-5.73-5.12,0-3.06,2.24-4.77,5.19-5.19ZM57.44,187.96v-.78l-5.23.78c-1.42.21-2.49,1.03-2.49,2.56,0,1.28,1.07,2.49,2.77,2.49,2.74,0,4.94-1.32,4.94-5.05Z"/>
        <path class="cls-2" d="M72.27,195.82c-3.98,0-6.4-2.99-6.4-6.86v-10.78h3.34v10.28c0,2.35,1.07,4.41,3.88,4.41s4.06-1.78,4.06-4.38v-10.31h3.34v13.94c0,1.35.11,2.56.18,3.17h-3.2c-.07-.39-.14-1.35-.14-2.06-.92,1.78-3.06,2.6-5.05,2.6Z"/>
        <path class="cls-2" d="M101.97,175.47v2.7h4.13v3.02h-4.13v14.08h-3.45v-14.08h-7.79v14.08h-3.45v-14.08h-3.17v-3.02h3.17v-2.88c0-3.81,2.53-5.87,5.62-5.87,1.14,0,1.85.25,1.99.36v2.99c-.18-.07-.6-.21-1.46-.21-1.17,0-2.7.57-2.7,2.92v2.7h7.79v-2.88c0-3.81,2.53-5.87,5.62-5.87,1.14,0,1.85.25,1.99.36v2.99c-.18-.07-.6-.21-1.46-.21-1.17,0-2.7.57-2.7,2.92Z"/>
        <path class="cls-2" d="M113.63,185.5l4.62-.68c1.03-.14,1.32-.68,1.32-1.28,0-1.67-1.1-3.06-3.7-3.06-2.35,0-3.66,1.46-3.88,3.45l-3.2-.75c.36-3.27,3.31-5.55,7.01-5.55,5.12,0,7.11,2.92,7.11,6.26v8.57c0,1.49.14,2.38.21,2.81h-3.27c-.07-.43-.18-1.07-.18-2.31-.75,1.21-2.45,2.84-5.51,2.84-3.49,0-5.73-2.42-5.73-5.12,0-3.06,2.24-4.77,5.19-5.19ZM119.57,187.96v-.78l-5.23.78c-1.42.21-2.49,1.03-2.49,2.56,0,1.28,1.07,2.49,2.77,2.49,2.74,0,4.94-1.32,4.94-5.05Z"/>
        <path class="cls-2" d="M130.27,195.46c.25,2.38,2.06,4.2,4.66,4.2,3.59,0,5.23-1.85,5.23-5.55v-2.45c-.82,1.57-2.67,2.81-5.23,2.81-4.55,0-7.86-3.45-7.86-8.29s3.17-8.32,7.86-8.32c2.63,0,4.41,1,5.26,2.7v-2.38h3.31v15.83c0,4.34-2.13,8.57-8.57,8.57-4.27,0-7.47-2.7-7.9-6.37l3.24-.75ZM140.3,186.18c0-3.31-1.99-5.48-4.87-5.48s-4.94,2.17-4.94,5.48,1.92,5.48,4.94,5.48,4.87-2.17,4.87-5.48Z"/>
        <path class="cls-2" d="M164.06,190.41c-.96,3.02-3.7,5.41-7.68,5.41-4.59,0-8.61-3.34-8.61-9.14,0-5.37,3.88-9.03,8.18-9.03,5.26,0,8.22,3.63,8.22,8.96,0,.43-.04.85-.07,1.07h-12.88c.07,3.06,2.28,5.19,5.16,5.19s4.16-1.53,4.8-3.45l2.88,1ZM160.68,184.97c-.07-2.45-1.67-4.38-4.69-4.38-2.81,0-4.52,2.17-4.66,4.38h9.35Z"/>
        <path class="cls-2" d="M181.38,185.5l4.62-.68c1.03-.14,1.32-.68,1.32-1.28,0-1.67-1.1-3.06-3.7-3.06-2.35,0-3.66,1.46-3.88,3.45l-3.2-.75c.36-3.27,3.31-5.55,7.01-5.55,5.12,0,7.11,2.92,7.11,6.26v8.57c0,1.49.14,2.38.21,2.81h-3.27c-.07-.43-.18-1.07-.18-2.31-.75,1.21-2.45,2.84-5.51,2.84-3.49,0-5.73-2.42-5.73-5.12,0-3.06,2.24-4.77,5.19-5.19ZM178.29,170.78h4.2l3.06,5.19h-2.77l-4.48-5.19ZM187.32,187.96v-.78l-5.23.78c-1.42.21-2.49,1.03-2.49,2.56,0,1.28,1.07,2.49,2.77,2.49,2.74,0,4.94-1.32,4.94-5.05Z"/>
        <path class="cls-2" d="M217.19,192.69c-.82,1.64-2.63,3.06-5.3,3.06-5.01,0-8.11-3.98-8.11-9.07s3.27-8.96,8.11-8.96c3.02,0,4.66,1.49,5.23,2.88v-11.06h3.31v22.58c0,1.64.14,2.88.18,3.17h-3.24c-.07-.39-.18-1.28-.18-2.31v-.29ZM212.22,192.8c3.06,0,4.94-2.67,4.94-6.19s-1.85-5.94-4.91-5.94-5.05,2.49-5.05,6.01,1.81,6.12,5.02,6.12Z"/>
        <path class="cls-2" d="M227.51,169.29c1.35,0,2.42,1.07,2.42,2.42s-1.07,2.38-2.42,2.38-2.38-1.07-2.38-2.38,1.07-2.42,2.38-2.42ZM225.87,195.29v-17.11h3.31v17.11h-3.31Z"/>
        <path class="cls-2" d="M236.26,189.77c.21,1.78,1.56,3.2,3.98,3.2,1.88,0,2.92-1.07,2.92-2.28,0-1.07-.78-1.89-2.21-2.21l-2.92-.64c-2.67-.57-4.27-2.38-4.27-4.8,0-2.92,2.74-5.41,6.08-5.41,4.7,0,6.15,3.06,6.51,4.59l-2.95,1.1c-.14-.89-.85-2.85-3.56-2.85-1.71,0-2.85,1.1-2.85,2.28,0,1.03.64,1.78,1.96,2.06l2.77.6c3.09.68,4.73,2.56,4.73,5.09s-2.03,5.3-6.26,5.3c-4.69,0-6.69-3.02-6.97-4.98l3.02-1.07Z"/>
        <path class="cls-2" d="M255.43,178.18h3.7v3.02h-3.7v8.89c0,1.57.64,2.35,2.38,2.35.43,0,1.03-.07,1.32-.14v2.84c-.29.11-1.14.32-2.28.32-2.92,0-4.77-1.78-4.77-4.87v-9.39h-3.27v-3.02h.92c1.85,0,2.63-1.14,2.63-2.63v-2.77h3.06v5.41Z"/>
        <path class="cls-2" d="M267.16,185.5l4.62-.68c1.03-.14,1.32-.68,1.32-1.28,0-1.67-1.1-3.06-3.7-3.06-2.35,0-3.66,1.46-3.88,3.45l-3.2-.75c.36-3.27,3.31-5.55,7.01-5.55,5.12,0,7.11,2.92,7.11,6.26v8.57c0,1.49.14,2.38.21,2.81h-3.27c-.07-.43-.18-1.07-.18-2.31-.75,1.21-2.45,2.84-5.51,2.84-3.49,0-5.73-2.42-5.73-5.12,0-3.06,2.24-4.77,5.19-5.19ZM273.1,187.96v-.78l-5.23.78c-1.42.21-2.49,1.03-2.49,2.56,0,1.28,1.07,2.49,2.77,2.49,2.74,0,4.94-1.32,4.94-5.05Z"/>
        <path class="cls-2" d="M285.05,195.29h-3.34v-17.11h3.27v2.45c1.25-2.13,3.27-2.95,5.26-2.95,4.09,0,6.12,2.95,6.12,6.76v10.85h-3.34v-10.28c0-2.38-1-4.3-3.98-4.3-2.63,0-3.98,2.1-3.98,4.7v9.89Z"/>
        <path class="cls-2" d="M303.86,186.71c0,3.91,2.45,6.01,5.23,6.01,3.2,0,4.38-2.17,4.77-3.52l2.95,1.28c-.82,2.45-3.27,5.33-7.72,5.33-4.98,0-8.64-3.91-8.64-9.11s3.73-9.07,8.61-9.07c4.55,0,6.9,2.84,7.61,5.44l-3.02,1.28c-.43-1.67-1.67-3.63-4.59-3.63-2.7,0-5.19,1.99-5.19,5.98Z"/>
        <path class="cls-2" d="M335.91,190.41c-.96,3.02-3.7,5.41-7.68,5.41-4.59,0-8.61-3.34-8.61-9.14,0-5.37,3.88-9.03,8.18-9.03,5.26,0,8.22,3.63,8.22,8.96,0,.43-.04.85-.07,1.07h-12.88c.07,3.06,2.28,5.19,5.16,5.19s4.16-1.53,4.8-3.45l2.88,1ZM332.53,184.97c-.07-2.45-1.67-4.38-4.69-4.38-2.81,0-4.52,2.17-4.66,4.38h9.35Z"/>
      </g>
      <g>
        <polygon points="78.95 122.83 93.1 122.83 93.1 159.04 103.35 159.04 103.35 122.83 117.56 122.83 117.56 113.03 78.95 113.03 78.95 122.83"/>
        <polygon points="134.04 140.48 151.18 140.48 151.18 131.46 134.04 131.46 134.04 122.7 152.93 122.7 152.93 113.03 123.79 113.03 123.79 159.04 152.99 159.04 152.99 149.31 134.04 149.31 134.04 140.48"/>
        <polygon class="cls-2" points="177.06 140.93 177.07 140.94 202.18 113.03 188.68 113.03 186.67 115.34 161.62 144.17 161.62 158.1 175.25 142.96 177.06 140.93"/>
        <polygon points="178.82 143.5 189.46 159.04 202.24 159.04 186.02 135.5 178.82 143.5"/>
        <polygon points="171.87 113.03 161.62 113.03 161.62 139.56 171.87 127.76 171.87 113.03"/>
        <path d="M226.12,131.65l-6.16-1.17c-3.18-.58-4.54-2.21-4.54-4.41,0-2.53,2.47-4.93,6.29-4.93,5.58,0,7.33,3.63,7.66,5.78l9.21-2.6c-.97-5.39-5.32-12.26-16.81-12.26-8.83,0-16.48,6.1-16.48,14.8,0,6.81,4.74,12.01,12.52,13.5l6.29,1.17c3.05.58,4.93,2.27,4.93,4.61,0,2.86-2.47,4.8-6.49,4.8-6.29,0-9.15-3.7-9.54-7.92l-9.41,2.27c.65,6.49,6.1,14.73,18.82,14.73,10.97,0,17-7.33,17-14.54,0-6.55-4.54-12.2-13.3-13.82Z"/>
        <rect x="246.43" y="113.03" width="10.38" height="46.01"/>
      </g>
      <circle class="cls-2" cx="167.88" cy="45" r="45"/>
      <path class="cls-1" d="M170.89,50.48s.05-.03.08-.05c4.83-2.68,8.34-7.08,9.88-12.39,3.2-11.03-3.17-22.6-14.19-25.8-3.31-.96-6.78.94-7.74,4.26-.96,3.31.94,6.78,4.26,7.74,4.41,1.28,6.95,5.91,5.67,10.31-.62,2.13-2.03,3.9-3.98,4.97h0c-4.87,2.68-8.41,7.1-9.96,12.44-3.2,11.03,3.16,22.6,14.19,25.8.58.17,1.17.25,1.75.25,2.71,0,5.21-1.78,6-4.51.96-3.31-.94-6.78-4.26-7.74-4.41-1.28-6.95-5.91-5.67-10.31.62-2.13,2.03-3.9,3.98-4.97Z"/>
    </g>
  </g>
</svg>